<svg width="428" height="76" viewBox="0 0 428 76" fill="none" xmlns="http://www.w3.org/2000/svg">
<rect width="428" height="80" transform="translate(0 -4)" fill="white"/>
<g clip-path="url(#clip0_128_3576)">
<path d="M30 48H66V44H30V48ZM30 38H66V34H30V38ZM30 24V28H66V24H30Z" fill="#002F52"/>
</g>
<path d="M116 17.7188L132.148 51.8849H99.8511L116 17.7188Z" fill="#FECD2F"/>
<path fill-rule="evenodd" clip-rule="evenodd" d="M106.46 47.7672H125.54L116 27.5835L106.46 47.7672ZM96 50.1661L112.149 16H119.851L136 50.1661L132.149 56H99.8514L96 50.1661Z" fill="url(#paint0_linear_128_3576)"/>
<path d="M268.409 20C265.374 20 262.462 21.4125 260.561 23.6447C258.66 21.4125 255.748 20 252.714 20C247.343 20 243.123 24.2202 243.123 29.5913C243.123 36.1831 249.052 41.5542 258.033 49.7155L260.561 52L263.09 49.6981C272.071 41.5542 278 36.1831 278 29.5913C278 24.2202 273.78 20 268.409 20ZM260.736 47.1172L260.561 47.2916L260.387 47.1172C252.086 39.6011 246.61 34.6311 246.61 29.5913C246.61 26.1035 249.226 23.4877 252.714 23.4877C255.399 23.4877 258.015 25.2142 258.939 27.6033H262.2C263.107 25.2142 265.723 23.4877 268.409 23.4877C271.896 23.4877 274.512 26.1035 274.512 29.5913C274.512 34.6311 269.036 39.6011 260.736 47.1172Z" fill="url(#paint1_linear_128_3576)"/>
<g clip-path="url(#clip1_128_3576)">
<path d="M330.5 24.4993H327.333C327.333 21.0002 324.499 18.166 321 18.166C317.501 18.166 314.667 21.0002 314.667 24.4993H311.5C309.758 24.4993 308.333 25.9243 308.333 27.666V46.666C308.333 48.4077 309.758 49.8327 311.5 49.8327H330.5C332.242 49.8327 333.667 48.4077 333.667 46.666V27.666C333.667 25.9243 332.242 24.4993 330.5 24.4993ZM321 21.3327C322.742 21.3327 324.167 22.7577 324.167 24.4993H317.833C317.833 22.7577 319.258 21.3327 321 21.3327ZM330.5 46.666H311.5V27.666H314.667V30.8327C314.667 31.7035 315.379 32.416 316.25 32.416C317.121 32.416 317.833 31.7035 317.833 30.8327V27.666H324.167V30.8327C324.167 31.7035 324.879 32.416 325.75 32.416C326.621 32.416 327.333 31.7035 327.333 30.8327V27.666H330.5V46.666Z" fill="#002F52"/>
</g>
<path d="M380 20C371.168 20 364 27.168 364 36C364 44.832 371.168 52 380 52C388.832 52 396 44.832 396 36C396 27.168 388.832 20 380 20ZM372.112 46.048C372.8 44.608 376.992 43.2 380 43.2C383.008 43.2 387.216 44.608 387.888 46.048C385.712 47.776 382.976 48.8 380 48.8C377.024 48.8 374.288 47.776 372.112 46.048ZM390.176 43.728C387.888 40.944 382.336 40 380 40C377.664 40 372.112 40.944 369.824 43.728C368.192 41.584 367.2 38.912 367.2 36C367.2 28.944 372.944 23.2 380 23.2C387.056 23.2 392.8 28.944 392.8 36C392.8 38.912 391.808 41.584 390.176 43.728ZM380 26.4C376.896 26.4 374.4 28.896 374.4 32C374.4 35.104 376.896 37.6 380 37.6C383.104 37.6 385.6 35.104 385.6 32C385.6 28.896 383.104 26.4 380 26.4ZM380 34.4C378.672 34.4 377.6 33.328 377.6 32C377.6 30.672 378.672 29.6 380 29.6C381.328 29.6 382.4 30.672 382.4 32C382.4 33.328 381.328 34.4 380 34.4Z" fill="#002F52"/>
<defs>
<linearGradient id="paint0_linear_128_3576" x1="116" y1="16" x2="116" y2="56" gradientUnits="userSpaceOnUse">
<stop offset="0.677083" stop-color="#FD8325"/>
<stop offset="1" stop-color="#FC6621"/>
</linearGradient>
<linearGradient id="paint1_linear_128_3576" x1="257.695" y1="16.16" x2="307.945" y2="23.4119" gradientUnits="userSpaceOnUse">
<stop stop-color="#002F52"/>
<stop offset="1" stop-color="#326589"/>
</linearGradient>
<clipPath id="clip0_128_3576">
<rect width="48" height="48" fill="white" transform="translate(24 12)"/>
</clipPath>
<clipPath id="clip1_128_3576">
<rect width="38" height="38" fill="white" transform="translate(302 15)"/>
</clipPath>
</defs>
</svg>
