<svg width="428" height="295" viewBox="0 0 428 295" fill="none" xmlns="http://www.w3.org/2000/svg">
<rect width="427.582" height="295" fill="url(#paint0_linear_128_3699)"/>
<path d="M86.9512 30.816V31.744H83.8472V42H82.7272V31.744H79.6072V30.816H86.9512ZM93.7437 42.112C92.709 42.112 91.7703 41.872 90.9277 41.392C90.085 40.9013 89.4183 40.224 88.9277 39.36C88.4477 38.4853 88.2077 37.4987 88.2077 36.4C88.2077 35.3013 88.4477 34.32 88.9277 33.456C89.4183 32.5813 90.085 31.904 90.9277 31.424C91.7703 30.9333 92.709 30.688 93.7437 30.688C94.789 30.688 95.733 30.9333 96.5757 31.424C97.4183 31.904 98.0797 32.5813 98.5597 33.456C99.0397 34.32 99.2797 35.3013 99.2797 36.4C99.2797 37.4987 99.0397 38.4853 98.5597 39.36C98.0797 40.224 97.4183 40.9013 96.5757 41.392C95.733 41.872 94.789 42.112 93.7437 42.112ZM93.7437 41.136C94.5757 41.136 95.3223 40.944 95.9837 40.56C96.645 40.176 97.1677 39.6267 97.5517 38.912C97.9357 38.1867 98.1277 37.3493 98.1277 36.4C98.1277 35.4507 97.9357 34.6187 97.5517 33.904C97.1677 33.1893 96.645 32.64 95.9837 32.256C95.3223 31.872 94.5757 31.68 93.7437 31.68C92.9117 31.68 92.165 31.872 91.5037 32.256C90.8423 32.64 90.3197 33.1893 89.9357 33.904C89.5517 34.6187 89.3597 35.4507 89.3597 36.4C89.3597 37.3493 89.5517 38.1867 89.9357 38.912C90.3197 39.6267 90.8423 40.176 91.5037 40.56C92.165 40.944 92.9117 41.136 93.7437 41.136ZM95.2957 28.384L92.0157 30.288V29.424L95.2957 27.376V28.384ZM108.481 34.032C108.481 34.992 108.166 35.7653 107.537 36.352C106.908 36.9387 105.964 37.232 104.705 37.232H102.449V42H101.329V30.816H104.705C105.953 30.816 106.892 31.1093 107.521 31.696C108.161 32.2827 108.481 33.0613 108.481 34.032ZM104.705 36.272C106.454 36.272 107.329 35.5253 107.329 34.032C107.329 33.2853 107.121 32.72 106.705 32.336C106.289 31.952 105.622 31.76 104.705 31.76H102.449V36.272H104.705ZM111.48 30.816V42H110.36V30.816H111.48ZM113.505 36.4C113.505 35.3013 113.745 34.32 114.225 33.456C114.705 32.5813 115.361 31.904 116.193 31.424C117.025 30.9333 117.953 30.688 118.977 30.688C120.225 30.688 121.291 30.9867 122.177 31.584C123.073 32.1707 123.723 33.0027 124.129 34.08H122.817C122.497 33.3227 122.006 32.7307 121.345 32.304C120.694 31.8773 119.905 31.664 118.977 31.664C118.155 31.664 117.414 31.856 116.753 32.24C116.102 32.624 115.59 33.1787 115.217 33.904C114.843 34.6187 114.657 35.4507 114.657 36.4C114.657 37.3493 114.843 38.1813 115.217 38.896C115.59 39.6107 116.102 40.16 116.753 40.544C117.414 40.928 118.155 41.12 118.977 41.12C119.905 41.12 120.694 40.912 121.345 40.496C122.006 40.0693 122.497 39.4827 122.817 38.736H124.129C123.723 39.8027 123.073 40.6293 122.177 41.216C121.281 41.8027 120.214 42.096 118.977 42.096C117.953 42.096 117.025 41.856 116.193 41.376C115.361 40.8853 114.705 40.208 114.225 39.344C113.745 38.48 113.505 37.4987 113.505 36.4ZM131.384 42.112C130.35 42.112 129.411 41.872 128.568 41.392C127.726 40.9013 127.059 40.224 126.568 39.36C126.088 38.4853 125.848 37.4987 125.848 36.4C125.848 35.3013 126.088 34.32 126.568 33.456C127.059 32.5813 127.726 31.904 128.568 31.424C129.411 30.9333 130.35 30.688 131.384 30.688C132.43 30.688 133.374 30.9333 134.216 31.424C135.059 31.904 135.72 32.5813 136.2 33.456C136.68 34.32 136.92 35.3013 136.92 36.4C136.92 37.4987 136.68 38.4853 136.2 39.36C135.72 40.224 135.059 40.9013 134.216 41.392C133.374 41.872 132.43 42.112 131.384 42.112ZM131.384 41.136C132.216 41.136 132.963 40.944 133.624 40.56C134.286 40.176 134.808 39.6267 135.192 38.912C135.576 38.1867 135.768 37.3493 135.768 36.4C135.768 35.4507 135.576 34.6187 135.192 33.904C134.808 33.1893 134.286 32.64 133.624 32.256C132.963 31.872 132.216 31.68 131.384 31.68C130.552 31.68 129.806 31.872 129.144 32.256C128.483 32.64 127.96 33.1893 127.576 33.904C127.192 34.6187 127 35.4507 127 36.4C127 37.3493 127.192 38.1867 127.576 38.912C127.96 39.6267 128.483 40.176 129.144 40.56C129.806 40.944 130.552 41.136 131.384 41.136ZM142.362 42.112C141.626 42.112 140.975 41.984 140.41 41.728C139.855 41.472 139.418 41.1147 139.098 40.656C138.778 40.1973 138.607 39.6853 138.586 39.12H139.77C139.823 39.664 140.063 40.144 140.49 40.56C140.916 40.9653 141.54 41.168 142.362 41.168C143.119 41.168 143.716 40.976 144.154 40.592C144.602 40.1973 144.826 39.7013 144.826 39.104C144.826 38.624 144.703 38.24 144.458 37.952C144.212 37.6533 143.908 37.4347 143.546 37.296C143.183 37.1467 142.682 36.9867 142.042 36.816C141.295 36.6133 140.703 36.416 140.266 36.224C139.828 36.032 139.455 35.7333 139.146 35.328C138.836 34.9227 138.682 34.3733 138.682 33.68C138.682 33.104 138.831 32.592 139.13 32.144C139.428 31.6853 139.85 31.328 140.394 31.072C140.938 30.816 141.562 30.688 142.266 30.688C143.3 30.688 144.132 30.944 144.762 31.456C145.402 31.9573 145.77 32.608 145.866 33.408H144.65C144.575 32.9493 144.324 32.544 143.898 32.192C143.471 31.8293 142.895 31.648 142.17 31.648C141.498 31.648 140.938 31.8293 140.49 32.192C140.042 32.544 139.818 33.0293 139.818 33.648C139.818 34.1173 139.94 34.496 140.186 34.784C140.431 35.072 140.735 35.2907 141.098 35.44C141.471 35.5893 141.972 35.7493 142.602 35.92C143.327 36.1227 143.914 36.3253 144.362 36.528C144.81 36.72 145.188 37.0187 145.498 37.424C145.807 37.8293 145.962 38.3733 145.962 39.056C145.962 39.5787 145.823 40.0747 145.546 40.544C145.268 41.0133 144.858 41.392 144.314 41.68C143.77 41.968 143.119 42.112 142.362 42.112ZM161.381 30.816L157.141 42H155.861L151.621 30.816H152.837L156.501 40.784L160.197 30.816H161.381ZM164.183 30.816V42H163.063V30.816H164.183ZM170.112 42.112C169.376 42.112 168.725 41.984 168.16 41.728C167.605 41.472 167.168 41.1147 166.848 40.656C166.528 40.1973 166.357 39.6853 166.336 39.12H167.52C167.573 39.664 167.813 40.144 168.24 40.56C168.666 40.9653 169.29 41.168 170.112 41.168C170.869 41.168 171.466 40.976 171.904 40.592C172.352 40.1973 172.576 39.7013 172.576 39.104C172.576 38.624 172.453 38.24 172.208 37.952C171.962 37.6533 171.658 37.4347 171.296 37.296C170.933 37.1467 170.432 36.9867 169.792 36.816C169.045 36.6133 168.453 36.416 168.016 36.224C167.578 36.032 167.205 35.7333 166.896 35.328C166.586 34.9227 166.432 34.3733 166.432 33.68C166.432 33.104 166.581 32.592 166.88 32.144C167.178 31.6853 167.6 31.328 168.144 31.072C168.688 30.816 169.312 30.688 170.016 30.688C171.05 30.688 171.882 30.944 172.512 31.456C173.152 31.9573 173.52 32.608 173.616 33.408H172.4C172.325 32.9493 172.074 32.544 171.648 32.192C171.221 31.8293 170.645 31.648 169.92 31.648C169.248 31.648 168.688 31.8293 168.24 32.192C167.792 32.544 167.568 33.0293 167.568 33.648C167.568 34.1173 167.69 34.496 167.936 34.784C168.181 35.072 168.485 35.2907 168.848 35.44C169.221 35.5893 169.722 35.7493 170.352 35.92C171.077 36.1227 171.664 36.3253 172.112 36.528C172.56 36.72 172.938 37.0187 173.248 37.424C173.557 37.8293 173.712 38.3733 173.712 39.056C173.712 39.5787 173.573 40.0747 173.296 40.544C173.018 41.0133 172.608 41.392 172.064 41.68C171.52 41.968 170.869 42.112 170.112 42.112ZM176.996 30.816V42H175.876V30.816H176.996ZM186.076 30.816V31.744H182.972V42H181.852V31.744H178.732V30.816H186.076ZM194.325 39.344H189.237L188.261 42H187.077L191.157 30.96H192.421L196.485 42H195.301L194.325 39.344ZM193.989 38.416L191.781 32.368L189.573 38.416H193.989ZM201.594 30.816C202.832 30.816 203.893 31.04 204.778 31.488C205.664 31.936 206.341 32.5813 206.81 33.424C207.28 34.2667 207.514 35.2693 207.514 36.432C207.514 37.584 207.28 38.5813 206.81 39.424C206.341 40.256 205.664 40.896 204.778 41.344C203.893 41.7813 202.832 42 201.594 42H198.282V30.816H201.594ZM201.594 41.072C203.152 41.072 204.336 40.6667 205.146 39.856C205.968 39.0347 206.378 37.8933 206.378 36.432C206.378 34.96 205.968 33.8133 205.146 32.992C204.336 32.16 203.152 31.744 201.594 31.744H199.402V41.072H201.594ZM214.603 42.112C213.568 42.112 212.63 41.872 211.787 41.392C210.944 40.9013 210.278 40.224 209.787 39.36C209.307 38.4853 209.067 37.4987 209.067 36.4C209.067 35.3013 209.307 34.32 209.787 33.456C210.278 32.5813 210.944 31.904 211.787 31.424C212.63 30.9333 213.568 30.688 214.603 30.688C215.648 30.688 216.592 30.9333 217.435 31.424C218.278 31.904 218.939 32.5813 219.419 33.456C219.899 34.32 220.139 35.3013 220.139 36.4C220.139 37.4987 219.899 38.4853 219.419 39.36C218.939 40.224 218.278 40.9013 217.435 41.392C216.592 41.872 215.648 42.112 214.603 42.112ZM214.603 41.136C215.435 41.136 216.182 40.944 216.843 40.56C217.504 40.176 218.027 39.6267 218.411 38.912C218.795 38.1867 218.987 37.3493 218.987 36.4C218.987 35.4507 218.795 34.6187 218.411 33.904C218.027 33.1893 217.504 32.64 216.843 32.256C216.182 31.872 215.435 31.68 214.603 31.68C213.771 31.68 213.024 31.872 212.363 32.256C211.702 32.64 211.179 33.1893 210.795 33.904C210.411 34.6187 210.219 35.4507 210.219 36.4C210.219 37.3493 210.411 38.1867 210.795 38.912C211.179 39.6267 211.702 40.176 212.363 40.56C213.024 40.944 213.771 41.136 214.603 41.136ZM225.58 42.112C224.844 42.112 224.194 41.984 223.628 41.728C223.074 41.472 222.636 41.1147 222.316 40.656C221.996 40.1973 221.826 39.6853 221.804 39.12H222.988C223.042 39.664 223.282 40.144 223.708 40.56C224.135 40.9653 224.759 41.168 225.58 41.168C226.338 41.168 226.935 40.976 227.372 40.592C227.82 40.1973 228.044 39.7013 228.044 39.104C228.044 38.624 227.922 38.24 227.676 37.952C227.431 37.6533 227.127 37.4347 226.764 37.296C226.402 37.1467 225.9 36.9867 225.26 36.816C224.514 36.6133 223.922 36.416 223.484 36.224C223.047 36.032 222.674 35.7333 222.364 35.328C222.055 34.9227 221.9 34.3733 221.9 33.68C221.9 33.104 222.05 32.592 222.348 32.144C222.647 31.6853 223.068 31.328 223.612 31.072C224.156 30.816 224.78 30.688 225.484 30.688C226.519 30.688 227.351 30.944 227.98 31.456C228.62 31.9573 228.988 32.608 229.084 33.408H227.868C227.794 32.9493 227.543 32.544 227.116 32.192C226.69 31.8293 226.114 31.648 225.388 31.648C224.716 31.648 224.156 31.8293 223.708 32.192C223.26 32.544 223.036 33.0293 223.036 33.648C223.036 34.1173 223.159 34.496 223.404 34.784C223.65 35.072 223.954 35.2907 224.316 35.44C224.69 35.5893 225.191 35.7493 225.82 35.92C226.546 36.1227 227.132 36.3253 227.58 36.528C228.028 36.72 228.407 37.0187 228.716 37.424C229.026 37.8293 229.18 38.3733 229.18 39.056C229.18 39.5787 229.042 40.0747 228.764 40.544C228.487 41.0133 228.076 41.392 227.532 41.68C226.988 41.968 226.338 42.112 225.58 42.112ZM241.687 42L238.919 37.328H236.855V42H235.735V30.816H239.095C240.343 30.816 241.287 31.1147 241.927 31.712C242.578 32.3093 242.903 33.0933 242.903 34.064C242.903 34.8747 242.669 35.568 242.199 36.144C241.741 36.7093 241.058 37.0773 240.151 37.248L243.031 42H241.687ZM236.855 36.416H239.111C239.986 36.416 240.642 36.2027 241.079 35.776C241.527 35.3493 241.751 34.7787 241.751 34.064C241.751 33.328 241.538 32.7627 241.111 32.368C240.685 31.9627 240.013 31.76 239.095 31.76H236.855V36.416ZM246.246 31.728V35.904H250.486V36.832H246.246V41.072H250.966V42H245.126V30.8H250.966V31.728H246.246ZM252.661 36.4C252.661 35.3013 252.901 34.32 253.381 33.456C253.861 32.5813 254.517 31.904 255.349 31.424C256.181 30.9333 257.109 30.688 258.133 30.688C259.381 30.688 260.447 30.9867 261.333 31.584C262.229 32.1707 262.879 33.0027 263.285 34.08H261.973C261.653 33.3227 261.162 32.7307 260.501 32.304C259.85 31.8773 259.061 31.664 258.133 31.664C257.311 31.664 256.57 31.856 255.909 32.24C255.258 32.624 254.746 33.1787 254.373 33.904C253.999 34.6187 253.813 35.4507 253.813 36.4C253.813 37.3493 253.999 38.1813 254.373 38.896C254.746 39.6107 255.258 40.16 255.909 40.544C256.57 40.928 257.311 41.12 258.133 41.12C259.061 41.12 259.85 40.912 260.501 40.496C261.162 40.0693 261.653 39.4827 261.973 38.736H263.285C262.879 39.8027 262.229 40.6293 261.333 41.216C260.437 41.8027 259.37 42.096 258.133 42.096C257.109 42.096 256.181 41.856 255.349 41.376C254.517 40.8853 253.861 40.208 253.381 39.344C252.901 38.48 252.661 37.4987 252.661 36.4ZM266.637 31.728V35.904H270.877V36.832H266.637V41.072H271.357V42H265.517V30.8H271.357V31.728H266.637ZM281.995 42H280.875L274.683 32.592V42H273.563V30.816H274.683L280.875 40.208V30.816H281.995V42ZM291.076 30.816V31.744H287.972V42H286.852V31.744H283.732V30.816H291.076ZM293.965 31.728V35.904H298.205V36.832H293.965V41.072H298.685V42H292.845V30.8H298.685V31.728H293.965ZM311.82 30.96V42H310.7V33.184L306.764 42H305.948L302.012 33.216V42H300.892V30.96H302.076L306.348 40.528L310.62 30.96H311.82ZM315.48 31.728V35.904H319.72V36.832H315.48V41.072H320.2V42H314.36V30.8H320.2V31.728H315.48ZM330.839 42H329.719L323.527 32.592V42H322.407V30.816H323.527L329.719 40.208V30.816H330.839V42ZM339.92 30.816V31.744H336.816V42H335.696V31.744H332.576V30.816H339.92ZM342.808 31.728V35.904H347.048V36.832H342.808V41.072H347.528V42H341.688V30.8H347.528V31.728H342.808Z" fill="white"/>
<rect width="106" height="53" transform="translate(15.791 80)" fill="#EB9B00"/>
<path d="M46.777 109.264H43.109L42.521 111H40.015L43.571 101.172H46.343L49.899 111H47.365L46.777 109.264ZM46.161 107.416L44.943 103.818L43.739 107.416H46.161ZM55.7413 103.104C56.6559 103.104 57.3839 103.403 57.9253 104C58.4759 104.588 58.7513 105.4 58.7513 106.436V111H56.3713V106.758C56.3713 106.235 56.2359 105.829 55.9653 105.54C55.6946 105.251 55.3306 105.106 54.8733 105.106C54.4159 105.106 54.0519 105.251 53.7813 105.54C53.5106 105.829 53.3753 106.235 53.3753 106.758V111H50.9813V103.188H53.3753V104.224C53.6179 103.879 53.9446 103.608 54.3553 103.412C54.7659 103.207 55.2279 103.104 55.7413 103.104ZM59.9389 107.08C59.9389 106.277 60.0882 105.573 60.3869 104.966C60.6949 104.359 61.1102 103.893 61.6329 103.566C62.1555 103.239 62.7389 103.076 63.3829 103.076C63.8962 103.076 64.3629 103.183 64.7829 103.398C65.2122 103.613 65.5482 103.902 65.7909 104.266V100.64H68.1849V111H65.7909V109.88C65.5669 110.253 65.2449 110.552 64.8249 110.776C64.4142 111 63.9335 111.112 63.3829 111.112C62.7389 111.112 62.1555 110.949 61.6329 110.622C61.1102 110.286 60.6949 109.815 60.3869 109.208C60.0882 108.592 59.9389 107.883 59.9389 107.08ZM65.7909 107.094C65.7909 106.497 65.6229 106.025 65.2869 105.68C64.9602 105.335 64.5589 105.162 64.0829 105.162C63.6069 105.162 63.2009 105.335 62.8649 105.68C62.5382 106.016 62.3749 106.483 62.3749 107.08C62.3749 107.677 62.5382 108.153 62.8649 108.508C63.2009 108.853 63.6069 109.026 64.0829 109.026C64.5589 109.026 64.9602 108.853 65.2869 108.508C65.6229 108.163 65.7909 107.691 65.7909 107.094ZM72.3108 104.49C72.5908 104.061 72.9408 103.725 73.3608 103.482C73.7808 103.23 74.2475 103.104 74.7608 103.104V105.638H74.1028C73.5055 105.638 73.0575 105.769 72.7588 106.03C72.4602 106.282 72.3108 106.73 72.3108 107.374V111H69.9168V103.188H72.3108V104.49ZM79.4611 111.112C78.6958 111.112 78.0051 110.949 77.3891 110.622C76.7824 110.295 76.3018 109.829 75.9471 109.222C75.6018 108.615 75.4291 107.906 75.4291 107.094C75.4291 106.291 75.6064 105.587 75.9611 104.98C76.3158 104.364 76.8011 103.893 77.4171 103.566C78.0331 103.239 78.7238 103.076 79.4891 103.076C80.2544 103.076 80.9451 103.239 81.5611 103.566C82.1771 103.893 82.6624 104.364 83.0171 104.98C83.3718 105.587 83.5491 106.291 83.5491 107.094C83.5491 107.897 83.3671 108.606 83.0031 109.222C82.6484 109.829 82.1584 110.295 81.5331 110.622C80.9171 110.949 80.2264 111.112 79.4611 111.112ZM79.4611 109.04C79.9184 109.04 80.3058 108.872 80.6231 108.536C80.9498 108.2 81.1131 107.719 81.1131 107.094C81.1131 106.469 80.9544 105.988 80.6371 105.652C80.3291 105.316 79.9464 105.148 79.4891 105.148C79.0224 105.148 78.6351 105.316 78.3271 105.652C78.0191 105.979 77.8651 106.459 77.8651 107.094C77.8651 107.719 78.0144 108.2 78.3131 108.536C78.6211 108.872 79.0038 109.04 79.4611 109.04ZM86.0232 102.376C85.6032 102.376 85.2578 102.255 84.9872 102.012C84.7258 101.76 84.5952 101.452 84.5952 101.088C84.5952 100.715 84.7258 100.407 84.9872 100.164C85.2578 99.912 85.6032 99.786 86.0232 99.786C86.4338 99.786 86.7698 99.912 87.0312 100.164C87.3018 100.407 87.4372 100.715 87.4372 101.088C87.4372 101.452 87.3018 101.76 87.0312 102.012C86.7698 102.255 86.4338 102.376 86.0232 102.376ZM87.2132 103.188V111H84.8192V103.188H87.2132ZM88.4721 107.08C88.4721 106.277 88.6214 105.573 88.9201 104.966C89.2281 104.359 89.6434 103.893 90.1661 103.566C90.6887 103.239 91.2721 103.076 91.9161 103.076C92.4294 103.076 92.8961 103.183 93.3161 103.398C93.7454 103.613 94.0814 103.902 94.3241 104.266V100.64H96.7181V111H94.3241V109.88C94.1001 110.253 93.7781 110.552 93.3581 110.776C92.9474 111 92.4667 111.112 91.9161 111.112C91.2721 111.112 90.6887 110.949 90.1661 110.622C89.6434 110.286 89.2281 109.815 88.9201 109.208C88.6214 108.592 88.4721 107.883 88.4721 107.08ZM94.3241 107.094C94.3241 106.497 94.1561 106.025 93.8201 105.68C93.4934 105.335 93.0921 105.162 92.6161 105.162C92.1401 105.162 91.7341 105.335 91.3981 105.68C91.0714 106.016 90.9081 106.483 90.9081 107.08C90.9081 107.677 91.0714 108.153 91.3981 108.508C91.7341 108.853 92.1401 109.026 92.6161 109.026C93.0921 109.026 93.4934 108.853 93.8201 108.508C94.1561 108.163 94.3241 107.691 94.3241 107.094Z" fill="white"/>
<rect width="173" height="53" transform="translate(137.791 80)" fill="#EB9B00"/>
<path d="M173.789 101.172V111H171.395V105.106L169.197 111H167.265L165.053 105.092V111H162.659V101.172H165.487L168.245 107.976L170.975 101.172H173.789ZM175.035 107.08C175.035 106.277 175.184 105.573 175.483 104.966C175.791 104.359 176.206 103.893 176.729 103.566C177.251 103.239 177.835 103.076 178.479 103.076C179.029 103.076 179.51 103.188 179.921 103.412C180.341 103.636 180.663 103.93 180.887 104.294V103.188H183.281V111H180.887V109.894C180.653 110.258 180.327 110.552 179.907 110.776C179.496 111 179.015 111.112 178.465 111.112C177.83 111.112 177.251 110.949 176.729 110.622C176.206 110.286 175.791 109.815 175.483 109.208C175.184 108.592 175.035 107.883 175.035 107.08ZM180.887 107.094C180.887 106.497 180.719 106.025 180.383 105.68C180.056 105.335 179.655 105.162 179.179 105.162C178.703 105.162 178.297 105.335 177.961 105.68C177.634 106.016 177.471 106.483 177.471 107.08C177.471 107.677 177.634 108.153 177.961 108.508C178.297 108.853 178.703 109.026 179.179 109.026C179.655 109.026 180.056 108.853 180.383 108.508C180.719 108.163 180.887 107.691 180.887 107.094ZM187.407 104.49C187.687 104.061 188.037 103.725 188.457 103.482C188.877 103.23 189.343 103.104 189.857 103.104V105.638H189.199C188.601 105.638 188.153 105.769 187.855 106.03C187.556 106.282 187.407 106.73 187.407 107.374V111H185.013V103.188H187.407V104.49ZM195.775 111L193.395 107.724V111H191.001V100.64H193.395V106.366L195.761 103.188H198.715L195.467 107.108L198.743 111H195.775ZM207.019 106.968C207.019 107.192 207.005 107.425 206.977 107.668H201.559C201.596 108.153 201.75 108.527 202.021 108.788C202.301 109.04 202.642 109.166 203.043 109.166C203.64 109.166 204.056 108.914 204.289 108.41H206.837C206.706 108.923 206.468 109.385 206.123 109.796C205.787 110.207 205.362 110.529 204.849 110.762C204.336 110.995 203.762 111.112 203.127 111.112C202.362 111.112 201.68 110.949 201.083 110.622C200.486 110.295 200.019 109.829 199.683 109.222C199.347 108.615 199.179 107.906 199.179 107.094C199.179 106.282 199.342 105.573 199.669 104.966C200.005 104.359 200.472 103.893 201.069 103.566C201.666 103.239 202.352 103.076 203.127 103.076C203.883 103.076 204.555 103.235 205.143 103.552C205.731 103.869 206.188 104.322 206.515 104.91C206.851 105.498 207.019 106.184 207.019 106.968ZM204.569 106.338C204.569 105.927 204.429 105.601 204.149 105.358C203.869 105.115 203.519 104.994 203.099 104.994C202.698 104.994 202.357 105.111 202.077 105.344C201.806 105.577 201.638 105.909 201.573 106.338H204.569ZM212.636 108.97V111H211.418C210.55 111 209.873 110.79 209.388 110.37C208.903 109.941 208.66 109.245 208.66 108.284V105.176H207.708V103.188H208.66V101.284H211.054V103.188H212.622V105.176H211.054V108.312C211.054 108.545 211.11 108.713 211.222 108.816C211.334 108.919 211.521 108.97 211.782 108.97H212.636ZM215.174 102.376C214.754 102.376 214.408 102.255 214.138 102.012C213.876 101.76 213.746 101.452 213.746 101.088C213.746 100.715 213.876 100.407 214.138 100.164C214.408 99.912 214.754 99.786 215.174 99.786C215.584 99.786 215.92 99.912 216.182 100.164C216.452 100.407 216.588 100.715 216.588 101.088C216.588 101.452 216.452 101.76 216.182 102.012C215.92 102.255 215.584 102.376 215.174 102.376ZM216.364 103.188V111H213.97V103.188H216.364ZM222.858 103.104C223.773 103.104 224.501 103.403 225.042 104C225.593 104.588 225.868 105.4 225.868 106.436V111H223.488V106.758C223.488 106.235 223.353 105.829 223.082 105.54C222.812 105.251 222.448 105.106 221.99 105.106C221.533 105.106 221.169 105.251 220.898 105.54C220.628 105.829 220.492 106.235 220.492 106.758V111H218.098V103.188H220.492V104.224C220.735 103.879 221.062 103.608 221.472 103.412C221.883 103.207 222.345 103.104 222.858 103.104ZM230.5 103.076C231.051 103.076 231.531 103.188 231.942 103.412C232.362 103.636 232.684 103.93 232.908 104.294V103.188H235.302V110.986C235.302 111.705 235.157 112.353 234.868 112.932C234.588 113.52 234.154 113.987 233.566 114.332C232.987 114.677 232.264 114.85 231.396 114.85C230.239 114.85 229.301 114.575 228.582 114.024C227.863 113.483 227.453 112.745 227.35 111.812H229.716C229.791 112.111 229.968 112.344 230.248 112.512C230.528 112.689 230.873 112.778 231.284 112.778C231.779 112.778 232.171 112.633 232.46 112.344C232.759 112.064 232.908 111.611 232.908 110.986V109.88C232.675 110.244 232.353 110.543 231.942 110.776C231.531 111 231.051 111.112 230.5 111.112C229.856 111.112 229.273 110.949 228.75 110.622C228.227 110.286 227.812 109.815 227.504 109.208C227.205 108.592 227.056 107.883 227.056 107.08C227.056 106.277 227.205 105.573 227.504 104.966C227.812 104.359 228.227 103.893 228.75 103.566C229.273 103.239 229.856 103.076 230.5 103.076ZM232.908 107.094C232.908 106.497 232.74 106.025 232.404 105.68C232.077 105.335 231.676 105.162 231.2 105.162C230.724 105.162 230.318 105.335 229.982 105.68C229.655 106.016 229.492 106.483 229.492 107.08C229.492 107.677 229.655 108.153 229.982 108.508C230.318 108.853 230.724 109.026 231.2 109.026C231.676 109.026 232.077 108.853 232.404 108.508C232.74 108.163 232.908 107.691 232.908 107.094ZM243.683 101.172C244.719 101.172 245.624 101.377 246.399 101.788C247.173 102.199 247.771 102.777 248.191 103.524C248.62 104.261 248.835 105.115 248.835 106.086C248.835 107.047 248.62 107.901 248.191 108.648C247.771 109.395 247.169 109.973 246.385 110.384C245.61 110.795 244.709 111 243.683 111H240.001V101.172H243.683ZM243.529 108.928C244.434 108.928 245.139 108.681 245.643 108.186C246.147 107.691 246.399 106.991 246.399 106.086C246.399 105.181 246.147 104.476 245.643 103.972C245.139 103.468 244.434 103.216 243.529 103.216H242.395V108.928H243.529ZM251.377 102.376C250.957 102.376 250.611 102.255 250.341 102.012C250.079 101.76 249.949 101.452 249.949 101.088C249.949 100.715 250.079 100.407 250.341 100.164C250.611 99.912 250.957 99.786 251.377 99.786C251.787 99.786 252.123 99.912 252.385 100.164C252.655 100.407 252.791 100.715 252.791 101.088C252.791 101.452 252.655 101.76 252.385 102.012C252.123 102.255 251.787 102.376 251.377 102.376ZM252.567 103.188V111H250.173V103.188H252.567ZM257.27 103.076C257.82 103.076 258.301 103.188 258.712 103.412C259.132 103.636 259.454 103.93 259.678 104.294V103.188H262.072V110.986C262.072 111.705 261.927 112.353 261.638 112.932C261.358 113.52 260.924 113.987 260.336 114.332C259.757 114.677 259.034 114.85 258.166 114.85C257.008 114.85 256.07 114.575 255.352 114.024C254.633 113.483 254.222 112.745 254.12 111.812H256.486C256.56 112.111 256.738 112.344 257.018 112.512C257.298 112.689 257.643 112.778 258.054 112.778C258.548 112.778 258.94 112.633 259.23 112.344C259.528 112.064 259.678 111.611 259.678 110.986V109.88C259.444 110.244 259.122 110.543 258.712 110.776C258.301 111 257.82 111.112 257.27 111.112C256.626 111.112 256.042 110.949 255.52 110.622C254.997 110.286 254.582 109.815 254.274 109.208C253.975 108.592 253.826 107.883 253.826 107.08C253.826 106.277 253.975 105.573 254.274 104.966C254.582 104.359 254.997 103.893 255.52 103.566C256.042 103.239 256.626 103.076 257.27 103.076ZM259.678 107.094C259.678 106.497 259.51 106.025 259.174 105.68C258.847 105.335 258.446 105.162 257.97 105.162C257.494 105.162 257.088 105.335 256.752 105.68C256.425 106.016 256.262 106.483 256.262 107.08C256.262 107.677 256.425 108.153 256.752 108.508C257.088 108.853 257.494 109.026 257.97 109.026C258.446 109.026 258.847 108.853 259.174 108.508C259.51 108.163 259.678 107.691 259.678 107.094ZM265.008 102.376C264.588 102.376 264.242 102.255 263.972 102.012C263.71 101.76 263.58 101.452 263.58 101.088C263.58 100.715 263.71 100.407 263.972 100.164C264.242 99.912 264.588 99.786 265.008 99.786C265.418 99.786 265.754 99.912 266.016 100.164C266.286 100.407 266.422 100.715 266.422 101.088C266.422 101.452 266.286 101.76 266.016 102.012C265.754 102.255 265.418 102.376 265.008 102.376ZM266.198 103.188V111H263.804V103.188H266.198ZM272.286 108.97V111H271.068C270.2 111 269.524 110.79 269.038 110.37C268.553 109.941 268.31 109.245 268.31 108.284V105.176H267.358V103.188H268.31V101.284H270.704V103.188H272.272V105.176H270.704V108.312C270.704 108.545 270.76 108.713 270.872 108.816C270.984 108.919 271.171 108.97 271.432 108.97H272.286ZM273.144 107.08C273.144 106.277 273.293 105.573 273.592 104.966C273.9 104.359 274.315 103.893 274.838 103.566C275.361 103.239 275.944 103.076 276.588 103.076C277.139 103.076 277.619 103.188 278.03 103.412C278.45 103.636 278.772 103.93 278.996 104.294V103.188H281.39V111H278.996V109.894C278.763 110.258 278.436 110.552 278.016 110.776C277.605 111 277.125 111.112 276.574 111.112C275.939 111.112 275.361 110.949 274.838 110.622C274.315 110.286 273.9 109.815 273.592 109.208C273.293 108.592 273.144 107.883 273.144 107.08ZM278.996 107.094C278.996 106.497 278.828 106.025 278.492 105.68C278.165 105.335 277.764 105.162 277.288 105.162C276.812 105.162 276.406 105.335 276.07 105.68C275.743 106.016 275.58 106.483 275.58 107.08C275.58 107.677 275.743 108.153 276.07 108.508C276.406 108.853 276.812 109.026 277.288 109.026C277.764 109.026 278.165 108.853 278.492 108.508C278.828 108.163 278.996 107.691 278.996 107.094ZM285.516 100.64V111H283.122V100.64H285.516Z" fill="white"/>
<rect width="85" height="53" transform="translate(326.791 80)" fill="#EB9B00"/>
<path d="M357.777 109.264H354.109L353.521 111H351.015L354.571 101.172H357.343L360.899 111H358.365L357.777 109.264ZM357.161 107.416L355.943 103.818L354.739 107.416H357.161ZM364.949 103.076C365.5 103.076 365.981 103.188 366.391 103.412C366.811 103.636 367.133 103.93 367.357 104.294V103.188H369.751V110.986C369.751 111.705 369.607 112.353 369.317 112.932C369.037 113.52 368.603 113.987 368.015 114.332C367.437 114.677 366.713 114.85 365.845 114.85C364.688 114.85 363.75 114.575 363.031 114.024C362.313 113.483 361.902 112.745 361.799 111.812H364.165C364.24 112.111 364.417 112.344 364.697 112.512C364.977 112.689 365.323 112.778 365.733 112.778C366.228 112.778 366.62 112.633 366.909 112.344C367.208 112.064 367.357 111.611 367.357 110.986V109.88C367.124 110.244 366.802 110.543 366.391 110.776C365.981 111 365.5 111.112 364.949 111.112C364.305 111.112 363.722 110.949 363.199 110.622C362.677 110.286 362.261 109.815 361.953 109.208C361.655 108.592 361.505 107.883 361.505 107.08C361.505 106.277 361.655 105.573 361.953 104.966C362.261 104.359 362.677 103.893 363.199 103.566C363.722 103.239 364.305 103.076 364.949 103.076ZM367.357 107.094C367.357 106.497 367.189 106.025 366.853 105.68C366.527 105.335 366.125 105.162 365.649 105.162C365.173 105.162 364.767 105.335 364.431 105.68C364.105 106.016 363.941 106.483 363.941 107.08C363.941 107.677 364.105 108.153 364.431 108.508C364.767 108.853 365.173 109.026 365.649 109.026C366.125 109.026 366.527 108.853 366.853 108.508C367.189 108.163 367.357 107.691 367.357 107.094ZM372.687 102.376C372.267 102.376 371.922 102.255 371.651 102.012C371.39 101.76 371.259 101.452 371.259 101.088C371.259 100.715 371.39 100.407 371.651 100.164C371.922 99.912 372.267 99.786 372.687 99.786C373.098 99.786 373.434 99.912 373.695 100.164C373.966 100.407 374.101 100.715 374.101 101.088C374.101 101.452 373.966 101.76 373.695 102.012C373.434 102.255 373.098 102.376 372.687 102.376ZM373.877 103.188V111H371.483V103.188H373.877ZM378.006 100.64V111H375.612V100.64H378.006ZM387.105 106.968C387.105 107.192 387.091 107.425 387.063 107.668H381.645C381.682 108.153 381.836 108.527 382.107 108.788C382.387 109.04 382.728 109.166 383.129 109.166C383.726 109.166 384.142 108.914 384.375 108.41H386.923C386.792 108.923 386.554 109.385 386.209 109.796C385.873 110.207 385.448 110.529 384.935 110.762C384.422 110.995 383.848 111.112 383.213 111.112C382.448 111.112 381.766 110.949 381.169 110.622C380.572 110.295 380.105 109.829 379.769 109.222C379.433 108.615 379.265 107.906 379.265 107.094C379.265 106.282 379.428 105.573 379.755 104.966C380.091 104.359 380.558 103.893 381.155 103.566C381.752 103.239 382.438 103.076 383.213 103.076C383.969 103.076 384.641 103.235 385.229 103.552C385.817 103.869 386.274 104.322 386.601 104.91C386.937 105.498 387.105 106.184 387.105 106.968ZM384.655 106.338C384.655 105.927 384.515 105.601 384.235 105.358C383.955 105.115 383.605 104.994 383.185 104.994C382.784 104.994 382.443 105.111 382.163 105.344C381.892 105.577 381.724 105.909 381.659 106.338H384.655Z" fill="white"/>
<rect width="111" height="53" transform="translate(26.291 149)" fill="#EB9B00"/>
<path d="M54.715 180.098C53.9963 180.098 53.3523 179.981 52.783 179.748C52.2137 179.515 51.7563 179.169 51.411 178.712C51.075 178.255 50.8977 177.704 50.879 177.06H53.427C53.4643 177.424 53.5903 177.704 53.805 177.9C54.0197 178.087 54.2997 178.18 54.645 178.18C54.9997 178.18 55.2797 178.101 55.485 177.942C55.6903 177.774 55.793 177.545 55.793 177.256C55.793 177.013 55.709 176.813 55.541 176.654C55.3823 176.495 55.1817 176.365 54.939 176.262C54.7057 176.159 54.3697 176.043 53.931 175.912C53.2963 175.716 52.7783 175.52 52.377 175.324C51.9757 175.128 51.6303 174.839 51.341 174.456C51.0517 174.073 50.907 173.574 50.907 172.958C50.907 172.043 51.2383 171.329 51.901 170.816C52.5637 170.293 53.427 170.032 54.491 170.032C55.5737 170.032 56.4463 170.293 57.109 170.816C57.7717 171.329 58.1263 172.048 58.173 172.972H55.583C55.5643 172.655 55.4477 172.407 55.233 172.23C55.0183 172.043 54.743 171.95 54.407 171.95C54.1177 171.95 53.8843 172.029 53.707 172.188C53.5297 172.337 53.441 172.557 53.441 172.846C53.441 173.163 53.5903 173.411 53.889 173.588C54.1877 173.765 54.6543 173.957 55.289 174.162C55.9237 174.377 56.437 174.582 56.829 174.778C57.2303 174.974 57.5757 175.259 57.865 175.632C58.1543 176.005 58.299 176.486 58.299 177.074C58.299 177.634 58.1543 178.143 57.865 178.6C57.585 179.057 57.1743 179.421 56.633 179.692C56.0917 179.963 55.4523 180.098 54.715 180.098ZM64.1263 177.97V180H62.9083C62.0403 180 61.3636 179.79 60.8783 179.37C60.393 178.941 60.1503 178.245 60.1503 177.284V174.176H59.1983V172.188H60.1503V170.284H62.5443V172.188H64.1123V174.176H62.5443V177.312C62.5443 177.545 62.6003 177.713 62.7123 177.816C62.8243 177.919 63.011 177.97 63.2723 177.97H64.1263ZM64.9838 176.08C64.9838 175.277 65.1331 174.573 65.4318 173.966C65.7398 173.359 66.1551 172.893 66.6778 172.566C67.2005 172.239 67.7838 172.076 68.4278 172.076C68.9785 172.076 69.4591 172.188 69.8698 172.412C70.2898 172.636 70.6118 172.93 70.8358 173.294V172.188H73.2298V180H70.8358V178.894C70.6025 179.258 70.2758 179.552 69.8558 179.776C69.4451 180 68.9645 180.112 68.4138 180.112C67.7791 180.112 67.2005 179.949 66.6778 179.622C66.1551 179.286 65.7398 178.815 65.4318 178.208C65.1331 177.592 64.9838 176.883 64.9838 176.08ZM70.8358 176.094C70.8358 175.497 70.6678 175.025 70.3318 174.68C70.0051 174.335 69.6038 174.162 69.1278 174.162C68.6518 174.162 68.2458 174.335 67.9098 174.68C67.5831 175.016 67.4198 175.483 67.4198 176.08C67.4198 176.677 67.5831 177.153 67.9098 177.508C68.2458 177.853 68.6518 178.026 69.1278 178.026C69.6038 178.026 70.0051 177.853 70.3318 177.508C70.6678 177.163 70.8358 176.691 70.8358 176.094ZM77.3558 173.49C77.6358 173.061 77.9858 172.725 78.4058 172.482C78.8258 172.23 79.2924 172.104 79.8058 172.104V174.638H79.1478C78.5504 174.638 78.1024 174.769 77.8038 175.03C77.5051 175.282 77.3558 175.73 77.3558 176.374V180H74.9618V172.188H77.3558V173.49ZM85.304 177.97V180H84.086C83.218 180 82.5414 179.79 82.056 179.37C81.5707 178.941 81.328 178.245 81.328 177.284V174.176H80.376V172.188H81.328V170.284H83.722V172.188H85.29V174.176H83.722V177.312C83.722 177.545 83.778 177.713 83.89 177.816C84.002 177.919 84.1887 177.97 84.45 177.97H85.304ZM94.3515 172.188V180H91.9575V178.936C91.7149 179.281 91.3835 179.561 90.9635 179.776C90.5529 179.981 90.0955 180.084 89.5915 180.084C88.9942 180.084 88.4669 179.953 88.0095 179.692C87.5522 179.421 87.1975 179.034 86.9455 178.53C86.6935 178.026 86.5675 177.433 86.5675 176.752V172.188H88.9475V176.43C88.9475 176.953 89.0829 177.359 89.3535 177.648C89.6242 177.937 89.9882 178.082 90.4455 178.082C90.9122 178.082 91.2809 177.937 91.5515 177.648C91.8222 177.359 91.9575 176.953 91.9575 176.43V172.188H94.3515ZM98.4651 173.294C98.6985 172.93 99.0205 172.636 99.4311 172.412C99.8418 172.188 100.322 172.076 100.873 172.076C101.517 172.076 102.1 172.239 102.623 172.566C103.146 172.893 103.556 173.359 103.855 173.966C104.163 174.573 104.317 175.277 104.317 176.08C104.317 176.883 104.163 177.592 103.855 178.208C103.556 178.815 103.146 179.286 102.623 179.622C102.1 179.949 101.517 180.112 100.873 180.112C100.332 180.112 99.8511 180 99.4311 179.776C99.0205 179.552 98.6985 179.263 98.4651 178.908V183.724H96.0711V172.188H98.4651V173.294ZM101.881 176.08C101.881 175.483 101.713 175.016 101.377 174.68C101.05 174.335 100.644 174.162 100.159 174.162C99.6831 174.162 99.2771 174.335 98.9411 174.68C98.6145 175.025 98.4511 175.497 98.4511 176.094C98.4511 176.691 98.6145 177.163 98.9411 177.508C99.2771 177.853 99.6831 178.026 100.159 178.026C100.635 178.026 101.041 177.853 101.377 177.508C101.713 177.153 101.881 176.677 101.881 176.08ZM108.751 180.112C108.07 180.112 107.463 179.995 106.931 179.762C106.399 179.529 105.979 179.211 105.671 178.81C105.363 178.399 105.19 177.942 105.153 177.438H107.519C107.547 177.709 107.673 177.928 107.897 178.096C108.121 178.264 108.396 178.348 108.723 178.348C109.022 178.348 109.25 178.292 109.409 178.18C109.577 178.059 109.661 177.905 109.661 177.718C109.661 177.494 109.544 177.331 109.311 177.228C109.078 177.116 108.7 176.995 108.177 176.864C107.617 176.733 107.15 176.598 106.777 176.458C106.404 176.309 106.082 176.08 105.811 175.772C105.54 175.455 105.405 175.03 105.405 174.498C105.405 174.05 105.526 173.644 105.769 173.28C106.021 172.907 106.385 172.613 106.861 172.398C107.346 172.183 107.92 172.076 108.583 172.076C109.563 172.076 110.333 172.319 110.893 172.804C111.462 173.289 111.789 173.933 111.873 174.736H109.661C109.624 174.465 109.502 174.251 109.297 174.092C109.101 173.933 108.84 173.854 108.513 173.854C108.233 173.854 108.018 173.91 107.869 174.022C107.72 174.125 107.645 174.269 107.645 174.456C107.645 174.68 107.762 174.848 107.995 174.96C108.238 175.072 108.611 175.184 109.115 175.296C109.694 175.445 110.165 175.595 110.529 175.744C110.893 175.884 111.21 176.117 111.481 176.444C111.761 176.761 111.906 177.191 111.915 177.732C111.915 178.189 111.784 178.6 111.523 178.964C111.271 179.319 110.902 179.599 110.417 179.804C109.941 180.009 109.386 180.112 108.751 180.112Z" fill="white"/>
<rect width="132" height="53" transform="translate(153.291 149)" fill="#EB9B00"/>
<path d="M186.671 170.172V180H184.277V175.954H180.553V180H178.159V170.172H180.553V174.022H184.277V170.172H186.671ZM195.469 170.172V172.09H192.865V180H190.471V172.09H187.867V170.172H195.469ZM207.801 170.172V180H205.407V174.106L203.209 180H201.277L199.065 174.092V180H196.671V170.172H199.499L202.257 176.976L204.987 170.172H207.801ZM211.916 178.152H215.052V180H209.522V170.172H211.916V178.152ZM226.679 180L225.769 179.118C224.864 179.809 223.781 180.154 222.521 180.154C221.765 180.154 221.107 180.033 220.547 179.79C219.987 179.538 219.553 179.188 219.245 178.74C218.946 178.283 218.797 177.751 218.797 177.144C218.797 176.528 218.96 175.973 219.287 175.478C219.623 174.974 220.122 174.563 220.785 174.246C220.542 173.947 220.37 173.663 220.267 173.392C220.164 173.112 220.113 172.809 220.113 172.482C220.113 172.015 220.234 171.591 220.477 171.208C220.72 170.825 221.07 170.527 221.527 170.312C221.994 170.088 222.544 169.976 223.179 169.976C223.823 169.976 224.369 170.093 224.817 170.326C225.265 170.559 225.601 170.872 225.825 171.264C226.049 171.656 226.152 172.085 226.133 172.552H223.879C223.888 172.3 223.823 172.109 223.683 171.978C223.552 171.838 223.375 171.768 223.151 171.768C222.927 171.768 222.74 171.833 222.591 171.964C222.442 172.095 222.367 172.263 222.367 172.468C222.367 172.664 222.428 172.869 222.549 173.084C222.68 173.299 222.88 173.546 223.151 173.826L225.545 176.164C225.564 176.117 225.587 176.061 225.615 175.996C225.652 175.931 225.69 175.856 225.727 175.772L226.245 174.89H228.639L227.967 176.108C227.715 176.659 227.426 177.181 227.099 177.676L229.465 180H226.679ZM222.633 178.222C223.258 178.222 223.814 178.045 224.299 177.69L222.115 175.576C221.443 175.921 221.107 176.388 221.107 176.976C221.107 177.331 221.242 177.629 221.513 177.872C221.793 178.105 222.166 178.222 222.633 178.222ZM232.892 175.072C232.892 174.101 233.102 173.238 233.522 172.482C233.942 171.717 234.525 171.124 235.272 170.704C236.028 170.275 236.882 170.06 237.834 170.06C239 170.06 239.999 170.368 240.83 170.984C241.66 171.6 242.216 172.44 242.496 173.504H239.864C239.668 173.093 239.388 172.781 239.024 172.566C238.669 172.351 238.263 172.244 237.806 172.244C237.068 172.244 236.471 172.501 236.014 173.014C235.556 173.527 235.328 174.213 235.328 175.072C235.328 175.931 235.556 176.617 236.014 177.13C236.471 177.643 237.068 177.9 237.806 177.9C238.263 177.9 238.669 177.793 239.024 177.578C239.388 177.363 239.668 177.051 239.864 176.64H242.496C242.216 177.704 241.66 178.544 240.83 179.16C239.999 179.767 239 180.07 237.834 180.07C236.882 180.07 236.028 179.86 235.272 179.44C234.525 179.011 233.942 178.418 233.522 177.662C233.102 176.906 232.892 176.043 232.892 175.072ZM247.518 180.098C246.799 180.098 246.155 179.981 245.586 179.748C245.016 179.515 244.559 179.169 244.214 178.712C243.878 178.255 243.7 177.704 243.682 177.06H246.23C246.267 177.424 246.393 177.704 246.608 177.9C246.822 178.087 247.102 178.18 247.448 178.18C247.802 178.18 248.082 178.101 248.288 177.942C248.493 177.774 248.596 177.545 248.596 177.256C248.596 177.013 248.512 176.813 248.344 176.654C248.185 176.495 247.984 176.365 247.742 176.262C247.508 176.159 247.172 176.043 246.734 175.912C246.099 175.716 245.581 175.52 245.18 175.324C244.778 175.128 244.433 174.839 244.144 174.456C243.854 174.073 243.71 173.574 243.71 172.958C243.71 172.043 244.041 171.329 244.704 170.816C245.366 170.293 246.23 170.032 247.294 170.032C248.376 170.032 249.249 170.293 249.912 170.816C250.574 171.329 250.929 172.048 250.976 172.972H248.386C248.367 172.655 248.25 172.407 248.036 172.23C247.821 172.043 247.546 171.95 247.21 171.95C246.92 171.95 246.687 172.029 246.51 172.188C246.332 172.337 246.244 172.557 246.244 172.846C246.244 173.163 246.393 173.411 246.692 173.588C246.99 173.765 247.457 173.957 248.092 174.162C248.726 174.377 249.24 174.582 249.632 174.778C250.033 174.974 250.378 175.259 250.668 175.632C250.957 176.005 251.102 176.486 251.102 177.074C251.102 177.634 250.957 178.143 250.668 178.6C250.388 179.057 249.977 179.421 249.436 179.692C248.894 179.963 248.255 180.098 247.518 180.098ZM256.131 180.098C255.412 180.098 254.768 179.981 254.199 179.748C253.63 179.515 253.172 179.169 252.827 178.712C252.491 178.255 252.314 177.704 252.295 177.06H254.843C254.88 177.424 255.006 177.704 255.221 177.9C255.436 178.087 255.716 178.18 256.061 178.18C256.416 178.18 256.696 178.101 256.901 177.942C257.106 177.774 257.209 177.545 257.209 177.256C257.209 177.013 257.125 176.813 256.957 176.654C256.798 176.495 256.598 176.365 256.355 176.262C256.122 176.159 255.786 176.043 255.347 175.912C254.712 175.716 254.194 175.52 253.793 175.324C253.392 175.128 253.046 174.839 252.757 174.456C252.468 174.073 252.323 173.574 252.323 172.958C252.323 172.043 252.654 171.329 253.317 170.816C253.98 170.293 254.843 170.032 255.907 170.032C256.99 170.032 257.862 170.293 258.525 170.816C259.188 171.329 259.542 172.048 259.589 172.972H256.999C256.98 172.655 256.864 172.407 256.649 172.23C256.434 172.043 256.159 171.95 255.823 171.95C255.534 171.95 255.3 172.029 255.123 172.188C254.946 172.337 254.857 172.557 254.857 172.846C254.857 173.163 255.006 173.411 255.305 173.588C255.604 173.765 256.07 173.957 256.705 174.162C257.34 174.377 257.853 174.582 258.245 174.778C258.646 174.974 258.992 175.259 259.281 175.632C259.57 176.005 259.715 176.486 259.715 177.074C259.715 177.634 259.57 178.143 259.281 178.6C259.001 179.057 258.59 179.421 258.049 179.692C257.508 179.963 256.868 180.098 256.131 180.098Z" fill="white"/>
<rect width="100" height="53" transform="translate(301.291 149)" fill="#EB9B00"/>
<path d="M333.649 173.336C333.649 173.905 333.518 174.428 333.257 174.904C332.996 175.371 332.594 175.749 332.053 176.038C331.512 176.327 330.84 176.472 330.037 176.472H328.553V180H326.159V170.172H330.037C330.821 170.172 331.484 170.307 332.025 170.578C332.566 170.849 332.972 171.222 333.243 171.698C333.514 172.174 333.649 172.72 333.649 173.336ZM329.855 174.568C330.312 174.568 330.653 174.461 330.877 174.246C331.101 174.031 331.213 173.728 331.213 173.336C331.213 172.944 331.101 172.641 330.877 172.426C330.653 172.211 330.312 172.104 329.855 172.104H328.553V174.568H329.855ZM342.875 172.188L337.975 183.71H335.399L337.191 179.734L334.013 172.188H336.687L338.493 177.074L340.285 172.188H342.875ZM348.095 177.97V180H346.877C346.009 180 345.332 179.79 344.847 179.37C344.362 178.941 344.119 178.245 344.119 177.284V174.176H343.167V172.188H344.119V170.284H346.513V172.188H348.081V174.176H346.513V177.312C346.513 177.545 346.569 177.713 346.681 177.816C346.793 177.919 346.98 177.97 347.241 177.97H348.095ZM354.231 172.104C355.127 172.104 355.845 172.403 356.387 173C356.928 173.588 357.199 174.4 357.199 175.436V180H354.819V175.758C354.819 175.235 354.683 174.829 354.413 174.54C354.142 174.251 353.778 174.106 353.321 174.106C352.863 174.106 352.499 174.251 352.229 174.54C351.958 174.829 351.823 175.235 351.823 175.758V180H349.429V169.64H351.823V173.238C352.065 172.893 352.397 172.617 352.817 172.412C353.237 172.207 353.708 172.104 354.231 172.104ZM362.418 180.112C361.653 180.112 360.962 179.949 360.346 179.622C359.739 179.295 359.259 178.829 358.904 178.222C358.559 177.615 358.386 176.906 358.386 176.094C358.386 175.291 358.563 174.587 358.918 173.98C359.273 173.364 359.758 172.893 360.374 172.566C360.99 172.239 361.681 172.076 362.446 172.076C363.211 172.076 363.902 172.239 364.518 172.566C365.134 172.893 365.619 173.364 365.974 173.98C366.329 174.587 366.506 175.291 366.506 176.094C366.506 176.897 366.324 177.606 365.96 178.222C365.605 178.829 365.115 179.295 364.49 179.622C363.874 179.949 363.183 180.112 362.418 180.112ZM362.418 178.04C362.875 178.04 363.263 177.872 363.58 177.536C363.907 177.2 364.07 176.719 364.07 176.094C364.07 175.469 363.911 174.988 363.594 174.652C363.286 174.316 362.903 174.148 362.446 174.148C361.979 174.148 361.592 174.316 361.284 174.652C360.976 174.979 360.822 175.459 360.822 176.094C360.822 176.719 360.971 177.2 361.27 177.536C361.578 177.872 361.961 178.04 362.418 178.04ZM372.536 172.104C373.451 172.104 374.179 172.403 374.72 173C375.271 173.588 375.546 174.4 375.546 175.436V180H373.166V175.758C373.166 175.235 373.031 174.829 372.76 174.54C372.49 174.251 372.126 174.106 371.668 174.106C371.211 174.106 370.847 174.251 370.576 174.54C370.306 174.829 370.17 175.235 370.17 175.758V180H367.776V172.188H370.17V173.224C370.413 172.879 370.74 172.608 371.15 172.412C371.561 172.207 372.023 172.104 372.536 172.104Z" fill="white"/>
<rect width="71" height="53" transform="translate(128.291 218)" fill="#EB9B00"/>
<path d="M157.807 249.098C156.883 249.098 156.034 248.883 155.259 248.454C154.494 248.025 153.882 247.427 153.425 246.662C152.977 245.887 152.753 245.019 152.753 244.058C152.753 243.097 152.977 242.233 153.425 241.468C153.882 240.703 154.494 240.105 155.259 239.676C156.034 239.247 156.883 239.032 157.807 239.032C158.731 239.032 159.576 239.247 160.341 239.676C161.116 240.105 161.722 240.703 162.161 241.468C162.609 242.233 162.833 243.097 162.833 244.058C162.833 245.019 162.609 245.887 162.161 246.662C161.713 247.427 161.106 248.025 160.341 248.454C159.576 248.883 158.731 249.098 157.807 249.098ZM157.807 246.914C158.591 246.914 159.216 246.653 159.683 246.13C160.159 245.607 160.397 244.917 160.397 244.058C160.397 243.19 160.159 242.499 159.683 241.986C159.216 241.463 158.591 241.202 157.807 241.202C157.014 241.202 156.379 241.459 155.903 241.972C155.436 242.485 155.203 243.181 155.203 244.058C155.203 244.926 155.436 245.621 155.903 246.144C156.379 246.657 157.014 246.914 157.807 246.914ZM168.813 249.098C167.889 249.098 167.04 248.883 166.265 248.454C165.5 248.025 164.888 247.427 164.431 246.662C163.983 245.887 163.759 245.019 163.759 244.058C163.759 243.097 163.983 242.233 164.431 241.468C164.888 240.703 165.5 240.105 166.265 239.676C167.04 239.247 167.889 239.032 168.813 239.032C169.737 239.032 170.582 239.247 171.347 239.676C172.122 240.105 172.728 240.703 173.167 241.468C173.615 242.233 173.839 243.097 173.839 244.058C173.839 245.019 173.615 245.887 173.167 246.662C172.719 247.427 172.112 248.025 171.347 248.454C170.582 248.883 169.737 249.098 168.813 249.098ZM168.813 246.914C169.597 246.914 170.222 246.653 170.689 246.13C171.165 245.607 171.403 244.917 171.403 244.058C171.403 243.19 171.165 242.499 170.689 241.986C170.222 241.463 169.597 241.202 168.813 241.202C168.02 241.202 167.385 241.459 166.909 241.972C166.442 242.485 166.209 243.181 166.209 244.058C166.209 244.926 166.442 245.621 166.909 246.144C167.385 246.657 168.02 246.914 168.813 246.914Z" fill="white"/>
<rect width="84" height="53" transform="translate(215.291 218)" fill="#EB9B00"/>
<path d="M246.319 239.172V245.864C246.319 246.9 246.025 247.698 245.437 248.258C244.858 248.818 244.074 249.098 243.085 249.098C242.049 249.098 241.218 248.804 240.593 248.216C239.968 247.628 239.655 246.793 239.655 245.71H242.035C242.035 246.121 242.119 246.433 242.287 246.648C242.455 246.853 242.698 246.956 243.015 246.956C243.304 246.956 243.528 246.863 243.687 246.676C243.846 246.489 243.925 246.219 243.925 245.864V239.172H246.319ZM247.777 245.08C247.777 244.277 247.926 243.573 248.225 242.966C248.533 242.359 248.948 241.893 249.471 241.566C249.993 241.239 250.577 241.076 251.221 241.076C251.771 241.076 252.252 241.188 252.663 241.412C253.083 241.636 253.405 241.93 253.629 242.294V241.188H256.023V249H253.629V247.894C253.395 248.258 253.069 248.552 252.649 248.776C252.238 249 251.757 249.112 251.207 249.112C250.572 249.112 249.993 248.949 249.471 248.622C248.948 248.286 248.533 247.815 248.225 247.208C247.926 246.592 247.777 245.883 247.777 245.08ZM253.629 245.094C253.629 244.497 253.461 244.025 253.125 243.68C252.798 243.335 252.397 243.162 251.921 243.162C251.445 243.162 251.039 243.335 250.703 243.68C250.376 244.016 250.213 244.483 250.213 245.08C250.213 245.677 250.376 246.153 250.703 246.508C251.039 246.853 251.445 247.026 251.921 247.026C252.397 247.026 252.798 246.853 253.125 246.508C253.461 246.163 253.629 245.691 253.629 245.094ZM261.269 246.76L262.963 241.188H265.511L262.739 249H259.785L257.013 241.188H259.575L261.269 246.76ZM266.042 245.08C266.042 244.277 266.192 243.573 266.49 242.966C266.798 242.359 267.214 241.893 267.736 241.566C268.259 241.239 268.842 241.076 269.486 241.076C270.037 241.076 270.518 241.188 270.928 241.412C271.348 241.636 271.67 241.93 271.894 242.294V241.188H274.288V249H271.894V247.894C271.661 248.258 271.334 248.552 270.914 248.776C270.504 249 270.023 249.112 269.472 249.112C268.838 249.112 268.259 248.949 267.736 248.622C267.214 248.286 266.798 247.815 266.49 247.208C266.192 246.592 266.042 245.883 266.042 245.08ZM271.894 245.094C271.894 244.497 271.726 244.025 271.39 243.68C271.064 243.335 270.662 243.162 270.186 243.162C269.71 243.162 269.304 243.335 268.968 243.68C268.642 244.016 268.478 244.483 268.478 245.08C268.478 245.677 268.642 246.153 268.968 246.508C269.304 246.853 269.71 247.026 270.186 247.026C270.662 247.026 271.064 246.853 271.39 246.508C271.726 246.163 271.894 245.691 271.894 245.094Z" fill="white"/>
<defs>
<linearGradient id="paint0_linear_128_3699" x1="178.654" y1="-35.4001" x2="785.184" y2="81.0058" gradientUnits="userSpaceOnUse">
<stop stop-color="#002F52"/>
<stop offset="1" stop-color="#326589"/>
</linearGradient>
</defs>
</svg>
