<svg width="427" height="215" viewBox="0 0 427 215" fill="none" xmlns="http://www.w3.org/2000/svg">
<g clip-path="url(#clip0_126_3618)">
<rect width="428" height="215" transform="translate(-1)" fill="url(#paint0_linear_126_3618)"/>
<g filter="url(#filter0_f_126_3618)">
<path d="M-11.9397 194.365C28.0644 209.093 121.527 233.707 175.346 214.329C242.619 190.107 257.565 136.548 350.673 134.127C443.781 131.707 479.083 149.992 517.093 106.481" stroke="white" stroke-width="0.25"/>
</g>
<g filter="url(#filter1_f_126_3618)">
<path d="M-9.66566 -42.3253C27.1018 0.544107 114.206 88.4749 168.485 97.2429C236.333 108.203 257.325 50.5212 347.408 104.502C437.491 158.482 469.286 202.911 511.286 171.887" stroke="white" stroke-width="0.25"/>
</g>
<g filter="url(#filter2_f_126_3618)">
<path d="M471.854 123.083C433.009 136.027 341.662 161.012 287.03 157.395C218.739 152.874 200.65 126.017 108.018 136.45C15.3862 146.884 -18.5716 161.144 -58.9632 142.585" stroke="white" stroke-width="0.25"/>
</g>
<rect opacity="0.75" x="-1" width="428" height="215" fill="url(#paint1_linear_126_3618)"/>
<path d="M95.1737 39.364V47.968C95.1737 49.3 94.7957 50.326 94.0397 51.046C93.2957 51.766 92.2877 52.126 91.0157 52.126C89.6837 52.126 88.6157 51.748 87.8117 50.992C87.0077 50.236 86.6057 49.162 86.6057 47.77H89.6657C89.6657 48.298 89.7737 48.7 89.9897 48.976C90.2057 49.24 90.5177 49.372 90.9257 49.372C91.2977 49.372 91.5857 49.252 91.7897 49.012C91.9937 48.772 92.0957 48.424 92.0957 47.968V39.364H95.1737ZM97.0479 46.96C97.0479 45.928 97.2399 45.022 97.6239 44.242C98.0199 43.462 98.5539 42.862 99.2259 42.442C99.8979 42.022 100.648 41.812 101.476 41.812C102.184 41.812 102.802 41.956 103.33 42.244C103.87 42.532 104.284 42.91 104.572 43.378V41.956H107.65V52H104.572V50.578C104.272 51.046 103.852 51.424 103.312 51.712C102.784 52 102.166 52.144 101.458 52.144C100.642 52.144 99.8979 51.934 99.2259 51.514C98.5539 51.082 98.0199 50.476 97.6239 49.696C97.2399 48.904 97.0479 47.992 97.0479 46.96ZM104.572 46.978C104.572 46.21 104.356 45.604 103.924 45.16C103.504 44.716 102.988 44.494 102.376 44.494C101.764 44.494 101.242 44.716 100.81 45.16C100.39 45.592 100.18 46.192 100.18 46.96C100.18 47.728 100.39 48.34 100.81 48.796C101.242 49.24 101.764 49.462 102.376 49.462C102.988 49.462 103.504 49.24 103.924 48.796C104.356 48.352 104.572 47.746 104.572 46.978ZM104.806 39.454L100.468 41.272V39.148L104.806 37.06V39.454ZM117.777 52.144C116.901 52.144 116.121 51.994 115.437 51.694C114.753 51.394 114.213 50.986 113.817 50.47C113.421 49.942 113.199 49.354 113.151 48.706H116.193C116.229 49.054 116.391 49.336 116.679 49.552C116.967 49.768 117.321 49.876 117.741 49.876C118.125 49.876 118.419 49.804 118.623 49.66C118.839 49.504 118.947 49.306 118.947 49.066C118.947 48.778 118.797 48.568 118.497 48.436C118.197 48.292 117.711 48.136 117.039 47.968C116.319 47.8 115.719 47.626 115.239 47.446C114.759 47.254 114.345 46.96 113.997 46.564C113.649 46.156 113.475 45.61 113.475 44.926C113.475 44.35 113.631 43.828 113.943 43.36C114.267 42.88 114.735 42.502 115.347 42.226C115.971 41.95 116.709 41.812 117.561 41.812C118.821 41.812 119.811 42.124 120.531 42.748C121.263 43.372 121.683 44.2 121.791 45.232H118.947C118.899 44.884 118.743 44.608 118.479 44.404C118.227 44.2 117.891 44.098 117.471 44.098C117.111 44.098 116.835 44.17 116.643 44.314C116.451 44.446 116.355 44.632 116.355 44.872C116.355 45.16 116.505 45.376 116.805 45.52C117.117 45.664 117.597 45.808 118.245 45.952C118.989 46.144 119.595 46.336 120.063 46.528C120.531 46.708 120.939 47.008 121.287 47.428C121.647 47.836 121.833 48.388 121.845 49.084C121.845 49.672 121.677 50.2 121.341 50.668C121.017 51.124 120.543 51.484 119.919 51.748C119.307 52.012 118.593 52.144 117.777 52.144ZM123.116 46.96C123.116 45.928 123.308 45.022 123.692 44.242C124.088 43.462 124.622 42.862 125.294 42.442C125.966 42.022 126.716 41.812 127.544 41.812C128.252 41.812 128.87 41.956 129.398 42.244C129.938 42.532 130.352 42.91 130.64 43.378V41.956H133.718V52H130.64V50.578C130.34 51.046 129.92 51.424 129.38 51.712C128.852 52 128.234 52.144 127.526 52.144C126.71 52.144 125.966 51.934 125.294 51.514C124.622 51.082 124.088 50.476 123.692 49.696C123.308 48.904 123.116 47.992 123.116 46.96ZM130.64 46.978C130.64 46.21 130.424 45.604 129.992 45.16C129.572 44.716 129.056 44.494 128.444 44.494C127.832 44.494 127.31 44.716 126.878 45.16C126.458 45.592 126.248 46.192 126.248 46.96C126.248 47.728 126.458 48.34 126.878 48.796C127.31 49.24 127.832 49.462 128.444 49.462C129.056 49.462 129.572 49.24 129.992 48.796C130.424 48.352 130.64 47.746 130.64 46.978ZM139.023 43.378C139.311 42.91 139.725 42.532 140.265 42.244C140.805 41.956 141.423 41.812 142.119 41.812C142.947 41.812 143.697 42.022 144.369 42.442C145.041 42.862 145.569 43.462 145.953 44.242C146.349 45.022 146.547 45.928 146.547 46.96C146.547 47.992 146.349 48.904 145.953 49.696C145.569 50.476 145.041 51.082 144.369 51.514C143.697 51.934 142.947 52.144 142.119 52.144C141.411 52.144 140.793 52.006 140.265 51.73C139.737 51.442 139.323 51.064 139.023 50.596V52H135.945V38.68H139.023V43.378ZM143.415 46.96C143.415 46.192 143.199 45.592 142.767 45.16C142.347 44.716 141.825 44.494 141.201 44.494C140.589 44.494 140.067 44.716 139.635 45.16C139.215 45.604 139.005 46.21 139.005 46.978C139.005 47.746 139.215 48.352 139.635 48.796C140.067 49.24 140.589 49.462 141.201 49.462C141.813 49.462 142.335 49.24 142.767 48.796C143.199 48.34 143.415 47.728 143.415 46.96ZM157.63 46.816C157.63 47.104 157.612 47.404 157.576 47.716H150.61C150.658 48.34 150.856 48.82 151.204 49.156C151.564 49.48 152.002 49.642 152.518 49.642C153.286 49.642 153.82 49.318 154.12 48.67H157.396C157.228 49.33 156.922 49.924 156.478 50.452C156.046 50.98 155.5 51.394 154.84 51.694C154.18 51.994 153.442 52.144 152.626 52.144C151.642 52.144 150.766 51.934 149.998 51.514C149.23 51.094 148.63 50.494 148.198 49.714C147.766 48.934 147.55 48.022 147.55 46.978C147.55 45.934 147.76 45.022 148.18 44.242C148.612 43.462 149.212 42.862 149.98 42.442C150.748 42.022 151.63 41.812 152.626 41.812C153.598 41.812 154.462 42.016 155.218 42.424C155.974 42.832 156.562 43.414 156.982 44.17C157.414 44.926 157.63 45.808 157.63 46.816ZM154.48 46.006C154.48 45.478 154.3 45.058 153.94 44.746C153.58 44.434 153.13 44.278 152.59 44.278C152.074 44.278 151.636 44.428 151.276 44.728C150.928 45.028 150.712 45.454 150.628 46.006H154.48ZM166.146 43.378C166.446 42.91 166.86 42.532 167.388 42.244C167.916 41.956 168.534 41.812 169.242 41.812C170.07 41.812 170.82 42.022 171.492 42.442C172.164 42.862 172.692 43.462 173.076 44.242C173.472 45.022 173.67 45.928 173.67 46.96C173.67 47.992 173.472 48.904 173.076 49.696C172.692 50.476 172.164 51.082 171.492 51.514C170.82 51.934 170.07 52.144 169.242 52.144C168.546 52.144 167.928 52 167.388 51.712C166.86 51.424 166.446 51.052 166.146 50.596V56.788H163.068V41.956H166.146V43.378ZM170.538 46.96C170.538 46.192 170.322 45.592 169.89 45.16C169.47 44.716 168.948 44.494 168.324 44.494C167.712 44.494 167.19 44.716 166.758 45.16C166.338 45.604 166.128 46.21 166.128 46.978C166.128 47.746 166.338 48.352 166.758 48.796C167.19 49.24 167.712 49.462 168.324 49.462C168.936 49.462 169.458 49.24 169.89 48.796C170.322 48.34 170.538 47.728 170.538 46.96ZM179.857 52.144C178.873 52.144 177.985 51.934 177.193 51.514C176.413 51.094 175.795 50.494 175.339 49.714C174.895 48.934 174.673 48.022 174.673 46.978C174.673 45.946 174.901 45.04 175.357 44.26C175.813 43.468 176.437 42.862 177.229 42.442C178.021 42.022 178.909 41.812 179.893 41.812C180.877 41.812 181.765 42.022 182.557 42.442C183.349 42.862 183.973 43.468 184.429 44.26C184.885 45.04 185.113 45.946 185.113 46.978C185.113 48.01 184.879 48.922 184.411 49.714C183.955 50.494 183.325 51.094 182.521 51.514C181.729 51.934 180.841 52.144 179.857 52.144ZM179.857 49.48C180.445 49.48 180.943 49.264 181.351 48.832C181.771 48.4 181.981 47.782 181.981 46.978C181.981 46.174 181.777 45.556 181.369 45.124C180.973 44.692 180.481 44.476 179.893 44.476C179.293 44.476 178.795 44.692 178.399 45.124C178.003 45.544 177.805 46.162 177.805 46.978C177.805 47.782 177.997 48.4 178.381 48.832C178.777 49.264 179.269 49.48 179.857 49.48ZM189.824 43.63C190.184 43.078 190.634 42.646 191.174 42.334C191.714 42.01 192.314 41.848 192.974 41.848V45.106H192.128C191.36 45.106 190.784 45.274 190.4 45.61C190.016 45.934 189.824 46.51 189.824 47.338V52H186.746V41.956H189.824V43.63ZM202.832 52.144C201.848 52.144 200.96 51.934 200.168 51.514C199.388 51.094 198.77 50.494 198.314 49.714C197.87 48.934 197.648 48.022 197.648 46.978C197.648 45.946 197.876 45.04 198.332 44.26C198.788 43.468 199.412 42.862 200.204 42.442C200.996 42.022 201.884 41.812 202.868 41.812C203.852 41.812 204.74 42.022 205.532 42.442C206.324 42.862 206.948 43.468 207.404 44.26C207.86 45.04 208.088 45.946 208.088 46.978C208.088 48.01 207.854 48.922 207.386 49.714C206.93 50.494 206.3 51.094 205.496 51.514C204.704 51.934 203.816 52.144 202.832 52.144ZM202.832 49.48C203.42 49.48 203.918 49.264 204.326 48.832C204.746 48.4 204.956 47.782 204.956 46.978C204.956 46.174 204.752 45.556 204.344 45.124C203.948 44.692 203.456 44.476 202.868 44.476C202.268 44.476 201.77 44.692 201.374 45.124C200.978 45.544 200.78 46.162 200.78 46.978C200.78 47.782 200.972 48.4 201.356 48.832C201.752 49.264 202.244 49.48 202.832 49.48ZM215.84 41.848C217.016 41.848 217.952 42.232 218.648 43C219.356 43.756 219.71 44.8 219.71 46.132V52H216.65V46.546C216.65 45.874 216.476 45.352 216.128 44.98C215.78 44.608 215.312 44.422 214.724 44.422C214.136 44.422 213.668 44.608 213.32 44.98C212.972 45.352 212.798 45.874 212.798 46.546V52H209.72V41.956H212.798V43.288C213.11 42.844 213.53 42.496 214.058 42.244C214.586 41.98 215.18 41.848 215.84 41.848ZM221.237 46.96C221.237 45.928 221.429 45.022 221.813 44.242C222.209 43.462 222.743 42.862 223.415 42.442C224.087 42.022 224.837 41.812 225.665 41.812C226.325 41.812 226.925 41.95 227.465 42.226C228.017 42.502 228.449 42.874 228.761 43.342V38.68H231.839V52H228.761V50.56C228.473 51.04 228.059 51.424 227.519 51.712C226.991 52 226.373 52.144 225.665 52.144C224.837 52.144 224.087 51.934 223.415 51.514C222.743 51.082 222.209 50.476 221.813 49.696C221.429 48.904 221.237 47.992 221.237 46.96ZM228.761 46.978C228.761 46.21 228.545 45.604 228.113 45.16C227.693 44.716 227.177 44.494 226.565 44.494C225.953 44.494 225.431 44.716 224.999 45.16C224.579 45.592 224.369 46.192 224.369 46.96C224.369 47.728 224.579 48.34 224.999 48.796C225.431 49.24 225.953 49.462 226.565 49.462C227.177 49.462 227.693 49.24 228.113 48.796C228.545 48.352 228.761 47.746 228.761 46.978ZM243.534 46.816C243.534 47.104 243.516 47.404 243.48 47.716H236.514C236.562 48.34 236.76 48.82 237.108 49.156C237.468 49.48 237.906 49.642 238.422 49.642C239.19 49.642 239.724 49.318 240.024 48.67H243.3C243.132 49.33 242.826 49.924 242.382 50.452C241.95 50.98 241.404 51.394 240.744 51.694C240.084 51.994 239.346 52.144 238.53 52.144C237.546 52.144 236.67 51.934 235.902 51.514C235.134 51.094 234.534 50.494 234.102 49.714C233.67 48.934 233.454 48.022 233.454 46.978C233.454 45.934 233.664 45.022 234.084 44.242C234.516 43.462 235.116 42.862 235.884 42.442C236.652 42.022 237.534 41.812 238.53 41.812C239.502 41.812 240.366 42.016 241.122 42.424C241.878 42.832 242.466 43.414 242.886 44.17C243.318 44.926 243.534 45.808 243.534 46.816ZM240.384 46.006C240.384 45.478 240.204 45.058 239.844 44.746C239.484 44.434 239.034 44.278 238.494 44.278C237.978 44.278 237.54 44.428 237.18 44.728C236.832 45.028 236.616 45.454 236.532 46.006H240.384ZM248.36 46.978C248.36 45.934 248.57 45.022 248.99 44.242C249.422 43.462 250.016 42.862 250.772 42.442C251.54 42.022 252.416 41.812 253.4 41.812C254.66 41.812 255.71 42.142 256.55 42.802C257.402 43.462 257.96 44.392 258.224 45.592H254.948C254.672 44.824 254.138 44.44 253.346 44.44C252.782 44.44 252.332 44.662 251.996 45.106C251.66 45.538 251.492 46.162 251.492 46.978C251.492 47.794 251.66 48.424 251.996 48.868C252.332 49.3 252.782 49.516 253.346 49.516C254.138 49.516 254.672 49.132 254.948 48.364H258.224C257.96 49.54 257.402 50.464 256.55 51.136C255.698 51.808 254.648 52.144 253.4 52.144C252.416 52.144 251.54 51.934 250.772 51.514C250.016 51.094 249.422 50.494 248.99 49.714C248.57 48.934 248.36 48.022 248.36 46.978ZM264.443 52.144C263.459 52.144 262.571 51.934 261.779 51.514C260.999 51.094 260.381 50.494 259.925 49.714C259.481 48.934 259.259 48.022 259.259 46.978C259.259 45.946 259.487 45.04 259.943 44.26C260.399 43.468 261.023 42.862 261.815 42.442C262.607 42.022 263.495 41.812 264.479 41.812C265.463 41.812 266.351 42.022 267.143 42.442C267.935 42.862 268.559 43.468 269.015 44.26C269.471 45.04 269.699 45.946 269.699 46.978C269.699 48.01 269.465 48.922 268.997 49.714C268.541 50.494 267.911 51.094 267.107 51.514C266.315 51.934 265.427 52.144 264.443 52.144ZM264.443 49.48C265.031 49.48 265.529 49.264 265.937 48.832C266.357 48.4 266.567 47.782 266.567 46.978C266.567 46.174 266.363 45.556 265.955 45.124C265.559 44.692 265.067 44.476 264.479 44.476C263.879 44.476 263.381 44.692 262.985 45.124C262.589 45.544 262.391 46.162 262.391 46.978C262.391 47.782 262.583 48.4 262.967 48.832C263.363 49.264 263.855 49.48 264.443 49.48ZM284.148 41.848C285.396 41.848 286.386 42.226 287.118 42.982C287.862 43.738 288.234 44.788 288.234 46.132V52H285.174V46.546C285.174 45.898 285 45.4 284.652 45.052C284.316 44.692 283.848 44.512 283.248 44.512C282.648 44.512 282.174 44.692 281.826 45.052C281.49 45.4 281.322 45.898 281.322 46.546V52H278.262V46.546C278.262 45.898 278.088 45.4 277.74 45.052C277.404 44.692 276.936 44.512 276.336 44.512C275.736 44.512 275.262 44.692 274.914 45.052C274.578 45.4 274.41 45.898 274.41 46.546V52H271.332V41.956H274.41V43.216C274.722 42.796 275.13 42.466 275.634 42.226C276.138 41.974 276.708 41.848 277.344 41.848C278.1 41.848 278.772 42.01 279.36 42.334C279.96 42.658 280.428 43.12 280.764 43.72C281.112 43.168 281.586 42.718 282.186 42.37C282.786 42.022 283.44 41.848 284.148 41.848ZM299.855 46.816C299.855 47.104 299.837 47.404 299.801 47.716H292.835C292.883 48.34 293.081 48.82 293.429 49.156C293.789 49.48 294.227 49.642 294.743 49.642C295.511 49.642 296.045 49.318 296.345 48.67H299.621C299.453 49.33 299.147 49.924 298.703 50.452C298.271 50.98 297.725 51.394 297.065 51.694C296.405 51.994 295.667 52.144 294.851 52.144C293.867 52.144 292.991 51.934 292.223 51.514C291.455 51.094 290.855 50.494 290.423 49.714C289.991 48.934 289.775 48.022 289.775 46.978C289.775 45.934 289.985 45.022 290.405 44.242C290.837 43.462 291.437 42.862 292.205 42.442C292.973 42.022 293.855 41.812 294.851 41.812C295.823 41.812 296.687 42.016 297.443 42.424C298.199 42.832 298.787 43.414 299.207 44.17C299.639 44.926 299.855 45.808 299.855 46.816ZM296.705 46.006C296.705 45.478 296.525 45.058 296.165 44.746C295.805 44.434 295.355 44.278 294.815 44.278C294.299 44.278 293.861 44.428 293.501 44.728C293.153 45.028 292.937 45.454 292.853 46.006H296.705ZM305.852 49.516C306.644 49.516 307.178 49.132 307.454 48.364H310.73C310.502 49.384 310.046 50.218 309.362 50.866C308.678 51.514 307.826 51.916 306.806 52.072V52.738C307.43 52.738 307.976 52.906 308.444 53.242C308.912 53.59 309.146 54.106 309.146 54.79C309.146 55.474 308.9 55.99 308.408 56.338C307.916 56.698 307.328 56.878 306.644 56.878H303.872V55.186H306.23C306.47 55.186 306.65 55.15 306.77 55.078C306.89 55.006 306.95 54.886 306.95 54.718C306.95 54.55 306.89 54.43 306.77 54.358C306.65 54.298 306.47 54.268 306.23 54.268H304.952V52.072C303.716 51.88 302.726 51.334 301.982 50.434C301.238 49.522 300.866 48.37 300.866 46.978C300.866 45.934 301.076 45.022 301.496 44.242C301.928 43.462 302.522 42.862 303.278 42.442C304.046 42.022 304.922 41.812 305.906 41.812C307.166 41.812 308.216 42.142 309.056 42.802C309.908 43.462 310.466 44.392 310.73 45.592H307.454C307.178 44.824 306.644 44.44 305.852 44.44C305.288 44.44 304.838 44.662 304.502 45.106C304.166 45.538 303.998 46.162 303.998 46.978C303.998 47.794 304.166 48.424 304.502 48.868C304.838 49.3 305.288 49.516 305.852 49.516ZM311.765 46.96C311.765 45.928 311.957 45.022 312.341 44.242C312.737 43.462 313.271 42.862 313.943 42.442C314.615 42.022 315.365 41.812 316.193 41.812C316.901 41.812 317.519 41.956 318.047 42.244C318.587 42.532 319.001 42.91 319.289 43.378V41.956H322.367V52H319.289V50.578C318.989 51.046 318.569 51.424 318.029 51.712C317.501 52 316.883 52.144 316.175 52.144C315.359 52.144 314.615 51.934 313.943 51.514C313.271 51.082 312.737 50.476 312.341 49.696C311.957 48.904 311.765 47.992 311.765 46.96ZM319.289 46.978C319.289 46.21 319.073 45.604 318.641 45.16C318.221 44.716 317.705 44.494 317.093 44.494C316.481 44.494 315.959 44.716 315.527 45.16C315.107 45.592 314.897 46.192 314.897 46.96C314.897 47.728 315.107 48.34 315.527 48.796C315.959 49.24 316.481 49.462 317.093 49.462C317.705 49.462 318.221 49.24 318.641 48.796C319.073 48.352 319.289 47.746 319.289 46.978ZM327.672 43.63C328.032 43.078 328.482 42.646 329.022 42.334C329.562 42.01 330.162 41.848 330.822 41.848V45.106H329.976C329.208 45.106 328.632 45.274 328.248 45.61C327.864 45.934 327.672 46.51 327.672 47.338V52H324.594V41.956H327.672V43.63ZM335.983 38.662C337.267 38.662 338.293 38.998 339.061 39.67C339.841 40.342 340.231 41.29 340.231 42.514C340.231 43.642 339.859 44.524 339.115 45.16C338.383 45.784 337.411 46.102 336.199 46.114L336.109 47.464H333.409L333.319 44.116H334.399C335.323 44.116 336.025 44.002 336.505 43.774C336.997 43.546 337.243 43.132 337.243 42.532C337.243 42.112 337.129 41.782 336.901 41.542C336.673 41.302 336.355 41.182 335.947 41.182C335.515 41.182 335.179 41.308 334.939 41.56C334.699 41.8 334.579 42.13 334.579 42.55H331.681C331.657 41.818 331.807 41.158 332.131 40.57C332.467 39.982 332.959 39.52 333.607 39.184C334.267 38.836 335.059 38.662 335.983 38.662ZM334.795 52.144C334.255 52.144 333.811 51.988 333.463 51.676C333.127 51.352 332.959 50.956 332.959 50.488C332.959 50.008 333.127 49.606 333.463 49.282C333.811 48.958 334.255 48.796 334.795 48.796C335.323 48.796 335.755 48.958 336.091 49.282C336.439 49.606 336.613 50.008 336.613 50.488C336.613 50.956 336.439 51.352 336.091 51.676C335.755 51.988 335.323 52.144 334.795 52.144Z" fill="white"/>
<path d="M79.274 75.352V78.616H83.114V80.104H79.274V83.512H83.594V85H77.45V73.864H83.594V75.352H79.274ZM90.2886 76.04C90.982 76.04 91.6006 76.184 92.1446 76.472C92.6993 76.76 93.1313 77.1867 93.4406 77.752C93.75 78.3173 93.9046 79 93.9046 79.8V85H92.0966V80.072C92.0966 79.2827 91.8993 78.68 91.5046 78.264C91.11 77.8373 90.5713 77.624 89.8886 77.624C89.206 77.624 88.662 77.8373 88.2566 78.264C87.862 78.68 87.6646 79.2827 87.6646 80.072V85H85.8406V76.184H87.6646V77.192C87.9633 76.8293 88.342 76.5467 88.8006 76.344C89.27 76.1413 89.766 76.04 90.2886 76.04ZM95.6233 80.584C95.6233 79.6773 95.8046 78.8827 96.1673 78.2C96.5406 77.5067 97.0526 76.9733 97.7033 76.6C98.3539 76.2267 99.1006 76.04 99.9433 76.04C101.01 76.04 101.89 76.296 102.583 76.808C103.287 77.3093 103.762 78.0293 104.007 78.968H102.039C101.879 78.5307 101.623 78.1893 101.271 77.944C100.919 77.6987 100.477 77.576 99.9433 77.576C99.1966 77.576 98.5993 77.8427 98.1513 78.376C97.7139 78.8987 97.4953 79.6347 97.4953 80.584C97.4953 81.5333 97.7139 82.2747 98.1513 82.808C98.5993 83.3413 99.1966 83.608 99.9433 83.608C100.999 83.608 101.698 83.144 102.039 82.216H104.007C103.751 83.112 103.271 83.8267 102.567 84.36C101.863 84.8827 100.989 85.144 99.9433 85.144C99.1006 85.144 98.3539 84.9573 97.7033 84.584C97.0526 84.2 96.5406 83.6667 96.1673 82.984C95.8046 82.2907 95.6233 81.4907 95.6233 80.584ZM109.649 85.144C108.817 85.144 108.065 84.9573 107.393 84.584C106.721 84.2 106.193 83.6667 105.809 82.984C105.425 82.2907 105.233 81.4907 105.233 80.584C105.233 79.688 105.43 78.8933 105.825 78.2C106.22 77.5067 106.758 76.9733 107.441 76.6C108.124 76.2267 108.886 76.04 109.729 76.04C110.572 76.04 111.334 76.2267 112.017 76.6C112.7 76.9733 113.238 77.5067 113.633 78.2C114.028 78.8933 114.225 79.688 114.225 80.584C114.225 81.48 114.022 82.2747 113.617 82.968C113.212 83.6613 112.657 84.2 111.953 84.584C111.26 84.9573 110.492 85.144 109.649 85.144ZM109.649 83.56C110.118 83.56 110.556 83.448 110.961 83.224C111.377 83 111.713 82.664 111.969 82.216C112.225 81.768 112.353 81.224 112.353 80.584C112.353 79.944 112.23 79.4053 111.985 78.968C111.74 78.52 111.414 78.184 111.009 77.96C110.604 77.736 110.166 77.624 109.697 77.624C109.228 77.624 108.79 77.736 108.385 77.96C107.99 78.184 107.676 78.52 107.441 78.968C107.206 79.4053 107.089 79.944 107.089 80.584C107.089 81.5333 107.329 82.2693 107.809 82.792C108.3 83.304 108.913 83.56 109.649 83.56ZM120.476 76.04C121.169 76.04 121.788 76.184 122.332 76.472C122.887 76.76 123.319 77.1867 123.628 77.752C123.937 78.3173 124.092 79 124.092 79.8V85H122.284V80.072C122.284 79.2827 122.087 78.68 121.692 78.264C121.297 77.8373 120.759 77.624 120.076 77.624C119.393 77.624 118.849 77.8373 118.444 78.264C118.049 78.68 117.852 79.2827 117.852 80.072V85H116.028V76.184H117.852V77.192C118.151 76.8293 118.529 76.5467 118.988 76.344C119.457 76.1413 119.953 76.04 120.476 76.04ZM128.547 77.672V82.552C128.547 82.8827 128.621 83.1227 128.771 83.272C128.931 83.4107 129.197 83.48 129.571 83.48H130.691V85H129.251C128.429 85 127.8 84.808 127.363 84.424C126.925 84.04 126.707 83.416 126.707 82.552V77.672H125.667V76.184H126.707V73.992H128.547V76.184H130.691V77.672H128.547ZM134.196 77.464C134.463 77.016 134.815 76.6693 135.252 76.424C135.7 76.168 136.228 76.04 136.836 76.04V77.928H136.372C135.657 77.928 135.113 78.1093 134.74 78.472C134.377 78.8347 134.196 79.464 134.196 80.36V85H132.372V76.184H134.196V77.464ZM146.593 80.376C146.593 80.7067 146.571 81.0053 146.529 81.272H139.793C139.846 81.976 140.107 82.5413 140.577 82.968C141.046 83.3947 141.622 83.608 142.305 83.608C143.286 83.608 143.979 83.1973 144.385 82.376H146.352C146.086 83.1867 145.601 83.8533 144.897 84.376C144.203 84.888 143.339 85.144 142.305 85.144C141.462 85.144 140.705 84.9573 140.033 84.584C139.371 84.2 138.849 83.6667 138.465 82.984C138.091 82.2907 137.905 81.4907 137.905 80.584C137.905 79.6773 138.086 78.8827 138.449 78.2C138.822 77.5067 139.339 76.9733 140.001 76.6C140.673 76.2267 141.441 76.04 142.305 76.04C143.137 76.04 143.878 76.2213 144.529 76.584C145.179 76.9467 145.686 77.4587 146.049 78.12C146.411 78.7707 146.593 79.5227 146.593 80.376ZM144.689 79.8C144.678 79.128 144.438 78.5893 143.969 78.184C143.499 77.7787 142.918 77.576 142.225 77.576C141.595 77.576 141.057 77.7787 140.609 78.184C140.161 78.5787 139.894 79.1173 139.809 79.8H144.689ZM160.624 80.376C160.624 80.7067 160.602 81.0053 160.56 81.272H153.824C153.877 81.976 154.138 82.5413 154.608 82.968C155.077 83.3947 155.653 83.608 156.336 83.608C157.317 83.608 158.01 83.1973 158.416 82.376H160.384C160.117 83.1867 159.632 83.8533 158.928 84.376C158.234 84.888 157.37 85.144 156.336 85.144C155.493 85.144 154.736 84.9573 154.064 84.584C153.402 84.2 152.88 83.6667 152.496 82.984C152.122 82.2907 151.936 81.4907 151.936 80.584C151.936 79.6773 152.117 78.8827 152.48 78.2C152.853 77.5067 153.37 76.9733 154.032 76.6C154.704 76.2267 155.472 76.04 156.336 76.04C157.168 76.04 157.909 76.2213 158.56 76.584C159.21 76.9467 159.717 77.4587 160.08 78.12C160.442 78.7707 160.624 79.5227 160.624 80.376ZM158.72 79.8C158.709 79.128 158.469 78.5893 158 78.184C157.53 77.7787 156.949 77.576 156.256 77.576C155.626 77.576 155.088 77.7787 154.64 78.184C154.192 78.5787 153.925 79.1173 153.84 79.8H158.72ZM173.091 76.04C173.784 76.04 174.403 76.184 174.947 76.472C175.501 76.76 175.933 77.1867 176.243 77.752C176.563 78.3173 176.723 79 176.723 79.8V85H174.915V80.072C174.915 79.2827 174.717 78.68 174.323 78.264C173.928 77.8373 173.389 77.624 172.707 77.624C172.024 77.624 171.48 77.8373 171.075 78.264C170.68 78.68 170.483 79.2827 170.483 80.072V85H168.675V80.072C168.675 79.2827 168.477 78.68 168.083 78.264C167.688 77.8373 167.149 77.624 166.467 77.624C165.784 77.624 165.24 77.8373 164.835 78.264C164.44 78.68 164.243 79.2827 164.243 80.072V85H162.419V76.184H164.243V77.192C164.541 76.8293 164.92 76.5467 165.379 76.344C165.837 76.1413 166.328 76.04 166.851 76.04C167.555 76.04 168.184 76.1893 168.739 76.488C169.293 76.7867 169.72 77.2187 170.019 77.784C170.285 77.2507 170.701 76.8293 171.267 76.52C171.832 76.2 172.44 76.04 173.091 76.04ZM187.648 76.04C188.341 76.04 188.96 76.184 189.504 76.472C190.059 76.76 190.491 77.1867 190.8 77.752C191.109 78.3173 191.264 79 191.264 79.8V85H189.456V80.072C189.456 79.2827 189.259 78.68 188.864 78.264C188.469 77.8373 187.931 77.624 187.248 77.624C186.565 77.624 186.021 77.8373 185.616 78.264C185.221 78.68 185.024 79.2827 185.024 80.072V85H183.2V76.184H185.024V77.192C185.323 76.8293 185.701 76.5467 186.16 76.344C186.629 76.1413 187.125 76.04 187.648 76.04ZM197.415 85.144C196.583 85.144 195.831 84.9573 195.159 84.584C194.487 84.2 193.959 83.6667 193.575 82.984C193.191 82.2907 192.999 81.4907 192.999 80.584C192.999 79.688 193.196 78.8933 193.591 78.2C193.985 77.5067 194.524 76.9733 195.207 76.6C195.889 76.2267 196.652 76.04 197.495 76.04C198.337 76.04 199.1 76.2267 199.783 76.6C200.465 76.9733 201.004 77.5067 201.399 78.2C201.793 78.8933 201.991 79.688 201.991 80.584C201.991 81.48 201.788 82.2747 201.383 82.968C200.977 83.6613 200.423 84.2 199.719 84.584C199.025 84.9573 198.257 85.144 197.415 85.144ZM197.415 83.56C197.884 83.56 198.321 83.448 198.727 83.224C199.143 83 199.479 82.664 199.735 82.216C199.991 81.768 200.119 81.224 200.119 80.584C200.119 79.944 199.996 79.4053 199.751 78.968C199.505 78.52 199.18 78.184 198.775 77.96C198.369 77.736 197.932 77.624 197.463 77.624C196.993 77.624 196.556 77.736 196.151 77.96C195.756 78.184 195.441 78.52 195.207 78.968C194.972 79.4053 194.855 79.944 194.855 80.584C194.855 81.5333 195.095 82.2693 195.575 82.792C196.065 83.304 196.679 83.56 197.415 83.56ZM206.994 85.144C206.3 85.144 205.676 85.0213 205.122 84.776C204.578 84.52 204.146 84.1787 203.826 83.752C203.506 83.3147 203.335 82.8293 203.314 82.296H205.202C205.234 82.6693 205.41 82.984 205.73 83.24C206.06 83.4853 206.471 83.608 206.962 83.608C207.474 83.608 207.868 83.512 208.146 83.32C208.434 83.1173 208.578 82.8613 208.578 82.552C208.578 82.2213 208.418 81.976 208.098 81.816C207.788 81.656 207.292 81.48 206.61 81.288C205.948 81.1067 205.41 80.9307 204.994 80.76C204.578 80.5893 204.215 80.328 203.906 79.976C203.607 79.624 203.458 79.16 203.458 78.584C203.458 78.1147 203.596 77.688 203.874 77.304C204.151 76.9093 204.546 76.6 205.058 76.376C205.58 76.152 206.178 76.04 206.85 76.04C207.852 76.04 208.658 76.296 209.266 76.808C209.884 77.3093 210.215 77.9973 210.258 78.872H208.434C208.402 78.4773 208.242 78.1627 207.954 77.928C207.666 77.6933 207.276 77.576 206.786 77.576C206.306 77.576 205.938 77.6667 205.682 77.848C205.426 78.0293 205.298 78.2693 205.298 78.568C205.298 78.8027 205.383 79 205.554 79.16C205.724 79.32 205.932 79.448 206.178 79.544C206.423 79.6293 206.786 79.7413 207.266 79.88C207.906 80.0507 208.428 80.2267 208.834 80.408C209.25 80.5787 209.607 80.8347 209.906 81.176C210.204 81.5173 210.359 81.9707 210.37 82.536C210.37 83.0373 210.231 83.4853 209.954 83.88C209.676 84.2747 209.282 84.584 208.77 84.808C208.268 85.032 207.676 85.144 206.994 85.144ZM215.541 85.144C214.847 85.144 214.223 85.0213 213.669 84.776C213.125 84.52 212.693 84.1787 212.373 83.752C212.053 83.3147 211.882 82.8293 211.861 82.296H213.749C213.781 82.6693 213.957 82.984 214.277 83.24C214.607 83.4853 215.018 83.608 215.509 83.608C216.021 83.608 216.415 83.512 216.693 83.32C216.981 83.1173 217.125 82.8613 217.125 82.552C217.125 82.2213 216.965 81.976 216.645 81.816C216.335 81.656 215.839 81.48 215.157 81.288C214.495 81.1067 213.957 80.9307 213.541 80.76C213.125 80.5893 212.762 80.328 212.453 79.976C212.154 79.624 212.005 79.16 212.005 78.584C212.005 78.1147 212.143 77.688 212.421 77.304C212.698 76.9093 213.093 76.6 213.605 76.376C214.127 76.152 214.725 76.04 215.397 76.04C216.399 76.04 217.205 76.296 217.813 76.808C218.431 77.3093 218.762 77.9973 218.805 78.872H216.981C216.949 78.4773 216.789 78.1627 216.501 77.928C216.213 77.6933 215.823 77.576 215.333 77.576C214.853 77.576 214.485 77.6667 214.229 77.848C213.973 78.0293 213.845 78.2693 213.845 78.568C213.845 78.8027 213.93 79 214.101 79.16C214.271 79.32 214.479 79.448 214.725 79.544C214.97 79.6293 215.333 79.7413 215.813 79.88C216.453 80.0507 216.975 80.2267 217.381 80.408C217.797 80.5787 218.154 80.8347 218.453 81.176C218.751 81.5173 218.906 81.9707 218.917 82.536C218.917 83.0373 218.778 83.4853 218.501 83.88C218.223 84.2747 217.829 84.584 217.317 84.808C216.815 85.032 216.223 85.144 215.541 85.144ZM220.28 80.552C220.28 79.6667 220.461 78.8827 220.824 78.2C221.197 77.5173 221.698 76.9893 222.328 76.616C222.968 76.232 223.672 76.04 224.44 76.04C225.133 76.04 225.736 76.1787 226.248 76.456C226.77 76.7227 227.186 77.0587 227.496 77.464V76.184H229.336V85H227.496V83.688C227.186 84.104 226.765 84.4507 226.232 84.728C225.698 85.0053 225.09 85.144 224.408 85.144C223.65 85.144 222.957 84.952 222.328 84.568C221.698 84.1733 221.197 83.6293 220.824 82.936C220.461 82.232 220.28 81.4373 220.28 80.552ZM227.496 80.584C227.496 79.976 227.368 79.448 227.112 79C226.866 78.552 226.541 78.2107 226.136 77.976C225.73 77.7413 225.293 77.624 224.824 77.624C224.354 77.624 223.917 77.7413 223.512 77.976C223.106 78.2 222.776 78.536 222.52 78.984C222.274 79.4213 222.152 79.944 222.152 80.552C222.152 81.16 222.274 81.6933 222.52 82.152C222.776 82.6107 223.106 82.9627 223.512 83.208C223.928 83.4427 224.365 83.56 224.824 83.56C225.293 83.56 225.73 83.4427 226.136 83.208C226.541 82.9733 226.866 82.632 227.112 82.184C227.368 81.7253 227.496 81.192 227.496 80.584ZM243.968 80.376C243.968 80.7067 243.946 81.0053 243.904 81.272H237.168C237.221 81.976 237.482 82.5413 237.952 82.968C238.421 83.3947 238.997 83.608 239.68 83.608C240.661 83.608 241.354 83.1973 241.76 82.376H243.727C243.461 83.1867 242.976 83.8533 242.272 84.376C241.578 84.888 240.714 85.144 239.68 85.144C238.837 85.144 238.08 84.9573 237.408 84.584C236.746 84.2 236.224 83.6667 235.84 82.984C235.466 82.2907 235.28 81.4907 235.28 80.584C235.28 79.6773 235.461 78.8827 235.824 78.2C236.197 77.5067 236.714 76.9733 237.376 76.6C238.048 76.2267 238.816 76.04 239.68 76.04C240.512 76.04 241.253 76.2213 241.904 76.584C242.554 76.9467 243.061 77.4587 243.424 78.12C243.786 78.7707 243.968 79.5227 243.968 80.376ZM242.064 79.8C242.053 79.128 241.813 78.5893 241.344 78.184C240.874 77.7787 240.293 77.576 239.6 77.576C238.97 77.576 238.432 77.7787 237.984 78.184C237.536 78.5787 237.269 79.1173 237.184 79.8H242.064ZM248.963 85.144C248.269 85.144 247.645 85.0213 247.091 84.776C246.547 84.52 246.115 84.1787 245.795 83.752C245.475 83.3147 245.304 82.8293 245.283 82.296H247.171C247.203 82.6693 247.379 82.984 247.699 83.24C248.029 83.4853 248.44 83.608 248.931 83.608C249.443 83.608 249.837 83.512 250.115 83.32C250.403 83.1173 250.547 82.8613 250.547 82.552C250.547 82.2213 250.387 81.976 250.067 81.816C249.757 81.656 249.261 81.48 248.579 81.288C247.917 81.1067 247.379 80.9307 246.963 80.76C246.547 80.5893 246.184 80.328 245.875 79.976C245.576 79.624 245.427 79.16 245.427 78.584C245.427 78.1147 245.565 77.688 245.843 77.304C246.12 76.9093 246.515 76.6 247.027 76.376C247.549 76.152 248.147 76.04 248.819 76.04C249.821 76.04 250.627 76.296 251.235 76.808C251.853 77.3093 252.184 77.9973 252.227 78.872H250.403C250.371 78.4773 250.211 78.1627 249.923 77.928C249.635 77.6933 249.245 77.576 248.755 77.576C248.275 77.576 247.907 77.6667 247.651 77.848C247.395 78.0293 247.267 78.2693 247.267 78.568C247.267 78.8027 247.352 79 247.523 79.16C247.693 79.32 247.901 79.448 248.147 79.544C248.392 79.6293 248.755 79.7413 249.235 79.88C249.875 80.0507 250.397 80.2267 250.803 80.408C251.219 80.5787 251.576 80.8347 251.875 81.176C252.173 81.5173 252.328 81.9707 252.339 82.536C252.339 83.0373 252.2 83.4853 251.923 83.88C251.645 84.2747 251.251 84.584 250.739 84.808C250.237 85.032 249.645 85.144 248.963 85.144ZM256.437 77.672V82.552C256.437 82.8827 256.512 83.1227 256.661 83.272C256.821 83.4107 257.088 83.48 257.461 83.48H258.581V85H257.141C256.32 85 255.691 84.808 255.253 84.424C254.816 84.04 254.597 83.416 254.597 82.552V77.672H253.557V76.184H254.597V73.992H256.437V76.184H258.581V77.672H256.437ZM259.655 80.552C259.655 79.6667 259.836 78.8827 260.199 78.2C260.572 77.5173 261.073 76.9893 261.703 76.616C262.343 76.232 263.047 76.04 263.815 76.04C264.508 76.04 265.111 76.1787 265.623 76.456C266.145 76.7227 266.561 77.0587 266.871 77.464V76.184H268.711V85H266.871V83.688C266.561 84.104 266.14 84.4507 265.607 84.728C265.073 85.0053 264.465 85.144 263.783 85.144C263.025 85.144 262.332 84.952 261.703 84.568C261.073 84.1733 260.572 83.6293 260.199 82.936C259.836 82.232 259.655 81.4373 259.655 80.552ZM266.871 80.584C266.871 79.976 266.743 79.448 266.487 79C266.241 78.552 265.916 78.2107 265.511 77.976C265.105 77.7413 264.668 77.624 264.199 77.624C263.729 77.624 263.292 77.7413 262.887 77.976C262.481 78.2 262.151 78.536 261.895 78.984C261.649 79.4213 261.527 79.944 261.527 80.552C261.527 81.16 261.649 81.6933 261.895 82.152C262.151 82.6107 262.481 82.9627 262.887 83.208C263.303 83.4427 263.74 83.56 264.199 83.56C264.668 83.56 265.105 83.4427 265.511 83.208C265.916 82.9733 266.241 82.632 266.487 82.184C266.743 81.7253 266.871 81.192 266.871 80.584ZM275.554 76.04C276.248 76.04 276.866 76.184 277.41 76.472C277.965 76.76 278.397 77.1867 278.706 77.752C279.016 78.3173 279.17 79 279.17 79.8V85H277.362V80.072C277.362 79.2827 277.165 78.68 276.77 78.264C276.376 77.8373 275.837 77.624 275.154 77.624C274.472 77.624 273.928 77.8373 273.522 78.264C273.128 78.68 272.93 79.2827 272.93 80.072V85H271.106V76.184H272.93V77.192C273.229 76.8293 273.608 76.5467 274.066 76.344C274.536 76.1413 275.032 76.04 275.554 76.04ZM283.625 77.672V82.552C283.625 82.8827 283.7 83.1227 283.849 83.272C284.009 83.4107 284.276 83.48 284.649 83.48H285.769V85H284.329C283.508 85 282.878 84.808 282.441 84.424C282.004 84.04 281.785 83.416 281.785 82.552V77.672H280.745V76.184H281.785V73.992H283.625V76.184H285.769V77.672H283.625ZM295.53 80.376C295.53 80.7067 295.509 81.0053 295.466 81.272H288.73C288.783 81.976 289.045 82.5413 289.514 82.968C289.983 83.3947 290.559 83.608 291.242 83.608C292.223 83.608 292.917 83.1973 293.322 82.376H295.29C295.023 83.1867 294.538 83.8533 293.834 84.376C293.141 84.888 292.277 85.144 291.242 85.144C290.399 85.144 289.642 84.9573 288.97 84.584C288.309 84.2 287.786 83.6667 287.402 82.984C287.029 82.2907 286.842 81.4907 286.842 80.584C286.842 79.6773 287.023 78.8827 287.386 78.2C287.759 77.5067 288.277 76.9733 288.938 76.6C289.61 76.2267 290.378 76.04 291.242 76.04C292.074 76.04 292.815 76.2213 293.466 76.584C294.117 76.9467 294.623 77.4587 294.986 78.12C295.349 78.7707 295.53 79.5227 295.53 80.376ZM293.626 79.8C293.615 79.128 293.375 78.5893 292.906 78.184C292.437 77.7787 291.855 77.576 291.162 77.576C290.533 77.576 289.994 77.7787 289.546 78.184C289.098 78.5787 288.831 79.1173 288.746 79.8H293.626ZM305.305 85.144C304.473 85.144 303.721 84.9573 303.049 84.584C302.377 84.2 301.849 83.6667 301.465 82.984C301.081 82.2907 300.889 81.4907 300.889 80.584C300.889 79.688 301.087 78.8933 301.481 78.2C301.876 77.5067 302.415 76.9733 303.097 76.6C303.78 76.2267 304.543 76.04 305.385 76.04C306.228 76.04 306.991 76.2267 307.673 76.6C308.356 76.9733 308.895 77.5067 309.289 78.2C309.684 78.8933 309.881 79.688 309.881 80.584C309.881 81.48 309.679 82.2747 309.273 82.968C308.868 83.6613 308.313 84.2 307.609 84.584C306.916 84.9573 306.148 85.144 305.305 85.144ZM305.305 83.56C305.775 83.56 306.212 83.448 306.617 83.224C307.033 83 307.369 82.664 307.625 82.216C307.881 81.768 308.009 81.224 308.009 80.584C308.009 79.944 307.887 79.4053 307.641 78.968C307.396 78.52 307.071 78.184 306.665 77.96C306.26 77.736 305.823 77.624 305.353 77.624C304.884 77.624 304.447 77.736 304.041 77.96C303.647 78.184 303.332 78.52 303.097 78.968C302.863 79.4053 302.745 79.944 302.745 80.584C302.745 81.5333 302.985 82.2693 303.465 82.792C303.956 83.304 304.569 83.56 305.305 83.56ZM315.233 80.552C315.233 79.6667 315.414 78.8827 315.777 78.2C316.15 77.5173 316.651 76.9893 317.281 76.616C317.921 76.232 318.63 76.04 319.409 76.04C320.091 76.04 320.694 76.1787 321.217 76.456C321.75 76.7333 322.161 77.0693 322.449 77.464V76.184H324.289V89.192H322.449V83.72C322.161 84.1147 321.745 84.4507 321.201 84.728C320.657 85.0053 320.038 85.144 319.345 85.144C318.587 85.144 317.894 84.952 317.265 84.568C316.646 84.1733 316.15 83.6293 315.777 82.936C315.414 82.232 315.233 81.4373 315.233 80.552ZM322.449 80.584C322.449 79.976 322.321 79.448 322.065 79C321.819 78.552 321.494 78.2107 321.089 77.976C320.683 77.7413 320.246 77.624 319.777 77.624C319.307 77.624 318.87 77.7413 318.465 77.976C318.059 78.2 317.729 78.536 317.473 78.984C317.227 79.4213 317.105 79.944 317.105 80.552C317.105 81.16 317.227 81.6933 317.473 82.152C317.729 82.6107 318.059 82.9627 318.465 83.208C318.881 83.4427 319.318 83.56 319.777 83.56C320.246 83.56 320.683 83.4427 321.089 83.208C321.494 82.9733 321.819 82.632 322.065 82.184C322.321 81.7253 322.449 81.192 322.449 80.584ZM334.668 76.184V85H332.844V83.96C332.556 84.3227 332.178 84.6107 331.708 84.824C331.25 85.0267 330.759 85.128 330.236 85.128C329.543 85.128 328.919 84.984 328.364 84.696C327.82 84.408 327.388 83.9813 327.068 83.416C326.759 82.8507 326.604 82.168 326.604 81.368V76.184H328.412V81.096C328.412 81.8853 328.61 82.4933 329.004 82.92C329.399 83.336 329.938 83.544 330.62 83.544C331.303 83.544 331.842 83.336 332.236 82.92C332.642 82.4933 332.844 81.8853 332.844 81.096V76.184H334.668ZM345.155 80.376C345.155 80.7067 345.134 81.0053 345.091 81.272H338.355C338.408 81.976 338.67 82.5413 339.139 82.968C339.608 83.3947 340.184 83.608 340.867 83.608C341.848 83.608 342.542 83.1973 342.947 82.376H344.915C344.648 83.1867 344.163 83.8533 343.459 84.376C342.766 84.888 341.902 85.144 340.867 85.144C340.024 85.144 339.267 84.9573 338.595 84.584C337.934 84.2 337.411 83.6667 337.027 82.984C336.654 82.2907 336.467 81.4907 336.467 80.584C336.467 79.6773 336.648 78.8827 337.011 78.2C337.384 77.5067 337.902 76.9733 338.563 76.6C339.235 76.2267 340.003 76.04 340.867 76.04C341.699 76.04 342.44 76.2213 343.091 76.584C343.742 76.9467 344.248 77.4587 344.611 78.12C344.974 78.7707 345.155 79.5227 345.155 80.376ZM343.251 79.8C343.24 79.128 343 78.5893 342.531 78.184C342.062 77.7787 341.48 77.576 340.787 77.576C340.158 77.576 339.619 77.7787 339.171 78.184C338.723 78.5787 338.456 79.1173 338.371 79.8H343.251ZM71.6178 101.48C71.9271 101.075 72.3484 100.733 72.8818 100.456C73.4151 100.179 74.0178 100.04 74.6898 100.04C75.4578 100.04 76.1564 100.232 76.7858 100.616C77.4258 100.989 77.9271 101.517 78.2898 102.2C78.6524 102.883 78.8338 103.667 78.8338 104.552C78.8338 105.437 78.6524 106.232 78.2898 106.936C77.9271 107.629 77.4258 108.173 76.7858 108.568C76.1564 108.952 75.4578 109.144 74.6898 109.144C74.0178 109.144 73.4204 109.011 72.8978 108.744C72.3751 108.467 71.9484 108.125 71.6178 107.72V113.192H69.7938V100.184H71.6178V101.48ZM76.9778 104.552C76.9778 103.944 76.8498 103.421 76.5938 102.984C76.3484 102.536 76.0178 102.2 75.6018 101.976C75.1964 101.741 74.7591 101.624 74.2898 101.624C73.8311 101.624 73.3938 101.741 72.9778 101.976C72.5724 102.211 72.2418 102.552 71.9858 103C71.7404 103.448 71.6178 103.976 71.6178 104.584C71.6178 105.192 71.7404 105.725 71.9858 106.184C72.2418 106.632 72.5724 106.973 72.9778 107.208C73.3938 107.443 73.8311 107.56 74.2898 107.56C74.7591 107.56 75.1964 107.443 75.6018 107.208C76.0178 106.963 76.3484 106.611 76.5938 106.152C76.8498 105.693 76.9778 105.16 76.9778 104.552ZM82.4615 101.464C82.7282 101.016 83.0802 100.669 83.5175 100.424C83.9655 100.168 84.4935 100.04 85.1015 100.04V101.928H84.6375C83.9228 101.928 83.3788 102.109 83.0055 102.472C82.6428 102.835 82.4615 103.464 82.4615 104.36V109H80.6375V100.184H82.4615V101.464ZM94.8581 104.376C94.8581 104.707 94.8368 105.005 94.7941 105.272H88.0581C88.1115 105.976 88.3728 106.541 88.8421 106.968C89.3115 107.395 89.8875 107.608 90.5701 107.608C91.5515 107.608 92.2448 107.197 92.6501 106.376H94.6181C94.3515 107.187 93.8661 107.853 93.1621 108.376C92.4688 108.888 91.6048 109.144 90.5701 109.144C89.7275 109.144 88.9701 108.957 88.2981 108.584C87.6368 108.2 87.1141 107.667 86.7301 106.984C86.3568 106.291 86.1701 105.491 86.1701 104.584C86.1701 103.677 86.3515 102.883 86.7141 102.2C87.0875 101.507 87.6048 100.973 88.2661 100.6C88.9381 100.227 89.7061 100.04 90.5701 100.04C91.4021 100.04 92.1435 100.221 92.7941 100.584C93.4448 100.947 93.9515 101.459 94.3141 102.12C94.6768 102.771 94.8581 103.523 94.8581 104.376ZM92.9541 103.8C92.9435 103.128 92.7035 102.589 92.2341 102.184C91.7648 101.779 91.1835 101.576 90.4901 101.576C89.8608 101.576 89.3221 101.779 88.8741 102.184C88.4261 102.579 88.1595 103.117 88.0741 103.8H92.9541ZM96.0451 104.584C96.0451 103.677 96.2265 102.883 96.5891 102.2C96.9625 101.507 97.4745 100.973 98.1251 100.6C98.7758 100.227 99.5225 100.04 100.365 100.04C101.432 100.04 102.312 100.296 103.005 100.808C103.709 101.309 104.184 102.029 104.429 102.968H102.461C102.301 102.531 102.045 102.189 101.693 101.944C101.341 101.699 100.898 101.576 100.365 101.576C99.6185 101.576 99.0211 101.843 98.5731 102.376C98.1358 102.899 97.9171 103.635 97.9171 104.584C97.9171 105.533 98.1358 106.275 98.5731 106.808C99.0211 107.341 99.6185 107.608 100.365 107.608C101.421 107.608 102.12 107.144 102.461 106.216H104.429C104.173 107.112 103.693 107.827 102.989 108.36C102.285 108.883 101.41 109.144 100.365 109.144C99.5225 109.144 98.7758 108.957 98.1251 108.584C97.4745 108.2 96.9625 107.667 96.5891 106.984C96.2265 106.291 96.0451 105.491 96.0451 104.584ZM107.175 99.016C106.844 99.016 106.567 98.904 106.343 98.68C106.119 98.456 106.007 98.1787 106.007 97.848C106.007 97.5173 106.119 97.24 106.343 97.016C106.567 96.792 106.844 96.68 107.175 96.68C107.495 96.68 107.767 96.792 107.991 97.016C108.215 97.24 108.327 97.5173 108.327 97.848C108.327 98.1787 108.215 98.456 107.991 98.68C107.767 98.904 107.495 99.016 107.175 99.016ZM108.071 100.184V109H106.247V100.184H108.071ZM113.666 109.144C112.972 109.144 112.348 109.021 111.794 108.776C111.25 108.52 110.818 108.179 110.498 107.752C110.178 107.315 110.007 106.829 109.986 106.296H111.874C111.906 106.669 112.082 106.984 112.402 107.24C112.732 107.485 113.143 107.608 113.634 107.608C114.146 107.608 114.54 107.512 114.818 107.32C115.106 107.117 115.25 106.861 115.25 106.552C115.25 106.221 115.09 105.976 114.77 105.816C114.46 105.656 113.964 105.48 113.282 105.288C112.62 105.107 112.082 104.931 111.666 104.76C111.25 104.589 110.887 104.328 110.578 103.976C110.279 103.624 110.13 103.16 110.13 102.584C110.13 102.115 110.268 101.688 110.546 101.304C110.823 100.909 111.218 100.6 111.73 100.376C112.252 100.152 112.85 100.04 113.522 100.04C114.524 100.04 115.33 100.296 115.938 100.808C116.556 101.309 116.887 101.997 116.93 102.872H115.106C115.074 102.477 114.914 102.163 114.626 101.928C114.338 101.693 113.948 101.576 113.458 101.576C112.978 101.576 112.61 101.667 112.354 101.848C112.098 102.029 111.97 102.269 111.97 102.568C111.97 102.803 112.055 103 112.226 103.16C112.396 103.32 112.604 103.448 112.85 103.544C113.095 103.629 113.458 103.741 113.938 103.88C114.578 104.051 115.1 104.227 115.506 104.408C115.922 104.579 116.279 104.835 116.578 105.176C116.876 105.517 117.031 105.971 117.042 106.536C117.042 107.037 116.903 107.485 116.626 107.88C116.348 108.275 115.954 108.584 115.442 108.808C114.94 109.032 114.348 109.144 113.666 109.144ZM118.405 104.552C118.405 103.667 118.586 102.883 118.949 102.2C119.322 101.517 119.823 100.989 120.453 100.616C121.093 100.232 121.797 100.04 122.565 100.04C123.258 100.04 123.861 100.179 124.373 100.456C124.895 100.723 125.311 101.059 125.621 101.464V100.184H127.461V109H125.621V107.688C125.311 108.104 124.89 108.451 124.357 108.728C123.823 109.005 123.215 109.144 122.533 109.144C121.775 109.144 121.082 108.952 120.453 108.568C119.823 108.173 119.322 107.629 118.949 106.936C118.586 106.232 118.405 105.437 118.405 104.552ZM125.621 104.584C125.621 103.976 125.493 103.448 125.237 103C124.991 102.552 124.666 102.211 124.261 101.976C123.855 101.741 123.418 101.624 122.949 101.624C122.479 101.624 122.042 101.741 121.637 101.976C121.231 102.2 120.901 102.536 120.645 102.984C120.399 103.421 120.277 103.944 120.277 104.552C120.277 105.16 120.399 105.693 120.645 106.152C120.901 106.611 121.231 106.963 121.637 107.208C122.053 107.443 122.49 107.56 122.949 107.56C123.418 107.56 123.855 107.443 124.261 107.208C124.666 106.973 124.991 106.632 125.237 106.184C125.493 105.725 125.621 105.192 125.621 104.584ZM135.837 101.48C136.146 101.075 136.567 100.733 137.101 100.456C137.634 100.179 138.237 100.04 138.909 100.04C139.677 100.04 140.375 100.232 141.005 100.616C141.645 100.989 142.146 101.517 142.509 102.2C142.871 102.883 143.053 103.667 143.053 104.552C143.053 105.437 142.871 106.232 142.509 106.936C142.146 107.629 141.645 108.173 141.005 108.568C140.375 108.952 139.677 109.144 138.909 109.144C138.237 109.144 137.639 109.011 137.117 108.744C136.594 108.467 136.167 108.125 135.837 107.72V113.192H134.013V100.184H135.837V101.48ZM141.197 104.552C141.197 103.944 141.069 103.421 140.812 102.984C140.567 102.536 140.237 102.2 139.821 101.976C139.415 101.741 138.978 101.624 138.509 101.624C138.05 101.624 137.613 101.741 137.197 101.976C136.791 102.211 136.461 102.552 136.205 103C135.959 103.448 135.837 103.976 135.837 104.584C135.837 105.192 135.959 105.725 136.205 106.184C136.461 106.632 136.791 106.973 137.197 107.208C137.613 107.443 138.05 107.56 138.509 107.56C138.978 107.56 139.415 107.443 139.821 107.208C140.237 106.963 140.567 106.611 140.812 106.152C141.069 105.693 141.197 105.16 141.197 104.552ZM144.248 104.552C144.248 103.667 144.43 102.883 144.792 102.2C145.166 101.517 145.667 100.989 146.296 100.616C146.936 100.232 147.64 100.04 148.408 100.04C149.102 100.04 149.704 100.179 150.216 100.456C150.739 100.723 151.155 101.059 151.464 101.464V100.184H153.304V109H151.464V107.688C151.155 108.104 150.734 108.451 150.2 108.728C149.667 109.005 149.059 109.144 148.376 109.144C147.619 109.144 146.926 108.952 146.296 108.568C145.667 108.173 145.166 107.629 144.792 106.936C144.43 106.232 144.248 105.437 144.248 104.552ZM151.464 104.584C151.464 103.976 151.336 103.448 151.08 103C150.835 102.552 150.51 102.211 150.104 101.976C149.699 101.741 149.262 101.624 148.792 101.624C148.323 101.624 147.886 101.741 147.48 101.976C147.075 102.2 146.744 102.536 146.488 102.984C146.243 103.421 146.12 103.944 146.12 104.552C146.12 105.16 146.243 105.693 146.488 106.152C146.744 106.611 147.075 106.963 147.48 107.208C147.896 107.443 148.334 107.56 148.792 107.56C149.262 107.56 149.699 107.443 150.104 107.208C150.51 106.973 150.835 106.632 151.08 106.184C151.336 105.725 151.464 105.192 151.464 104.584ZM157.524 101.464C157.791 101.016 158.143 100.669 158.58 100.424C159.028 100.168 159.556 100.04 160.164 100.04V101.928H159.7C158.985 101.928 158.441 102.109 158.068 102.472C157.705 102.835 157.524 103.464 157.524 104.36V109H155.7V100.184H157.524V101.464ZM161.233 104.552C161.233 103.667 161.414 102.883 161.777 102.2C162.15 101.517 162.651 100.989 163.281 100.616C163.921 100.232 164.625 100.04 165.393 100.04C166.086 100.04 166.689 100.179 167.201 100.456C167.723 100.723 168.139 101.059 168.449 101.464V100.184H170.289V109H168.449V107.688C168.139 108.104 167.718 108.451 167.185 108.728C166.651 109.005 166.043 109.144 165.361 109.144C164.603 109.144 163.91 108.952 163.281 108.568C162.651 108.173 162.15 107.629 161.777 106.936C161.414 106.232 161.233 105.437 161.233 104.552ZM168.449 104.584C168.449 103.976 168.321 103.448 168.065 103C167.819 102.552 167.494 102.211 167.089 101.976C166.683 101.741 166.246 101.624 165.777 101.624C165.307 101.624 164.87 101.741 164.465 101.976C164.059 102.2 163.729 102.536 163.473 102.984C163.227 103.421 163.105 103.944 163.105 104.552C163.105 105.16 163.227 105.693 163.473 106.152C163.729 106.611 164.059 106.963 164.465 107.208C164.881 107.443 165.318 107.56 165.777 107.56C166.246 107.56 166.683 107.443 167.089 107.208C167.494 106.973 167.819 106.632 168.065 106.184C168.321 105.725 168.449 105.192 168.449 104.584ZM180.041 109.144C179.347 109.144 178.723 109.021 178.169 108.776C177.625 108.52 177.193 108.179 176.873 107.752C176.553 107.315 176.382 106.829 176.361 106.296H178.249C178.281 106.669 178.457 106.984 178.777 107.24C179.107 107.485 179.518 107.608 180.009 107.608C180.521 107.608 180.915 107.512 181.193 107.32C181.481 107.117 181.625 106.861 181.625 106.552C181.625 106.221 181.465 105.976 181.145 105.816C180.835 105.656 180.339 105.48 179.657 105.288C178.995 105.107 178.457 104.931 178.041 104.76C177.625 104.589 177.262 104.328 176.953 103.976C176.654 103.624 176.505 103.16 176.505 102.584C176.505 102.115 176.643 101.688 176.921 101.304C177.198 100.909 177.593 100.6 178.105 100.376C178.627 100.152 179.225 100.04 179.897 100.04C180.899 100.04 181.705 100.296 182.313 100.808C182.931 101.309 183.262 101.997 183.305 102.872H181.481C181.449 102.477 181.289 102.163 181.001 101.928C180.713 101.693 180.323 101.576 179.833 101.576C179.353 101.576 178.985 101.667 178.729 101.848C178.473 102.029 178.345 102.269 178.345 102.568C178.345 102.803 178.43 103 178.601 103.16C178.771 103.32 178.979 103.448 179.225 103.544C179.47 103.629 179.833 103.741 180.313 103.88C180.953 104.051 181.475 104.227 181.881 104.408C182.297 104.579 182.654 104.835 182.953 105.176C183.251 105.517 183.406 105.971 183.417 106.536C183.417 107.037 183.278 107.485 183.001 107.88C182.723 108.275 182.329 108.584 181.817 108.808C181.315 109.032 180.723 109.144 180.041 109.144ZM193.468 104.376C193.468 104.707 193.446 105.005 193.404 105.272H186.668C186.721 105.976 186.982 106.541 187.452 106.968C187.921 107.395 188.497 107.608 189.18 107.608C190.161 107.608 190.854 107.197 191.26 106.376H193.227C192.961 107.187 192.476 107.853 191.772 108.376C191.078 108.888 190.214 109.144 189.18 109.144C188.337 109.144 187.58 108.957 186.908 108.584C186.246 108.2 185.724 107.667 185.34 106.984C184.966 106.291 184.78 105.491 184.78 104.584C184.78 103.677 184.961 102.883 185.324 102.2C185.697 101.507 186.214 100.973 186.876 100.6C187.548 100.227 188.316 100.04 189.18 100.04C190.012 100.04 190.753 100.221 191.404 100.584C192.054 100.947 192.561 101.459 192.924 102.12C193.286 102.771 193.468 103.523 193.468 104.376ZM191.564 103.8C191.553 103.128 191.313 102.589 190.844 102.184C190.374 101.779 189.793 101.576 189.1 101.576C188.47 101.576 187.932 101.779 187.484 102.184C187.036 102.579 186.769 103.117 186.684 103.8H191.564ZM203.247 100.184V109H201.423V107.96C201.135 108.323 200.756 108.611 200.287 108.824C199.828 109.027 199.337 109.128 198.815 109.128C198.121 109.128 197.497 108.984 196.943 108.696C196.399 108.408 195.967 107.981 195.647 107.416C195.337 106.851 195.183 106.168 195.183 105.368V100.184H196.991V105.096C196.991 105.885 197.188 106.493 197.583 106.92C197.977 107.336 198.516 107.544 199.199 107.544C199.881 107.544 200.42 107.336 200.815 106.92C201.22 106.493 201.423 105.885 201.423 105.096V100.184H203.247ZM209.201 104.552C209.201 103.667 209.383 102.883 209.745 102.2C210.119 101.517 210.62 100.989 211.249 100.616C211.889 100.232 212.599 100.04 213.377 100.04C213.953 100.04 214.519 100.168 215.073 100.424C215.639 100.669 216.087 101 216.417 101.416V97.16H218.257V109H216.417V107.672C216.119 108.099 215.703 108.451 215.169 108.728C214.647 109.005 214.044 109.144 213.361 109.144C212.593 109.144 211.889 108.952 211.249 108.568C210.62 108.173 210.119 107.629 209.745 106.936C209.383 106.232 209.201 105.437 209.201 104.552ZM216.417 104.584C216.417 103.976 216.289 103.448 216.033 103C215.788 102.552 215.463 102.211 215.057 101.976C214.652 101.741 214.215 101.624 213.745 101.624C213.276 101.624 212.839 101.741 212.433 101.976C212.028 102.2 211.697 102.536 211.441 102.984C211.196 103.421 211.073 103.944 211.073 104.552C211.073 105.16 211.196 105.693 211.441 106.152C211.697 106.611 212.028 106.963 212.433 107.208C212.849 107.443 213.287 107.56 213.745 107.56C214.215 107.56 214.652 107.443 215.057 107.208C215.463 106.973 215.788 106.632 216.033 106.184C216.289 105.725 216.417 105.192 216.417 104.584ZM228.733 104.376C228.733 104.707 228.712 105.005 228.669 105.272H221.933C221.986 105.976 222.248 106.541 222.717 106.968C223.186 107.395 223.762 107.608 224.445 107.608C225.426 107.608 226.12 107.197 226.525 106.376H228.493C228.226 107.187 227.741 107.853 227.037 108.376C226.344 108.888 225.48 109.144 224.445 109.144C223.602 109.144 222.845 108.957 222.173 108.584C221.512 108.2 220.989 107.667 220.605 106.984C220.232 106.291 220.045 105.491 220.045 104.584C220.045 103.677 220.226 102.883 220.589 102.2C220.962 101.507 221.48 100.973 222.141 100.6C222.813 100.227 223.581 100.04 224.445 100.04C225.277 100.04 226.018 100.221 226.669 100.584C227.32 100.947 227.826 101.459 228.189 102.12C228.552 102.771 228.733 103.523 228.733 104.376ZM226.829 103.8C226.818 103.128 226.578 102.589 226.109 102.184C225.64 101.779 225.058 101.576 224.365 101.576C223.736 101.576 223.197 101.779 222.749 102.184C222.301 102.579 222.034 103.117 221.949 103.8H226.829ZM233.728 109.144C233.035 109.144 232.411 109.021 231.856 108.776C231.312 108.52 230.88 108.179 230.56 107.752C230.24 107.315 230.069 106.829 230.048 106.296H231.936C231.968 106.669 232.144 106.984 232.464 107.24C232.795 107.485 233.205 107.608 233.696 107.608C234.208 107.608 234.603 107.512 234.88 107.32C235.168 107.117 235.312 106.861 235.312 106.552C235.312 106.221 235.152 105.976 234.832 105.816C234.523 105.656 234.027 105.48 233.344 105.288C232.683 105.107 232.144 104.931 231.728 104.76C231.312 104.589 230.949 104.328 230.64 103.976C230.341 103.624 230.192 103.16 230.192 102.584C230.192 102.115 230.331 101.688 230.608 101.304C230.885 100.909 231.28 100.6 231.792 100.376C232.315 100.152 232.912 100.04 233.584 100.04C234.587 100.04 235.392 100.296 236 100.808C236.619 101.309 236.949 101.997 236.992 102.872H235.168C235.136 102.477 234.976 102.163 234.688 101.928C234.4 101.693 234.011 101.576 233.52 101.576C233.04 101.576 232.672 101.667 232.416 101.848C232.16 102.029 232.032 102.269 232.032 102.568C232.032 102.803 232.117 103 232.288 103.16C232.459 103.32 232.667 103.448 232.912 103.544C233.157 103.629 233.52 103.741 234 103.88C234.64 104.051 235.163 104.227 235.568 104.408C235.984 104.579 236.341 104.835 236.64 105.176C236.939 105.517 237.093 105.971 237.104 106.536C237.104 107.037 236.965 107.485 236.688 107.88C236.411 108.275 236.016 108.584 235.504 108.808C235.003 109.032 234.411 109.144 233.728 109.144ZM247.155 104.376C247.155 104.707 247.134 105.005 247.091 105.272H240.355C240.408 105.976 240.67 106.541 241.139 106.968C241.608 107.395 242.184 107.608 242.867 107.608C243.848 107.608 244.542 107.197 244.947 106.376H246.915C246.648 107.187 246.163 107.853 245.459 108.376C244.766 108.888 243.902 109.144 242.867 109.144C242.024 109.144 241.267 108.957 240.595 108.584C239.934 108.2 239.411 107.667 239.027 106.984C238.654 106.291 238.467 105.491 238.467 104.584C238.467 103.677 238.648 102.883 239.011 102.2C239.384 101.507 239.902 100.973 240.563 100.6C241.235 100.227 242.003 100.04 242.867 100.04C243.699 100.04 244.44 100.221 245.091 100.584C245.742 100.947 246.248 101.459 246.611 102.12C246.974 102.771 247.155 103.523 247.155 104.376ZM245.251 103.8C245.24 103.128 245 102.589 244.531 102.184C244.062 101.779 243.48 101.576 242.787 101.576C242.158 101.576 241.619 101.779 241.171 102.184C240.723 102.579 240.456 103.117 240.371 103.8H245.251ZM253.398 100.04C254.091 100.04 254.71 100.184 255.254 100.472C255.809 100.76 256.241 101.187 256.55 101.752C256.859 102.317 257.014 103 257.014 103.8V109H255.206V104.072C255.206 103.283 255.009 102.68 254.614 102.264C254.219 101.837 253.681 101.624 252.998 101.624C252.315 101.624 251.771 101.837 251.366 102.264C250.971 102.68 250.774 103.283 250.774 104.072V109H248.95V100.184H250.774V101.192C251.073 100.829 251.451 100.547 251.91 100.344C252.379 100.141 252.875 100.04 253.398 100.04ZM262.749 107.368L265.245 100.184H267.181L263.821 109H261.645L258.301 100.184H260.253L262.749 107.368ZM272.383 109.144C271.551 109.144 270.799 108.957 270.127 108.584C269.455 108.2 268.927 107.667 268.543 106.984C268.159 106.291 267.967 105.491 267.967 104.584C267.967 103.688 268.165 102.893 268.559 102.2C268.954 101.507 269.493 100.973 270.175 100.6C270.858 100.227 271.621 100.04 272.463 100.04C273.306 100.04 274.069 100.227 274.751 100.6C275.434 100.973 275.973 101.507 276.367 102.2C276.762 102.893 276.959 103.688 276.959 104.584C276.959 105.48 276.757 106.275 276.351 106.968C275.946 107.661 275.391 108.2 274.687 108.584C273.994 108.957 273.226 109.144 272.383 109.144ZM272.383 107.56C272.853 107.56 273.29 107.448 273.695 107.224C274.111 107 274.447 106.664 274.703 106.216C274.959 105.768 275.087 105.224 275.087 104.584C275.087 103.944 274.965 103.405 274.719 102.968C274.474 102.52 274.149 102.184 273.743 101.96C273.338 101.736 272.901 101.624 272.431 101.624C271.962 101.624 271.525 101.736 271.119 101.96C270.725 102.184 270.41 102.52 270.175 102.968C269.941 103.405 269.823 103.944 269.823 104.584C269.823 105.533 270.063 106.269 270.543 106.792C271.034 107.304 271.647 107.56 272.383 107.56ZM280.587 97.16V109H278.763V97.16H280.587ZM286.389 107.368L288.885 100.184H290.821L287.461 109H285.285L281.941 100.184H283.893L286.389 107.368ZM293.128 99.016C292.797 99.016 292.52 98.904 292.296 98.68C292.072 98.456 291.96 98.1787 291.96 97.848C291.96 97.5173 292.072 97.24 292.296 97.016C292.52 96.792 292.797 96.68 293.128 96.68C293.448 96.68 293.72 96.792 293.944 97.016C294.168 97.24 294.28 97.5173 294.28 97.848C294.28 98.1787 294.168 98.456 293.944 98.68C293.72 98.904 293.448 99.016 293.128 99.016ZM294.024 100.184V109H292.2V100.184H294.024ZM307.091 100.04C307.784 100.04 308.403 100.184 308.947 100.472C309.501 100.76 309.933 101.187 310.243 101.752C310.563 102.317 310.723 103 310.723 103.8V109H308.915V104.072C308.915 103.283 308.717 102.68 308.323 102.264C307.928 101.837 307.389 101.624 306.707 101.624C306.024 101.624 305.48 101.837 305.075 102.264C304.68 102.68 304.483 103.283 304.483 104.072V109H302.675V104.072C302.675 103.283 302.477 102.68 302.083 102.264C301.688 101.837 301.149 101.624 300.467 101.624C299.784 101.624 299.24 101.837 298.835 102.264C298.44 102.68 298.243 103.283 298.243 104.072V109H296.419V100.184H298.243V101.192C298.541 100.829 298.92 100.547 299.379 100.344C299.837 100.141 300.328 100.04 300.851 100.04C301.555 100.04 302.184 100.189 302.739 100.488C303.293 100.787 303.72 101.219 304.019 101.784C304.285 101.251 304.701 100.829 305.267 100.52C305.832 100.2 306.44 100.04 307.091 100.04ZM321.124 104.376C321.124 104.707 321.102 105.005 321.06 105.272H314.324C314.377 105.976 314.638 106.541 315.108 106.968C315.577 107.395 316.153 107.608 316.836 107.608C317.817 107.608 318.51 107.197 318.916 106.376H320.884C320.617 107.187 320.132 107.853 319.428 108.376C318.734 108.888 317.87 109.144 316.836 109.144C315.993 109.144 315.236 108.957 314.564 108.584C313.902 108.2 313.38 107.667 312.996 106.984C312.622 106.291 312.436 105.491 312.436 104.584C312.436 103.677 312.617 102.883 312.98 102.2C313.353 101.507 313.87 100.973 314.532 100.6C315.204 100.227 315.972 100.04 316.836 100.04C317.668 100.04 318.409 100.221 319.06 100.584C319.71 100.947 320.217 101.459 320.58 102.12C320.942 102.771 321.124 103.523 321.124 104.376ZM319.22 103.8C319.209 103.128 318.969 102.589 318.5 102.184C318.03 101.779 317.449 101.576 316.756 101.576C316.126 101.576 315.588 101.779 315.14 102.184C314.692 102.579 314.425 103.117 314.34 103.8H319.22ZM327.367 100.04C328.06 100.04 328.679 100.184 329.223 100.472C329.777 100.76 330.209 101.187 330.519 101.752C330.828 102.317 330.983 103 330.983 103.8V109H329.175V104.072C329.175 103.283 328.977 102.68 328.583 102.264C328.188 101.837 327.649 101.624 326.967 101.624C326.284 101.624 325.74 101.837 325.335 102.264C324.94 102.68 324.743 103.283 324.743 104.072V109H322.919V100.184H324.743V101.192C325.041 100.829 325.42 100.547 325.879 100.344C326.348 100.141 326.844 100.04 327.367 100.04ZM335.437 101.672V106.552C335.437 106.883 335.512 107.123 335.661 107.272C335.821 107.411 336.088 107.48 336.461 107.48H337.581V109H336.141C335.32 109 334.691 108.808 334.253 108.424C333.816 108.04 333.597 107.416 333.597 106.552V101.672H332.557V100.184H333.597V97.992H335.437V100.184H337.581V101.672H335.437ZM343.087 109.144C342.255 109.144 341.503 108.957 340.831 108.584C340.159 108.2 339.631 107.667 339.247 106.984C338.863 106.291 338.671 105.491 338.671 104.584C338.671 103.688 338.868 102.893 339.263 102.2C339.657 101.507 340.196 100.973 340.879 100.6C341.561 100.227 342.324 100.04 343.167 100.04C344.009 100.04 344.772 100.227 345.455 100.6C346.137 100.973 346.676 101.507 347.071 102.2C347.465 102.893 347.663 103.688 347.663 104.584C347.663 105.48 347.46 106.275 347.055 106.968C346.649 107.661 346.095 108.2 345.391 108.584C344.697 108.957 343.929 109.144 343.087 109.144ZM343.087 107.56C343.556 107.56 343.993 107.448 344.399 107.224C344.815 107 345.151 106.664 345.407 106.216C345.663 105.768 345.791 105.224 345.791 104.584C345.791 103.944 345.668 103.405 345.423 102.968C345.177 102.52 344.852 102.184 344.447 101.96C344.041 101.736 343.604 101.624 343.135 101.624C342.665 101.624 342.228 101.736 341.823 101.96C341.428 102.184 341.113 102.52 340.879 102.968C340.644 103.405 340.527 103.944 340.527 104.584C340.527 105.533 340.767 106.269 341.247 106.792C341.737 107.304 342.351 107.56 343.087 107.56ZM351.754 97.88L351.546 105.64H350.026L349.818 97.88H351.754ZM350.842 109.112C350.511 109.112 350.234 109 350.01 108.776C349.786 108.552 349.674 108.275 349.674 107.944C349.674 107.613 349.786 107.336 350.01 107.112C350.234 106.888 350.511 106.776 350.842 106.776C351.162 106.776 351.434 106.888 351.658 107.112C351.882 107.336 351.994 107.613 351.994 107.944C351.994 108.275 351.882 108.552 351.658 108.776C351.434 109 351.162 109.112 350.842 109.112Z" fill="white"/>
<g clip-path="url(#clip1_126_3618)">
<path d="M104.5 163H103.71L103.43 162.73C104.41 161.59 105 160.11 105 158.5C105 154.91 102.09 152 98.5 152C94.91 152 92 154.91 92 158.5C92 162.09 94.91 165 98.5 165C100.11 165 101.59 164.41 102.73 163.43L103 163.71V164.5L108 169.49L109.49 168L104.5 163ZM98.5 163C96.01 163 94 160.99 94 158.5C94 156.01 96.01 154 98.5 154C100.99 154 103 156.01 103 158.5C103 160.99 100.99 163 98.5 163Z" fill="white"/>
</g>
<path d="M131.904 167.348L129.958 165.402C129.482 165.533 128.997 165.598 128.502 165.598C127.597 165.598 126.771 165.388 126.024 164.968C125.277 164.539 124.685 163.946 124.246 163.19C123.817 162.425 123.602 161.566 123.602 160.614C123.602 159.662 123.817 158.808 124.246 158.052C124.685 157.287 125.277 156.694 126.024 156.274C126.771 155.845 127.597 155.63 128.502 155.63C129.417 155.63 130.247 155.845 130.994 156.274C131.741 156.694 132.329 157.282 132.758 158.038C133.187 158.794 133.402 159.653 133.402 160.614C133.402 161.547 133.197 162.387 132.786 163.134C132.375 163.881 131.811 164.469 131.092 164.898L133.556 167.348H131.904ZM124.904 160.614C124.904 161.389 125.058 162.07 125.366 162.658C125.683 163.246 126.113 163.699 126.654 164.016C127.205 164.333 127.821 164.492 128.502 164.492C129.183 164.492 129.795 164.333 130.336 164.016C130.887 163.699 131.316 163.246 131.624 162.658C131.941 162.07 132.1 161.389 132.1 160.614C132.1 159.83 131.941 159.149 131.624 158.57C131.316 157.982 130.891 157.529 130.35 157.212C129.809 156.895 129.193 156.736 128.502 156.736C127.811 156.736 127.195 156.895 126.654 157.212C126.113 157.529 125.683 157.982 125.366 158.57C125.058 159.149 124.904 159.83 124.904 160.614ZM141.915 157.828V165.5H140.641V164.366C140.399 164.758 140.058 165.066 139.619 165.29C139.19 165.505 138.714 165.612 138.191 165.612C137.594 165.612 137.057 165.491 136.581 165.248C136.105 164.996 135.727 164.623 135.447 164.128C135.177 163.633 135.041 163.031 135.041 162.322V157.828H136.301V162.154C136.301 162.91 136.493 163.493 136.875 163.904C137.258 164.305 137.781 164.506 138.443 164.506C139.125 164.506 139.661 164.296 140.053 163.876C140.445 163.456 140.641 162.845 140.641 162.042V157.828H141.915ZM143.59 161.636C143.59 160.852 143.749 160.166 144.066 159.578C144.384 158.981 144.818 158.519 145.368 158.192C145.928 157.865 146.549 157.702 147.23 157.702C147.902 157.702 148.486 157.847 148.98 158.136C149.475 158.425 149.844 158.789 150.086 159.228V157.828H151.374V165.5H150.086V164.072C149.834 164.52 149.456 164.893 148.952 165.192C148.458 165.481 147.879 165.626 147.216 165.626C146.535 165.626 145.919 165.458 145.368 165.122C144.818 164.786 144.384 164.315 144.066 163.708C143.749 163.101 143.59 162.411 143.59 161.636ZM150.086 161.65C150.086 161.071 149.97 160.567 149.736 160.138C149.503 159.709 149.186 159.382 148.784 159.158C148.392 158.925 147.958 158.808 147.482 158.808C147.006 158.808 146.572 158.92 146.18 159.144C145.788 159.368 145.476 159.695 145.242 160.124C145.009 160.553 144.892 161.057 144.892 161.636C144.892 162.224 145.009 162.737 145.242 163.176C145.476 163.605 145.788 163.937 146.18 164.17C146.572 164.394 147.006 164.506 147.482 164.506C147.958 164.506 148.392 164.394 148.784 164.17C149.186 163.937 149.503 163.605 149.736 163.176C149.97 162.737 150.086 162.229 150.086 161.65ZM154.801 155.14V165.5H153.527V155.14H154.801ZM163.421 165.626C162.833 165.626 162.306 165.528 161.839 165.332C161.372 165.127 161.004 164.847 160.733 164.492C160.462 164.128 160.313 163.713 160.285 163.246H161.601C161.638 163.629 161.816 163.941 162.133 164.184C162.46 164.427 162.884 164.548 163.407 164.548C163.892 164.548 164.275 164.441 164.555 164.226C164.835 164.011 164.975 163.741 164.975 163.414C164.975 163.078 164.826 162.831 164.527 162.672C164.228 162.504 163.766 162.341 163.141 162.182C162.572 162.033 162.105 161.883 161.741 161.734C161.386 161.575 161.078 161.347 160.817 161.048C160.565 160.74 160.439 160.339 160.439 159.844C160.439 159.452 160.556 159.093 160.789 158.766C161.022 158.439 161.354 158.183 161.783 157.996C162.212 157.8 162.702 157.702 163.253 157.702C164.102 157.702 164.788 157.917 165.311 158.346C165.834 158.775 166.114 159.363 166.151 160.11H164.877C164.849 159.709 164.686 159.387 164.387 159.144C164.098 158.901 163.706 158.78 163.211 158.78C162.754 158.78 162.39 158.878 162.119 159.074C161.848 159.27 161.713 159.527 161.713 159.844C161.713 160.096 161.792 160.306 161.951 160.474C162.119 160.633 162.324 160.763 162.567 160.866C162.819 160.959 163.164 161.067 163.603 161.188C164.154 161.337 164.602 161.487 164.947 161.636C165.292 161.776 165.586 161.991 165.829 162.28C166.081 162.569 166.212 162.947 166.221 163.414C166.221 163.834 166.104 164.212 165.871 164.548C165.638 164.884 165.306 165.15 164.877 165.346C164.457 165.533 163.972 165.626 163.421 165.626ZM175.019 161.37C175.019 161.613 175.005 161.869 174.977 162.14H168.845C168.892 162.896 169.149 163.489 169.615 163.918C170.091 164.338 170.665 164.548 171.337 164.548C171.888 164.548 172.345 164.422 172.709 164.17C173.083 163.909 173.344 163.563 173.493 163.134H174.865C174.66 163.871 174.249 164.473 173.633 164.94C173.017 165.397 172.252 165.626 171.337 165.626C170.609 165.626 169.956 165.463 169.377 165.136C168.808 164.809 168.36 164.347 168.033 163.75C167.707 163.143 167.543 162.443 167.543 161.65C167.543 160.857 167.702 160.161 168.019 159.564C168.337 158.967 168.78 158.509 169.349 158.192C169.928 157.865 170.591 157.702 171.337 157.702C172.065 157.702 172.709 157.861 173.269 158.178C173.829 158.495 174.259 158.934 174.557 159.494C174.865 160.045 175.019 160.67 175.019 161.37ZM173.703 161.104C173.703 160.619 173.596 160.203 173.381 159.858C173.167 159.503 172.873 159.237 172.499 159.06C172.135 158.873 171.729 158.78 171.281 158.78C170.637 158.78 170.087 158.985 169.629 159.396C169.181 159.807 168.925 160.376 168.859 161.104H173.703ZM177.975 159.074C178.199 158.635 178.516 158.295 178.927 158.052C179.347 157.809 179.856 157.688 180.453 157.688V159.004H180.117C178.689 159.004 177.975 159.779 177.975 161.328V165.5H176.701V157.828H177.975V159.074ZM181.448 161.636C181.448 160.852 181.606 160.166 181.924 159.578C182.241 158.981 182.675 158.519 183.226 158.192C183.786 157.865 184.406 157.702 185.088 157.702C185.76 157.702 186.343 157.847 186.838 158.136C187.332 158.425 187.701 158.789 187.944 159.228V157.828H189.232V165.5H187.944V164.072C187.692 164.52 187.314 164.893 186.81 165.192C186.315 165.481 185.736 165.626 185.074 165.626C184.392 165.626 183.776 165.458 183.226 165.122C182.675 164.786 182.241 164.315 181.924 163.708C181.606 163.101 181.448 162.411 181.448 161.636ZM187.944 161.65C187.944 161.071 187.827 160.567 187.594 160.138C187.36 159.709 187.043 159.382 186.642 159.158C186.25 158.925 185.816 158.808 185.34 158.808C184.864 158.808 184.43 158.92 184.038 159.144C183.646 159.368 183.333 159.695 183.1 160.124C182.866 160.553 182.75 161.057 182.75 161.636C182.75 162.224 182.866 162.737 183.1 163.176C183.333 163.605 183.646 163.937 184.038 164.17C184.43 164.394 184.864 164.506 185.34 164.506C185.816 164.506 186.25 164.394 186.642 164.17C187.043 163.937 187.36 163.605 187.594 163.176C187.827 162.737 187.944 162.229 187.944 161.65ZM186.95 155.658L183.968 157.254V156.302L186.95 154.552V155.658ZM197.833 165.626C197.245 165.626 196.718 165.528 196.251 165.332C195.784 165.127 195.416 164.847 195.145 164.492C194.874 164.128 194.725 163.713 194.697 163.246H196.013C196.05 163.629 196.228 163.941 196.545 164.184C196.872 164.427 197.296 164.548 197.819 164.548C198.304 164.548 198.687 164.441 198.967 164.226C199.247 164.011 199.387 163.741 199.387 163.414C199.387 163.078 199.238 162.831 198.939 162.672C198.64 162.504 198.178 162.341 197.553 162.182C196.984 162.033 196.517 161.883 196.153 161.734C195.798 161.575 195.49 161.347 195.229 161.048C194.977 160.74 194.851 160.339 194.851 159.844C194.851 159.452 194.968 159.093 195.201 158.766C195.434 158.439 195.766 158.183 196.195 157.996C196.624 157.8 197.114 157.702 197.665 157.702C198.514 157.702 199.2 157.917 199.723 158.346C200.246 158.775 200.526 159.363 200.563 160.11H199.289C199.261 159.709 199.098 159.387 198.799 159.144C198.51 158.901 198.118 158.78 197.623 158.78C197.166 158.78 196.802 158.878 196.531 159.074C196.26 159.27 196.125 159.527 196.125 159.844C196.125 160.096 196.204 160.306 196.363 160.474C196.531 160.633 196.736 160.763 196.979 160.866C197.231 160.959 197.576 161.067 198.015 161.188C198.566 161.337 199.014 161.487 199.359 161.636C199.704 161.776 199.998 161.991 200.241 162.28C200.493 162.569 200.624 162.947 200.633 163.414C200.633 163.834 200.516 164.212 200.283 164.548C200.05 164.884 199.718 165.15 199.289 165.346C198.869 165.533 198.384 165.626 197.833 165.626ZM209.236 157.828V165.5H207.962V164.366C207.719 164.758 207.378 165.066 206.94 165.29C206.51 165.505 206.034 165.612 205.512 165.612C204.914 165.612 204.378 165.491 203.902 165.248C203.426 164.996 203.048 164.623 202.768 164.128C202.497 163.633 202.362 163.031 202.362 162.322V157.828H203.622V162.154C203.622 162.91 203.813 163.493 204.196 163.904C204.578 164.305 205.101 164.506 205.764 164.506C206.445 164.506 206.982 164.296 207.374 163.876C207.766 163.456 207.962 162.845 207.962 162.042V157.828H209.236ZM210.911 161.636C210.911 160.852 211.069 160.166 211.387 159.578C211.704 158.981 212.138 158.519 212.689 158.192C213.249 157.865 213.869 157.702 214.551 157.702C215.223 157.702 215.806 157.847 216.301 158.136C216.795 158.425 217.164 158.789 217.407 159.228V157.828H218.695V165.5H217.407V164.072C217.155 164.52 216.777 164.893 216.273 165.192C215.778 165.481 215.199 165.626 214.537 165.626C213.855 165.626 213.239 165.458 212.689 165.122C212.138 164.786 211.704 164.315 211.387 163.708C211.069 163.101 210.911 162.411 210.911 161.636ZM217.407 161.65C217.407 161.071 217.29 160.567 217.057 160.138C216.823 159.709 216.506 159.382 216.105 159.158C215.713 158.925 215.279 158.808 214.803 158.808C214.327 158.808 213.893 158.92 213.501 159.144C213.109 159.368 212.796 159.695 212.563 160.124C212.329 160.553 212.213 161.057 212.213 161.636C212.213 162.224 212.329 162.737 212.563 163.176C212.796 163.605 213.109 163.937 213.501 164.17C213.893 164.394 214.327 164.506 214.803 164.506C215.279 164.506 215.713 164.394 216.105 164.17C216.506 163.937 216.823 163.605 217.057 163.176C217.29 162.737 217.407 162.229 217.407 161.65ZM225.854 159.242C226.106 158.803 226.479 158.439 226.974 158.15C227.478 157.851 228.061 157.702 228.724 157.702C229.405 157.702 230.021 157.865 230.572 158.192C231.132 158.519 231.571 158.981 231.888 159.578C232.205 160.166 232.364 160.852 232.364 161.636C232.364 162.411 232.205 163.101 231.888 163.708C231.571 164.315 231.132 164.786 230.572 165.122C230.021 165.458 229.405 165.626 228.724 165.626C228.071 165.626 227.492 165.481 226.988 165.192C226.493 164.893 226.115 164.525 225.854 164.086V169.14H224.58V157.828H225.854V159.242ZM231.062 161.636C231.062 161.057 230.945 160.553 230.712 160.124C230.479 159.695 230.161 159.368 229.76 159.144C229.368 158.92 228.934 158.808 228.458 158.808C227.991 158.808 227.557 158.925 227.156 159.158C226.764 159.382 226.447 159.713 226.204 160.152C225.971 160.581 225.854 161.081 225.854 161.65C225.854 162.229 225.971 162.737 226.204 163.176C226.447 163.605 226.764 163.937 227.156 164.17C227.557 164.394 227.991 164.506 228.458 164.506C228.934 164.506 229.368 164.394 229.76 164.17C230.161 163.937 230.479 163.605 230.712 163.176C230.945 162.737 231.062 162.224 231.062 161.636ZM235.315 159.074C235.539 158.635 235.856 158.295 236.267 158.052C236.687 157.809 237.196 157.688 237.793 157.688V159.004H237.457C236.029 159.004 235.315 159.779 235.315 161.328V165.5H234.041V157.828H235.315V159.074ZM242.61 165.626C241.891 165.626 241.238 165.463 240.65 165.136C240.071 164.809 239.614 164.347 239.278 163.75C238.951 163.143 238.788 162.443 238.788 161.65C238.788 160.866 238.956 160.175 239.292 159.578C239.637 158.971 240.104 158.509 240.692 158.192C241.28 157.865 241.938 157.702 242.666 157.702C243.394 157.702 244.052 157.865 244.64 158.192C245.228 158.509 245.69 158.967 246.026 159.564C246.371 160.161 246.544 160.857 246.544 161.65C246.544 162.443 246.366 163.143 246.012 163.75C245.666 164.347 245.195 164.809 244.598 165.136C244 165.463 243.338 165.626 242.61 165.626ZM242.61 164.506C243.067 164.506 243.496 164.399 243.898 164.184C244.299 163.969 244.621 163.647 244.864 163.218C245.116 162.789 245.242 162.266 245.242 161.65C245.242 161.034 245.12 160.511 244.878 160.082C244.635 159.653 244.318 159.335 243.926 159.13C243.534 158.915 243.109 158.808 242.652 158.808C242.185 158.808 241.756 158.915 241.364 159.13C240.981 159.335 240.673 159.653 240.44 160.082C240.206 160.511 240.09 161.034 240.09 161.65C240.09 162.275 240.202 162.803 240.426 163.232C240.659 163.661 240.967 163.983 241.35 164.198C241.732 164.403 242.152 164.506 242.61 164.506ZM244.038 155.56L241.056 157.156V156.204L244.038 154.454V155.56ZM252.223 165.5L250.403 162.644L248.653 165.5H247.323L249.801 161.692L247.323 157.828H248.765L250.585 160.67L252.321 157.828H253.651L251.187 161.622L253.665 165.5H252.223ZM255.576 156.582C255.333 156.582 255.128 156.498 254.96 156.33C254.792 156.162 254.708 155.957 254.708 155.714C254.708 155.471 254.792 155.266 254.96 155.098C255.128 154.93 255.333 154.846 255.576 154.846C255.809 154.846 256.005 154.93 256.164 155.098C256.332 155.266 256.416 155.471 256.416 155.714C256.416 155.957 256.332 156.162 256.164 156.33C256.005 156.498 255.809 156.582 255.576 156.582ZM256.192 157.828V165.5H254.918V157.828H256.192ZM267.589 157.688C268.186 157.688 268.718 157.814 269.185 158.066C269.652 158.309 270.02 158.677 270.291 159.172C270.562 159.667 270.697 160.269 270.697 160.978V165.5H269.437V161.16C269.437 160.395 269.246 159.811 268.863 159.41C268.49 158.999 267.981 158.794 267.337 158.794C266.674 158.794 266.147 159.009 265.755 159.438C265.363 159.858 265.167 160.469 265.167 161.272V165.5H263.907V161.16C263.907 160.395 263.716 159.811 263.333 159.41C262.96 158.999 262.451 158.794 261.807 158.794C261.144 158.794 260.617 159.009 260.225 159.438C259.833 159.858 259.637 160.469 259.637 161.272V165.5H258.363V157.828H259.637V158.934C259.889 158.533 260.225 158.225 260.645 158.01C261.074 157.795 261.546 157.688 262.059 157.688C262.703 157.688 263.272 157.833 263.767 158.122C264.262 158.411 264.63 158.836 264.873 159.396C265.088 158.855 265.442 158.435 265.937 158.136C266.432 157.837 266.982 157.688 267.589 157.688ZM272.311 161.636C272.311 160.852 272.47 160.166 272.787 159.578C273.104 158.981 273.538 158.519 274.089 158.192C274.649 157.865 275.27 157.702 275.951 157.702C276.623 157.702 277.206 157.847 277.701 158.136C278.196 158.425 278.564 158.789 278.807 159.228V157.828H280.095V165.5H278.807V164.072C278.555 164.52 278.177 164.893 277.673 165.192C277.178 165.481 276.6 165.626 275.937 165.626C275.256 165.626 274.64 165.458 274.089 165.122C273.538 164.786 273.104 164.315 272.787 163.708C272.47 163.101 272.311 162.411 272.311 161.636ZM278.807 161.65C278.807 161.071 278.69 160.567 278.457 160.138C278.224 159.709 277.906 159.382 277.505 159.158C277.113 158.925 276.679 158.808 276.203 158.808C275.727 158.808 275.293 158.92 274.901 159.144C274.509 159.368 274.196 159.695 273.963 160.124C273.73 160.553 273.613 161.057 273.613 161.636C273.613 162.224 273.73 162.737 273.963 163.176C274.196 163.605 274.509 163.937 274.901 164.17C275.293 164.394 275.727 164.506 276.203 164.506C276.679 164.506 277.113 164.394 277.505 164.17C277.906 163.937 278.224 163.605 278.457 163.176C278.69 162.737 278.807 162.229 278.807 161.65ZM287.254 155.14V165.5H285.98V155.14H287.254ZM296.426 161.37C296.426 161.613 296.412 161.869 296.384 162.14H290.252C290.298 162.896 290.555 163.489 291.022 163.918C291.498 164.338 292.072 164.548 292.744 164.548C293.294 164.548 293.752 164.422 294.116 164.17C294.489 163.909 294.75 163.563 294.9 163.134H296.272C296.066 163.871 295.656 164.473 295.04 164.94C294.424 165.397 293.658 165.626 292.744 165.626C292.016 165.626 291.362 165.463 290.784 165.136C290.214 164.809 289.766 164.347 289.44 163.75C289.113 163.143 288.95 162.443 288.95 161.65C288.95 160.857 289.108 160.161 289.426 159.564C289.743 158.967 290.186 158.509 290.756 158.192C291.334 157.865 291.997 157.702 292.744 157.702C293.472 157.702 294.116 157.861 294.676 158.178C295.236 158.495 295.665 158.934 295.964 159.494C296.272 160.045 296.426 160.67 296.426 161.37ZM295.11 161.104C295.11 160.619 295.002 160.203 294.788 159.858C294.573 159.503 294.279 159.237 293.906 159.06C293.542 158.873 293.136 158.78 292.688 158.78C292.044 158.78 291.493 158.985 291.036 159.396C290.588 159.807 290.331 160.376 290.266 161.104H295.11ZM298.765 156.582C298.523 156.582 298.317 156.498 298.149 156.33C297.981 156.162 297.897 155.957 297.897 155.714C297.897 155.471 297.981 155.266 298.149 155.098C298.317 154.93 298.523 154.846 298.765 154.846C298.999 154.846 299.195 154.93 299.353 155.098C299.521 155.266 299.605 155.471 299.605 155.714C299.605 155.957 299.521 156.162 299.353 156.33C299.195 156.498 298.999 156.582 298.765 156.582ZM299.381 157.828V165.5H298.107V157.828H299.381ZM303.107 158.878V163.4C303.107 163.773 303.186 164.039 303.345 164.198C303.503 164.347 303.779 164.422 304.171 164.422H305.109V165.5H303.961C303.251 165.5 302.719 165.337 302.365 165.01C302.01 164.683 301.833 164.147 301.833 163.4V158.878H300.839V157.828H301.833V155.896H303.107V157.828H305.109V158.878H303.107ZM313.456 157.828V165.5H312.182V164.366C311.94 164.758 311.599 165.066 311.16 165.29C310.731 165.505 310.255 165.612 309.732 165.612C309.135 165.612 308.598 165.491 308.122 165.248C307.646 164.996 307.268 164.623 306.988 164.128C306.718 163.633 306.582 163.031 306.582 162.322V157.828H307.842V162.154C307.842 162.91 308.034 163.493 308.416 163.904C308.799 164.305 309.322 164.506 309.984 164.506C310.666 164.506 311.202 164.296 311.594 163.876C311.986 163.456 312.182 162.845 312.182 162.042V157.828H313.456ZM316.881 159.074C317.105 158.635 317.423 158.295 317.833 158.052C318.253 157.809 318.762 157.688 319.359 157.688V159.004H319.023C317.595 159.004 316.881 159.779 316.881 161.328V165.5H315.607V157.828H316.881V159.074ZM320.354 161.636C320.354 160.852 320.513 160.166 320.83 159.578C321.147 158.981 321.581 158.519 322.132 158.192C322.692 157.865 323.313 157.702 323.994 157.702C324.666 157.702 325.249 157.847 325.744 158.136C326.239 158.425 326.607 158.789 326.85 159.228V157.828H328.138V165.5H326.85V164.072C326.598 164.52 326.22 164.893 325.716 165.192C325.221 165.481 324.643 165.626 323.98 165.626C323.299 165.626 322.683 165.458 322.132 165.122C321.581 164.786 321.147 164.315 320.83 163.708C320.513 163.101 320.354 162.411 320.354 161.636ZM326.85 161.65C326.85 161.071 326.733 160.567 326.5 160.138C326.267 159.709 325.949 159.382 325.548 159.158C325.156 158.925 324.722 158.808 324.246 158.808C323.77 158.808 323.336 158.92 322.944 159.144C322.552 159.368 322.239 159.695 322.006 160.124C321.773 160.553 321.656 161.057 321.656 161.636C321.656 162.224 321.773 162.737 322.006 163.176C322.239 163.605 322.552 163.937 322.944 164.17C323.336 164.394 323.77 164.506 324.246 164.506C324.722 164.506 325.156 164.394 325.548 164.17C325.949 163.937 326.267 163.605 326.5 163.176C326.733 162.737 326.85 162.229 326.85 161.65ZM332.783 155.616C333.707 155.616 334.454 155.877 335.023 156.4C335.592 156.923 335.877 157.623 335.877 158.5C335.877 159.48 335.574 160.208 334.967 160.684C334.36 161.151 333.539 161.384 332.503 161.384L332.461 162.714H331.355L331.299 160.502H331.705C332.629 160.502 333.352 160.362 333.875 160.082C334.398 159.802 334.659 159.275 334.659 158.5C334.659 157.94 334.491 157.497 334.155 157.17C333.819 156.843 333.366 156.68 332.797 156.68C332.218 156.68 331.761 156.839 331.425 157.156C331.098 157.464 330.935 157.889 330.935 158.43H329.731C329.731 157.87 329.857 157.38 330.109 156.96C330.361 156.531 330.716 156.199 331.173 155.966C331.64 155.733 332.176 155.616 332.783 155.616ZM331.901 165.584C331.658 165.584 331.453 165.5 331.285 165.332C331.117 165.164 331.033 164.959 331.033 164.716C331.033 164.473 331.117 164.268 331.285 164.1C331.453 163.932 331.658 163.848 331.901 163.848C332.134 163.848 332.33 163.932 332.489 164.1C332.657 164.268 332.741 164.473 332.741 164.716C332.741 164.959 332.657 165.164 332.489 165.332C332.33 165.5 332.134 165.584 331.901 165.584Z" fill="white"/>
<rect x="23.5" y="139.5" width="379" height="43" rx="21.5" stroke="white"/>
</g>
<defs>
<filter id="filter0_f_126_3618" x="-22.9932" y="95.4023" width="551.174" height="137.193" filterUnits="userSpaceOnUse" color-interpolation-filters="sRGB">
<feFlood flood-opacity="0" result="BackgroundImageFix"/>
<feBlend mode="normal" in="SourceGraphic" in2="BackgroundImageFix" result="shape"/>
<feGaussianBlur stdDeviation="5.5" result="effect1_foregroundBlur_126_3618"/>
</filter>
<filter id="filter1_f_126_3618" x="-17.7354" y="-50.4043" width="537.102" height="240.66" filterUnits="userSpaceOnUse" color-interpolation-filters="sRGB">
<feFlood flood-opacity="0" result="BackgroundImageFix"/>
<feBlend mode="normal" in="SourceGraphic" in2="BackgroundImageFix" result="shape"/>
<feGaussianBlur stdDeviation="4" result="effect1_foregroundBlur_126_3618"/>
</filter>
<filter id="filter2_f_126_3618" x="-78.0156" y="103.965" width="568.908" height="72.9102" filterUnits="userSpaceOnUse" color-interpolation-filters="sRGB">
<feFlood flood-opacity="0" result="BackgroundImageFix"/>
<feBlend mode="normal" in="SourceGraphic" in2="BackgroundImageFix" result="shape"/>
<feGaussianBlur stdDeviation="9.5" result="effect1_foregroundBlur_126_3618"/>
</filter>
<linearGradient id="paint0_linear_126_3618" x1="178.829" y1="-25.8001" x2="767.418" y2="129.347" gradientUnits="userSpaceOnUse">
<stop stop-color="#002F52"/>
<stop offset="1" stop-color="#326589"/>
</linearGradient>
<linearGradient id="paint1_linear_126_3618" x1="177.829" y1="-25.8001" x2="766.418" y2="129.347" gradientUnits="userSpaceOnUse">
<stop stop-color="#002F52"/>
<stop offset="1" stop-color="#326589"/>
</linearGradient>
<clipPath id="clip0_126_3618">
<rect width="428" height="215" fill="white" transform="translate(-1)"/>
</clipPath>
<clipPath id="clip1_126_3618">
<rect width="24" height="24" fill="white" transform="translate(89 149)"/>
</clipPath>
</defs>
</svg>
