<svg width="381" height="151" viewBox="0 0 381 151" fill="none" xmlns="http://www.w3.org/2000/svg">
<path d="M7.76 51.344H2.672L1.696 54H0.512L4.592 42.96H5.856L9.92 54H8.736L7.76 51.344ZM7.424 50.416L5.216 44.368L3.008 50.416H7.424ZM13.1735 46.208V51.632C13.1735 52.1653 13.2748 52.5333 13.4775 52.736C13.6802 52.9387 14.0375 53.04 14.5495 53.04H15.5735V54H14.3735C13.5842 54 12.9975 53.8187 12.6135 53.456C12.2295 53.0827 12.0375 52.4747 12.0375 51.632V46.208H10.8215V45.264H12.0375V43.072H13.1735V45.264H15.5735V46.208H13.1735ZM24.9886 45.264V54H23.8686V52.464C23.6126 53.008 23.218 53.424 22.6846 53.712C22.1513 54 21.554 54.144 20.8926 54.144C19.8473 54.144 18.994 53.824 18.3326 53.184C17.6713 52.5333 17.3406 51.5947 17.3406 50.368V45.264H18.4446V50.24C18.4446 51.1893 18.6793 51.9147 19.1486 52.416C19.6286 52.9173 20.2793 53.168 21.1006 53.168C21.9433 53.168 22.6153 52.9013 23.1166 52.368C23.618 51.8347 23.8686 51.0507 23.8686 50.016V45.264H24.9886ZM27.0336 49.616C27.0336 48.72 27.2096 47.936 27.5616 47.264C27.9243 46.5813 28.4203 46.0587 29.0496 45.696C29.6896 45.3227 30.4096 45.136 31.2096 45.136C32.0416 45.136 32.7563 45.328 33.3536 45.712C33.9616 46.096 34.399 46.5867 34.6656 47.184V45.264H35.7856V54H34.6656V52.064C34.3883 52.6613 33.9456 53.1573 33.3376 53.552C32.7403 53.936 32.0256 54.128 31.1936 54.128C30.4043 54.128 29.6896 53.9413 29.0496 53.568C28.4203 53.1947 27.9243 52.6667 27.5616 51.984C27.2096 51.3013 27.0336 50.512 27.0336 49.616ZM34.6656 49.632C34.6656 48.928 34.5216 48.3093 34.2336 47.776C33.9456 47.2427 33.551 46.832 33.0496 46.544C32.559 46.256 32.015 46.112 31.4176 46.112C30.799 46.112 30.2443 46.2507 29.7536 46.528C29.263 46.8053 28.8736 47.2107 28.5856 47.744C28.3083 48.2667 28.1696 48.8907 28.1696 49.616C28.1696 50.3307 28.3083 50.96 28.5856 51.504C28.8736 52.0373 29.263 52.448 29.7536 52.736C30.2443 53.0133 30.799 53.152 31.4176 53.152C32.015 53.152 32.559 53.008 33.0496 52.72C33.551 52.432 33.9456 52.0213 34.2336 51.488C34.5216 50.9547 34.6656 50.336 34.6656 49.632ZM39.4625 42.16V54H38.3425V42.16H39.4625ZM42.5588 43.616C42.3348 43.616 42.1428 43.536 41.9828 43.376C41.8228 43.216 41.7428 43.0187 41.7428 42.784C41.7428 42.5493 41.8228 42.3573 41.9828 42.208C42.1428 42.048 42.3348 41.968 42.5588 41.968C42.7828 41.968 42.9748 42.048 43.1348 42.208C43.2948 42.3573 43.3748 42.5493 43.3748 42.784C43.3748 43.0187 43.2948 43.216 43.1348 43.376C42.9748 43.536 42.7828 43.616 42.5588 43.616ZM43.1188 45.264V54H41.9988V45.264H43.1188ZM46.247 53.072H50.823V54H44.967V53.072L49.463 46.192H45.047V45.264H50.743V46.192L46.247 53.072ZM52.2055 49.616C52.2055 48.72 52.3815 47.936 52.7335 47.264C53.0962 46.5813 53.5922 46.0587 54.2215 45.696C54.8615 45.3227 55.5815 45.136 56.3815 45.136C57.2135 45.136 57.9282 45.328 58.5255 45.712C59.1335 46.096 59.5708 46.5867 59.8375 47.184V45.264H60.9575V54H59.8375V52.064C59.5602 52.6613 59.1175 53.1573 58.5095 53.552C57.9122 53.936 57.1975 54.128 56.3655 54.128C55.5762 54.128 54.8615 53.9413 54.2215 53.568C53.5922 53.1947 53.0962 52.6667 52.7335 51.984C52.3815 51.3013 52.2055 50.512 52.2055 49.616ZM59.8375 49.632C59.8375 48.928 59.6935 48.3093 59.4055 47.776C59.1175 47.2427 58.7228 46.832 58.2215 46.544C57.7308 46.256 57.1868 46.112 56.5895 46.112C55.9708 46.112 55.4162 46.2507 54.9255 46.528C54.4348 46.8053 54.0455 47.2107 53.7575 47.744C53.4802 48.2667 53.3415 48.8907 53.3415 49.616C53.3415 50.3307 53.4802 50.96 53.7575 51.504C54.0455 52.0373 54.4348 52.448 54.9255 52.736C55.4162 53.0133 55.9708 53.152 56.5895 53.152C57.1868 53.152 57.7308 53.008 58.2215 52.72C58.7228 52.432 59.1175 52.0213 59.4055 51.488C59.6935 50.9547 59.8375 50.336 59.8375 49.632ZM67.2424 53.184C67.9784 53.184 68.5917 53.008 69.0824 52.656C69.5837 52.2933 69.909 51.792 70.0584 51.152H71.2584C71.0664 51.9947 70.6504 52.6827 70.0104 53.216C69.381 53.7493 68.581 54.048 67.6104 54.112V55.072C68.2397 55.0507 68.7357 55.168 69.0984 55.424C69.4717 55.6907 69.6584 56.0693 69.6584 56.56C69.6584 57.04 69.4877 57.4187 69.1464 57.696C68.805 57.984 68.3517 58.128 67.7864 58.128H66.1864V57.376H67.5624C67.957 57.376 68.245 57.3067 68.4264 57.168C68.6184 57.04 68.7144 56.8373 68.7144 56.56C68.7144 56.048 68.3304 55.792 67.5624 55.792H66.8264V54.112C66.0797 54.048 65.4184 53.8293 64.8424 53.456C64.2664 53.072 63.813 52.5547 63.4824 51.904C63.1624 51.2427 63.0024 50.4853 63.0024 49.632C63.0024 48.7253 63.1837 47.936 63.5464 47.264C63.909 46.5813 64.4104 46.0587 65.0504 45.696C65.6904 45.3227 66.421 45.136 67.2424 45.136C68.3197 45.136 69.205 45.4027 69.8984 45.936C70.6024 46.4693 71.0557 47.1947 71.2584 48.112H70.0584C69.909 47.4827 69.5837 46.992 69.0824 46.64C68.5917 46.2773 67.9784 46.096 67.2424 46.096C66.6557 46.096 66.1277 46.2293 65.6584 46.496C65.189 46.7627 64.8157 47.1627 64.5384 47.696C64.2717 48.2187 64.1384 48.864 64.1384 49.632C64.1384 50.4 64.2717 51.0507 64.5384 51.584C64.8157 52.1173 65.189 52.5173 65.6584 52.784C66.1277 53.0507 66.6557 53.184 67.2424 53.184ZM77.1509 54.128C76.3295 54.128 75.5882 53.9467 74.9269 53.584C74.2762 53.2107 73.7589 52.688 73.3749 52.016C73.0015 51.3333 72.8149 50.5387 72.8149 49.632C72.8149 48.7253 73.0069 47.936 73.3909 47.264C73.7749 46.5813 74.2975 46.0587 74.9589 45.696C75.6202 45.3227 76.3615 45.136 77.1829 45.136C78.0042 45.136 78.7455 45.3227 79.4069 45.696C80.0789 46.0587 80.6015 46.5813 80.9749 47.264C81.3589 47.936 81.5509 48.7253 81.5509 49.632C81.5509 50.528 81.3589 51.3173 80.9749 52C80.5909 52.6827 80.0629 53.2107 79.3909 53.584C78.7189 53.9467 77.9722 54.128 77.1509 54.128ZM77.1509 53.152C77.7269 53.152 78.2602 53.024 78.7509 52.768C79.2415 52.5013 79.6362 52.1067 79.9349 51.584C80.2442 51.0507 80.3989 50.4 80.3989 49.632C80.3989 48.864 80.2495 48.2187 79.9509 47.696C79.6522 47.1627 79.2575 46.768 78.7669 46.512C78.2762 46.2453 77.7429 46.112 77.1669 46.112C76.5909 46.112 76.0575 46.2453 75.5669 46.512C75.0762 46.768 74.6815 47.1627 74.3829 47.696C74.0949 48.2187 73.9509 48.864 73.9509 49.632C73.9509 50.4 74.0949 51.0507 74.3829 51.584C74.6815 52.1067 75.0709 52.5013 75.5509 52.768C76.0415 53.024 76.5749 53.152 77.1509 53.152ZM75.1029 44.224C75.1669 43.744 75.3215 43.376 75.5669 43.12C75.8122 42.864 76.1269 42.736 76.5109 42.736C76.7029 42.736 76.8682 42.7733 77.0069 42.848C77.1455 42.912 77.3109 43.008 77.5029 43.136C77.6629 43.2533 77.8015 43.344 77.9189 43.408C78.0362 43.4613 78.1642 43.488 78.3029 43.488C78.4842 43.488 78.6389 43.4293 78.7669 43.312C78.8949 43.184 78.9749 43.0027 79.0069 42.768H79.6789C79.6362 43.2373 79.4815 43.6053 79.2149 43.872C78.9589 44.128 78.6389 44.256 78.2549 44.256C78.0522 44.256 77.8762 44.224 77.7269 44.16C77.5882 44.0853 77.4229 43.9787 77.2309 43.84C77.0815 43.7227 76.9482 43.6373 76.8309 43.584C76.7242 43.5307 76.6015 43.504 76.4629 43.504C76.0789 43.504 75.8549 43.744 75.7909 44.224H75.1029ZM91.4965 49.184C91.4965 49.568 91.4858 49.8613 91.4645 50.064H84.2165C84.2485 50.7253 84.4085 51.2907 84.6965 51.76C84.9845 52.2293 85.3632 52.5867 85.8325 52.832C86.3018 53.0667 86.8138 53.184 87.3685 53.184C88.0938 53.184 88.7018 53.008 89.1925 52.656C89.6938 52.304 90.0245 51.8293 90.1845 51.232H91.3685C91.1552 52.0853 90.6965 52.784 89.9925 53.328C89.2992 53.8613 88.4245 54.128 87.3685 54.128C86.5472 54.128 85.8112 53.9467 85.1605 53.584C84.5098 53.2107 83.9978 52.688 83.6245 52.016C83.2618 51.3333 83.0805 50.5387 83.0805 49.632C83.0805 48.7253 83.2618 47.9307 83.6245 47.248C83.9872 46.5653 84.4938 46.0427 85.1445 45.68C85.7952 45.3173 86.5365 45.136 87.3685 45.136C88.2005 45.136 88.9258 45.3173 89.5445 45.68C90.1738 46.0427 90.6538 46.5333 90.9845 47.152C91.3258 47.76 91.4965 48.4373 91.4965 49.184ZM90.3605 49.152C90.3712 48.5013 90.2378 47.9467 89.9605 47.488C89.6938 47.0293 89.3258 46.6827 88.8565 46.448C88.3872 46.2133 87.8752 46.096 87.3205 46.096C86.4885 46.096 85.7792 46.3627 85.1925 46.896C84.6058 47.4293 84.2805 48.1813 84.2165 49.152H90.3605ZM96.5536 54.128C95.551 54.128 94.7296 53.8987 94.0896 53.44C93.4603 52.9707 93.1083 52.336 93.0336 51.536H94.1856C94.239 52.0267 94.4683 52.4267 94.8736 52.736C95.2896 53.0347 95.8443 53.184 96.5376 53.184C97.1456 53.184 97.6203 53.04 97.9616 52.752C98.3136 52.464 98.4896 52.1067 98.4896 51.68C98.4896 51.3813 98.3936 51.136 98.2016 50.944C98.0096 50.752 97.7643 50.6027 97.4656 50.496C97.1776 50.3787 96.783 50.256 96.2816 50.128C95.631 49.9573 95.103 49.7867 94.6976 49.616C94.2923 49.4453 93.9456 49.1947 93.6576 48.864C93.3803 48.5227 93.2416 48.0693 93.2416 47.504C93.2416 47.0773 93.3696 46.6827 93.6256 46.32C93.8816 45.9573 94.2443 45.6693 94.7136 45.456C95.183 45.2427 95.7163 45.136 96.3136 45.136C97.2523 45.136 98.0096 45.376 98.5856 45.856C99.1616 46.3253 99.471 46.976 99.5136 47.808H98.3936C98.3616 47.296 98.159 46.8853 97.7856 46.576C97.423 46.256 96.9216 46.096 96.2816 46.096C95.7163 46.096 95.2576 46.2293 94.9056 46.496C94.5536 46.7627 94.3776 47.0933 94.3776 47.488C94.3776 47.8293 94.479 48.112 94.6816 48.336C94.895 48.5493 95.1563 48.72 95.4656 48.848C95.775 48.9653 96.191 49.0987 96.7136 49.248C97.343 49.4187 97.8443 49.584 98.2176 49.744C98.591 49.904 98.911 50.1387 99.1776 50.448C99.4443 50.7573 99.583 51.168 99.5936 51.68C99.5936 52.1493 99.4656 52.5707 99.2096 52.944C98.9536 53.3067 98.5963 53.5947 98.1376 53.808C97.679 54.0213 97.151 54.128 96.5536 54.128ZM105.581 49.616C105.581 48.72 105.762 47.936 106.125 47.264C106.487 46.5813 106.983 46.0587 107.613 45.696C108.253 45.3227 108.973 45.136 109.773 45.136C110.541 45.136 111.234 45.3227 111.853 45.696C112.471 46.0693 112.925 46.5547 113.213 47.152V42.16H114.333V54H113.213V52.048C112.946 52.656 112.509 53.1573 111.901 53.552C111.293 53.936 110.578 54.128 109.757 54.128C108.957 54.128 108.237 53.9413 107.597 53.568C106.967 53.1947 106.471 52.6667 106.109 51.984C105.757 51.3013 105.581 50.512 105.581 49.616ZM113.213 49.632C113.213 48.928 113.069 48.3093 112.781 47.776C112.493 47.2427 112.098 46.832 111.597 46.544C111.106 46.256 110.562 46.112 109.965 46.112C109.346 46.112 108.791 46.2507 108.301 46.528C107.81 46.8053 107.421 47.2107 107.133 47.744C106.855 48.2667 106.717 48.8907 106.717 49.616C106.717 50.3307 106.855 50.96 107.133 51.504C107.421 52.0373 107.81 52.448 108.301 52.736C108.791 53.0133 109.346 53.152 109.965 53.152C110.562 53.152 111.106 53.008 111.597 52.72C112.098 52.432 112.493 52.0213 112.781 51.488C113.069 50.9547 113.213 50.336 113.213 49.632ZM124.793 49.184C124.793 49.568 124.783 49.8613 124.761 50.064H117.513C117.545 50.7253 117.705 51.2907 117.993 51.76C118.281 52.2293 118.66 52.5867 119.129 52.832C119.599 53.0667 120.111 53.184 120.665 53.184C121.391 53.184 121.999 53.008 122.489 52.656C122.991 52.304 123.321 51.8293 123.481 51.232H124.665C124.452 52.0853 123.993 52.784 123.289 53.328C122.596 53.8613 121.721 54.128 120.665 54.128C119.844 54.128 119.108 53.9467 118.457 53.584C117.807 53.2107 117.295 52.688 116.921 52.016C116.559 51.3333 116.377 50.5387 116.377 49.632C116.377 48.7253 116.559 47.9307 116.921 47.248C117.284 46.5653 117.791 46.0427 118.441 45.68C119.092 45.3173 119.833 45.136 120.665 45.136C121.497 45.136 122.223 45.3173 122.841 45.68C123.471 46.0427 123.951 46.5333 124.281 47.152C124.623 47.76 124.793 48.4373 124.793 49.184ZM123.657 49.152C123.668 48.5013 123.535 47.9467 123.257 47.488C122.991 47.0293 122.623 46.6827 122.153 46.448C121.684 46.2133 121.172 46.096 120.617 46.096C119.785 46.096 119.076 46.3627 118.489 46.896C117.903 47.4293 117.577 48.1813 117.513 49.152H123.657ZM139.137 49.184C139.137 49.568 139.126 49.8613 139.105 50.064H131.857C131.889 50.7253 132.049 51.2907 132.337 51.76C132.625 52.2293 133.004 52.5867 133.473 52.832C133.942 53.0667 134.454 53.184 135.009 53.184C135.734 53.184 136.342 53.008 136.833 52.656C137.334 52.304 137.665 51.8293 137.825 51.232H139.009C138.796 52.0853 138.337 52.784 137.633 53.328C136.94 53.8613 136.065 54.128 135.009 54.128C134.188 54.128 133.452 53.9467 132.801 53.584C132.15 53.2107 131.638 52.688 131.265 52.016C130.902 51.3333 130.721 50.5387 130.721 49.632C130.721 48.7253 130.902 47.9307 131.265 47.248C131.628 46.5653 132.134 46.0427 132.785 45.68C133.436 45.3173 134.177 45.136 135.009 45.136C135.841 45.136 136.566 45.3173 137.185 45.68C137.814 46.0427 138.294 46.5333 138.625 47.152C138.966 47.76 139.137 48.4373 139.137 49.184ZM138.001 49.152C138.012 48.5013 137.878 47.9467 137.601 47.488C137.334 47.0293 136.966 46.6827 136.497 46.448C136.028 46.2133 135.516 46.096 134.961 46.096C134.129 46.096 133.42 46.3627 132.833 46.896C132.246 47.4293 131.921 48.1813 131.857 49.152H138.001ZM146.61 47.6V48.544H140.386V47.6H146.61ZM150.587 47.2C150.875 46.592 151.318 46.096 151.915 45.712C152.523 45.328 153.238 45.136 154.059 45.136C154.859 45.136 155.574 45.3227 156.203 45.696C156.832 46.0587 157.323 46.5813 157.675 47.264C158.038 47.936 158.219 48.72 158.219 49.616C158.219 50.512 158.038 51.3013 157.675 51.984C157.323 52.6667 156.827 53.1947 156.187 53.568C155.558 53.9413 154.848 54.128 154.059 54.128C153.227 54.128 152.507 53.9413 151.899 53.568C151.302 53.184 150.864 52.688 150.587 52.08V54H149.483V42.16H150.587V47.2ZM157.083 49.616C157.083 48.8907 156.939 48.2667 156.651 47.744C156.374 47.2107 155.99 46.8053 155.499 46.528C155.008 46.2507 154.454 46.112 153.835 46.112C153.238 46.112 152.688 46.256 152.187 46.544C151.696 46.832 151.307 47.2427 151.019 47.776C150.731 48.3093 150.587 48.928 150.587 49.632C150.587 50.336 150.731 50.9547 151.019 51.488C151.307 52.0213 151.696 52.432 152.187 52.72C152.688 53.008 153.238 53.152 153.835 53.152C154.454 53.152 155.008 53.0133 155.499 52.736C155.99 52.448 156.374 52.0373 156.651 51.504C156.939 50.96 157.083 50.3307 157.083 49.616ZM164.104 54.128C163.283 54.128 162.541 53.9467 161.88 53.584C161.229 53.2107 160.712 52.688 160.328 52.016C159.955 51.3333 159.768 50.5387 159.768 49.632C159.768 48.7253 159.96 47.936 160.344 47.264C160.728 46.5813 161.251 46.0587 161.912 45.696C162.573 45.3227 163.315 45.136 164.136 45.136C164.957 45.136 165.699 45.3227 166.36 45.696C167.032 46.0587 167.555 46.5813 167.928 47.264C168.312 47.936 168.504 48.7253 168.504 49.632C168.504 50.528 168.312 51.3173 167.928 52C167.544 52.6827 167.016 53.2107 166.344 53.584C165.672 53.9467 164.925 54.128 164.104 54.128ZM164.104 53.152C164.68 53.152 165.213 53.024 165.704 52.768C166.195 52.5013 166.589 52.1067 166.888 51.584C167.197 51.0507 167.352 50.4 167.352 49.632C167.352 48.864 167.203 48.2187 166.904 47.696C166.605 47.1627 166.211 46.768 165.72 46.512C165.229 46.2453 164.696 46.112 164.12 46.112C163.544 46.112 163.011 46.2453 162.52 46.512C162.029 46.768 161.635 47.1627 161.336 47.696C161.048 48.2187 160.904 48.864 160.904 49.632C160.904 50.4 161.048 51.0507 161.336 51.584C161.635 52.1067 162.024 52.5013 162.504 52.768C162.995 53.024 163.528 53.152 164.104 53.152ZM174.37 54.128C173.548 54.128 172.807 53.9467 172.146 53.584C171.495 53.2107 170.978 52.688 170.594 52.016C170.22 51.3333 170.034 50.5387 170.034 49.632C170.034 48.7253 170.226 47.936 170.61 47.264C170.994 46.5813 171.516 46.0587 172.178 45.696C172.839 45.3227 173.58 45.136 174.402 45.136C175.223 45.136 175.964 45.3227 176.626 45.696C177.298 46.0587 177.82 46.5813 178.194 47.264C178.578 47.936 178.77 48.7253 178.77 49.632C178.77 50.528 178.578 51.3173 178.194 52C177.81 52.6827 177.282 53.2107 176.61 53.584C175.938 53.9467 175.191 54.128 174.37 54.128ZM174.37 53.152C174.946 53.152 175.479 53.024 175.97 52.768C176.46 52.5013 176.855 52.1067 177.154 51.584C177.463 51.0507 177.618 50.4 177.618 49.632C177.618 48.864 177.468 48.2187 177.17 47.696C176.871 47.1627 176.476 46.768 175.986 46.512C175.495 46.2453 174.962 46.112 174.386 46.112C173.81 46.112 173.276 46.2453 172.786 46.512C172.295 46.768 171.9 47.1627 171.602 47.696C171.314 48.2187 171.17 48.864 171.17 49.632C171.17 50.4 171.314 51.0507 171.602 51.584C171.9 52.1067 172.29 52.5013 172.77 52.768C173.26 53.024 173.794 53.152 174.37 53.152ZM185.531 54L181.931 50.08V54H180.811V42.16H181.931V49.168L185.451 45.264H187.019L182.875 49.616L187.051 54H185.531ZM191.507 54.128C190.504 54.128 189.683 53.8987 189.043 53.44C188.413 52.9707 188.061 52.336 187.987 51.536H189.139C189.192 52.0267 189.421 52.4267 189.827 52.736C190.243 53.0347 190.797 53.184 191.491 53.184C192.099 53.184 192.573 53.04 192.915 52.752C193.267 52.464 193.443 52.1067 193.443 51.68C193.443 51.3813 193.347 51.136 193.155 50.944C192.963 50.752 192.717 50.6027 192.419 50.496C192.131 50.3787 191.736 50.256 191.235 50.128C190.584 49.9573 190.056 49.7867 189.651 49.616C189.245 49.4453 188.899 49.1947 188.611 48.864C188.333 48.5227 188.195 48.0693 188.195 47.504C188.195 47.0773 188.323 46.6827 188.579 46.32C188.835 45.9573 189.197 45.6693 189.667 45.456C190.136 45.2427 190.669 45.136 191.267 45.136C192.205 45.136 192.963 45.376 193.539 45.856C194.115 46.3253 194.424 46.976 194.467 47.808H193.347C193.315 47.296 193.112 46.8853 192.739 46.576C192.376 46.256 191.875 46.096 191.235 46.096C190.669 46.096 190.211 46.2293 189.859 46.496C189.507 46.7627 189.331 47.0933 189.331 47.488C189.331 47.8293 189.432 48.112 189.635 48.336C189.848 48.5493 190.109 48.72 190.419 48.848C190.728 48.9653 191.144 49.0987 191.667 49.248C192.296 49.4187 192.797 49.584 193.171 49.744C193.544 49.904 193.864 50.1387 194.131 50.448C194.397 50.7573 194.536 51.168 194.547 51.68C194.547 52.1493 194.419 52.5707 194.163 52.944C193.907 53.3067 193.549 53.5947 193.091 53.808C192.632 54.0213 192.104 54.128 191.507 54.128ZM197.679 52.144L196.015 56.336H195.247L196.431 52.144H197.679ZM207.907 45.104C208.953 45.104 209.806 45.4293 210.467 46.08C211.129 46.72 211.459 47.6533 211.459 48.88V54H210.355V49.008C210.355 48.0587 210.115 47.3333 209.635 46.832C209.166 46.3307 208.521 46.08 207.699 46.08C206.857 46.08 206.185 46.3467 205.683 46.88C205.182 47.4133 204.931 48.1973 204.931 49.232V54H203.811V45.264H204.931V46.752C205.209 46.2187 205.609 45.8133 206.131 45.536C206.654 45.248 207.246 45.104 207.907 45.104ZM217.76 54.128C216.939 54.128 216.198 53.9467 215.536 53.584C214.886 53.2107 214.368 52.688 213.984 52.016C213.611 51.3333 213.424 50.5387 213.424 49.632C213.424 48.7253 213.616 47.936 214 47.264C214.384 46.5813 214.907 46.0587 215.568 45.696C216.23 45.3227 216.971 45.136 217.792 45.136C218.614 45.136 219.355 45.3227 220.016 45.696C220.688 46.0587 221.211 46.5813 221.584 47.264C221.968 47.936 222.16 48.7253 222.16 49.632C222.16 50.528 221.968 51.3173 221.584 52C221.2 52.6827 220.672 53.2107 220 53.584C219.328 53.9467 218.582 54.128 217.76 54.128ZM217.76 53.152C218.336 53.152 218.87 53.024 219.36 52.768C219.851 52.5013 220.246 52.1067 220.544 51.584C220.854 51.0507 221.008 50.4 221.008 49.632C221.008 48.864 220.859 48.2187 220.56 47.696C220.262 47.1627 219.867 46.768 219.376 46.512C218.886 46.2453 218.352 46.112 217.776 46.112C217.2 46.112 216.667 46.2453 216.176 46.512C215.686 46.768 215.291 47.1627 214.992 47.696C214.704 48.2187 214.56 48.864 214.56 49.632C214.56 50.4 214.704 51.0507 214.992 51.584C215.291 52.1067 215.68 52.5013 216.16 52.768C216.651 53.024 217.184 53.152 217.76 53.152ZM227.306 52.912L230.25 45.264H231.434L227.93 54H226.666L223.162 45.264H224.362L227.306 52.912ZM236.776 54.128C235.955 54.128 235.213 53.9467 234.552 53.584C233.901 53.2107 233.384 52.688 233 52.016C232.627 51.3333 232.44 50.5387 232.44 49.632C232.44 48.7253 232.632 47.936 233.016 47.264C233.4 46.5813 233.923 46.0587 234.584 45.696C235.245 45.3227 235.987 45.136 236.808 45.136C237.629 45.136 238.371 45.3227 239.032 45.696C239.704 46.0587 240.227 46.5813 240.6 47.264C240.984 47.936 241.176 48.7253 241.176 49.632C241.176 50.528 240.984 51.3173 240.6 52C240.216 52.6827 239.688 53.2107 239.016 53.584C238.344 53.9467 237.597 54.128 236.776 54.128ZM236.776 53.152C237.352 53.152 237.885 53.024 238.376 52.768C238.867 52.5013 239.261 52.1067 239.56 51.584C239.869 51.0507 240.024 50.4 240.024 49.632C240.024 48.864 239.875 48.2187 239.576 47.696C239.277 47.1627 238.883 46.768 238.392 46.512C237.901 46.2453 237.368 46.112 236.792 46.112C236.216 46.112 235.683 46.2453 235.192 46.512C234.701 46.768 234.307 47.1627 234.008 47.696C233.72 48.2187 233.576 48.864 233.576 49.632C233.576 50.4 233.72 51.0507 234.008 51.584C234.307 52.1067 234.696 52.5013 235.176 52.768C235.667 53.024 236.2 53.152 236.776 53.152ZM246.226 54.128C245.223 54.128 244.402 53.8987 243.762 53.44C243.132 52.9707 242.78 52.336 242.706 51.536H243.858C243.911 52.0267 244.14 52.4267 244.546 52.736C244.962 53.0347 245.516 53.184 246.21 53.184C246.818 53.184 247.292 53.04 247.634 52.752C247.986 52.464 248.162 52.1067 248.162 51.68C248.162 51.3813 248.066 51.136 247.874 50.944C247.682 50.752 247.436 50.6027 247.138 50.496C246.85 50.3787 246.455 50.256 245.954 50.128C245.303 49.9573 244.775 49.7867 244.37 49.616C243.964 49.4453 243.618 49.1947 243.33 48.864C243.052 48.5227 242.914 48.0693 242.914 47.504C242.914 47.0773 243.042 46.6827 243.298 46.32C243.554 45.9573 243.916 45.6693 244.386 45.456C244.855 45.2427 245.388 45.136 245.986 45.136C246.924 45.136 247.682 45.376 248.258 45.856C248.834 46.3253 249.143 46.976 249.186 47.808H248.066C248.034 47.296 247.831 46.8853 247.458 46.576C247.095 46.256 246.594 46.096 245.954 46.096C245.388 46.096 244.93 46.2293 244.578 46.496C244.226 46.7627 244.049 47.0933 244.049 47.488C244.049 47.8293 244.151 48.112 244.354 48.336C244.567 48.5493 244.828 48.72 245.138 48.848C245.447 48.9653 245.863 49.0987 246.386 49.248C247.015 49.4187 247.516 49.584 247.89 49.744C248.263 49.904 248.583 50.1387 248.85 50.448C249.116 50.7573 249.255 51.168 249.266 51.68C249.266 52.1493 249.138 52.5707 248.882 52.944C248.626 53.3067 248.268 53.5947 247.81 53.808C247.351 54.0213 246.823 54.128 246.226 54.128ZM256.884 42.16V54H255.764V42.16H256.884ZM259.981 43.616C259.757 43.616 259.565 43.536 259.405 43.376C259.245 43.216 259.165 43.0187 259.165 42.784C259.165 42.5493 259.245 42.3573 259.405 42.208C259.565 42.048 259.757 41.968 259.981 41.968C260.205 41.968 260.397 42.048 260.557 42.208C260.717 42.3573 260.797 42.5493 260.797 42.784C260.797 43.0187 260.717 43.216 260.557 43.376C260.397 43.536 260.205 43.616 259.981 43.616ZM260.541 45.264V54H259.421V45.264H260.541ZM266.181 52.912L269.125 45.264H270.309L266.805 54H265.541L262.037 45.264H263.237L266.181 52.912ZM272.947 46.816C273.192 46.272 273.566 45.8507 274.067 45.552C274.579 45.2533 275.203 45.104 275.939 45.104V46.272H275.635C274.824 46.272 274.174 46.4907 273.683 46.928C273.192 47.3653 272.947 48.096 272.947 49.12V54H271.827V45.264H272.947V46.816ZM281.448 54.128C280.626 54.128 279.885 53.9467 279.224 53.584C278.573 53.2107 278.056 52.688 277.672 52.016C277.298 51.3333 277.112 50.5387 277.112 49.632C277.112 48.7253 277.304 47.936 277.688 47.264C278.072 46.5813 278.594 46.0587 279.256 45.696C279.917 45.3227 280.658 45.136 281.48 45.136C282.301 45.136 283.042 45.3227 283.704 45.696C284.376 46.0587 284.898 46.5813 285.272 47.264C285.656 47.936 285.848 48.7253 285.848 49.632C285.848 50.528 285.656 51.3173 285.272 52C284.888 52.6827 284.36 53.2107 283.688 53.584C283.016 53.9467 282.269 54.128 281.448 54.128ZM281.448 53.152C282.024 53.152 282.557 53.024 283.048 52.768C283.538 52.5013 283.933 52.1067 284.232 51.584C284.541 51.0507 284.696 50.4 284.696 49.632C284.696 48.864 284.546 48.2187 284.248 47.696C283.949 47.1627 283.554 46.768 283.064 46.512C282.573 46.2453 282.04 46.112 281.464 46.112C280.888 46.112 280.354 46.2453 279.864 46.512C279.373 46.768 278.978 47.1627 278.68 47.696C278.392 48.2187 278.248 48.864 278.248 49.632C278.248 50.4 278.392 51.0507 278.68 51.584C278.978 52.1067 279.368 52.5013 279.848 52.768C280.338 53.024 280.872 53.152 281.448 53.152ZM290.897 54.128C289.895 54.128 289.073 53.8987 288.433 53.44C287.804 52.9707 287.452 52.336 287.377 51.536H288.529C288.583 52.0267 288.812 52.4267 289.217 52.736C289.633 53.0347 290.188 53.184 290.881 53.184C291.489 53.184 291.964 53.04 292.305 52.752C292.657 52.464 292.833 52.1067 292.833 51.68C292.833 51.3813 292.737 51.136 292.545 50.944C292.353 50.752 292.108 50.6027 291.809 50.496C291.521 50.3787 291.127 50.256 290.625 50.128C289.975 49.9573 289.447 49.7867 289.041 49.616C288.636 49.4453 288.289 49.1947 288.001 48.864C287.724 48.5227 287.585 48.0693 287.585 47.504C287.585 47.0773 287.713 46.6827 287.969 46.32C288.225 45.9573 288.588 45.6693 289.057 45.456C289.527 45.2427 290.06 45.136 290.657 45.136C291.596 45.136 292.353 45.376 292.929 45.856C293.505 46.3253 293.815 46.976 293.857 47.808H292.737C292.705 47.296 292.503 46.8853 292.129 46.576C291.767 46.256 291.265 46.096 290.625 46.096C290.06 46.096 289.601 46.2293 289.249 46.496C288.897 46.7627 288.721 47.0933 288.721 47.488C288.721 47.8293 288.823 48.112 289.025 48.336C289.239 48.5493 289.5 48.72 289.809 48.848C290.119 48.9653 290.535 49.0987 291.057 49.248C291.687 49.4187 292.188 49.584 292.561 49.744C292.935 49.904 293.255 50.1387 293.521 50.448C293.788 50.7573 293.927 51.168 293.937 51.68C293.937 52.1493 293.809 52.5707 293.553 52.944C293.297 53.3067 292.94 53.5947 292.481 53.808C292.023 54.0213 291.495 54.128 290.897 54.128ZM297.07 52.144L295.406 56.336H294.638L295.822 52.144H297.07ZM2.384 71.184C2.66133 70.5973 3.09867 70.112 3.696 69.728C4.304 69.3333 5.024 69.136 5.856 69.136C6.64533 69.136 7.35467 69.3227 7.984 69.696C8.624 70.0587 9.12 70.5813 9.472 71.264C9.83467 71.936 10.016 72.72 10.016 73.616C10.016 74.512 9.83467 75.3013 9.472 75.984C9.12 76.6667 8.624 77.1947 7.984 77.568C7.35467 77.9413 6.64533 78.128 5.856 78.128C5.03467 78.128 4.32 77.936 3.712 77.552C3.104 77.1573 2.66133 76.6667 2.384 76.08V82.128H1.28V69.264H2.384V71.184ZM8.88 73.616C8.88 72.8907 8.736 72.2667 8.448 71.744C8.17067 71.2107 7.78667 70.8053 7.296 70.528C6.80533 70.2507 6.25067 70.112 5.632 70.112C5.03467 70.112 4.48533 70.256 3.984 70.544C3.49333 70.832 3.104 71.2427 2.816 71.776C2.528 72.3093 2.384 72.928 2.384 73.632C2.384 74.336 2.528 74.9547 2.816 75.488C3.104 76.0213 3.49333 76.432 3.984 76.72C4.48533 77.008 5.03467 77.152 5.632 77.152C6.25067 77.152 6.80533 77.0133 7.296 76.736C7.78667 76.448 8.17067 76.0373 8.448 75.504C8.736 74.96 8.88 74.3307 8.88 73.616ZM13.1969 70.816C13.4422 70.272 13.8155 69.8507 14.3169 69.552C14.8289 69.2533 15.4529 69.104 16.1889 69.104V70.272H15.8849C15.0742 70.272 14.4235 70.4907 13.9329 70.928C13.4422 71.3653 13.1969 72.096 13.1969 73.12V78H12.0769V69.264H13.1969V70.816ZM21.6978 78.128C20.8764 78.128 20.1351 77.9467 19.4738 77.584C18.8231 77.2107 18.3058 76.688 17.9218 76.016C17.5484 75.3333 17.3618 74.5387 17.3618 73.632C17.3618 72.7253 17.5538 71.936 17.9378 71.264C18.3218 70.5813 18.8444 70.0587 19.5058 69.696C20.1671 69.3227 20.9084 69.136 21.7298 69.136C22.5511 69.136 23.2924 69.3227 23.9538 69.696C24.6258 70.0587 25.1484 70.5813 25.5218 71.264C25.9058 71.936 26.0978 72.7253 26.0978 73.632C26.0978 74.528 25.9058 75.3173 25.5218 76C25.1378 76.6827 24.6098 77.2107 23.9378 77.584C23.2658 77.9467 22.5191 78.128 21.6978 78.128ZM21.6978 77.152C22.2738 77.152 22.8071 77.024 23.2978 76.768C23.7884 76.5013 24.1831 76.1067 24.4818 75.584C24.7911 75.0507 24.9458 74.4 24.9458 73.632C24.9458 72.864 24.7964 72.2187 24.4978 71.696C24.1991 71.1627 23.8044 70.768 23.3138 70.512C22.8231 70.2453 22.2898 70.112 21.7138 70.112C21.1378 70.112 20.6044 70.2453 20.1138 70.512C19.6231 70.768 19.2284 71.1627 18.9298 71.696C18.6418 72.2187 18.4978 72.864 18.4978 73.632C18.4978 74.4 18.6418 75.0507 18.9298 75.584C19.2284 76.1067 19.6178 76.5013 20.0978 76.768C20.5884 77.024 21.1218 77.152 21.6978 77.152ZM38.5394 69.104C39.5634 69.104 40.3954 69.4293 41.0354 70.08C41.686 70.72 42.0114 71.6533 42.0114 72.88V78H40.9074V73.008C40.9074 72.0587 40.678 71.3333 40.2194 70.832C39.7607 70.3307 39.1367 70.08 38.3474 70.08C37.526 70.08 36.87 70.352 36.3794 70.896C35.8887 71.44 35.6434 72.2293 35.6434 73.264V78H34.5394V73.008C34.5394 72.0587 34.31 71.3333 33.8514 70.832C33.3927 70.3307 32.7634 70.08 31.9634 70.08C31.142 70.08 30.486 70.352 29.9954 70.896C29.5047 71.44 29.2594 72.2293 29.2594 73.264V78H28.1394V69.264H29.2594V70.768C29.5367 70.224 29.9314 69.8133 30.4434 69.536C30.9554 69.248 31.526 69.104 32.1554 69.104C32.9127 69.104 33.574 69.2853 34.1394 69.648C34.7154 70.0107 35.1314 70.544 35.3874 71.248C35.622 70.5547 36.022 70.0267 36.5874 69.664C37.1634 69.2907 37.814 69.104 38.5394 69.104ZM48.3228 78.128C47.5014 78.128 46.7601 77.9467 46.0988 77.584C45.4481 77.2107 44.9308 76.688 44.5468 76.016C44.1734 75.3333 43.9868 74.5387 43.9868 73.632C43.9868 72.7253 44.1788 71.936 44.5628 71.264C44.9468 70.5813 45.4694 70.0587 46.1308 69.696C46.7921 69.3227 47.5334 69.136 48.3548 69.136C49.1761 69.136 49.9174 69.3227 50.5788 69.696C51.2508 70.0587 51.7734 70.5813 52.1468 71.264C52.5308 71.936 52.7228 72.7253 52.7228 73.632C52.7228 74.528 52.5308 75.3173 52.1468 76C51.7628 76.6827 51.2348 77.2107 50.5628 77.584C49.8908 77.9467 49.1441 78.128 48.3228 78.128ZM48.3228 77.152C48.8988 77.152 49.4321 77.024 49.9228 76.768C50.4134 76.5013 50.8081 76.1067 51.1068 75.584C51.4161 75.0507 51.5708 74.4 51.5708 73.632C51.5708 72.864 51.4214 72.2187 51.1228 71.696C50.8241 71.1627 50.4294 70.768 49.9388 70.512C49.4481 70.2453 48.9148 70.112 48.3388 70.112C47.7628 70.112 47.2294 70.2453 46.7388 70.512C46.2481 70.768 45.8534 71.1627 45.5548 71.696C45.2668 72.2187 45.1228 72.864 45.1228 73.632C45.1228 74.4 45.2668 75.0507 45.5548 75.584C45.8534 76.1067 46.2428 76.5013 46.7228 76.768C47.2134 77.024 47.7468 77.152 48.3228 77.152ZM58.4924 77.184C59.2284 77.184 59.8417 77.008 60.3324 76.656C60.8337 76.2933 61.159 75.792 61.3084 75.152H62.5084C62.3164 75.9947 61.9004 76.6827 61.2604 77.216C60.631 77.7493 59.831 78.048 58.8604 78.112V79.072C59.4897 79.0507 59.9857 79.168 60.3484 79.424C60.7217 79.6907 60.9084 80.0693 60.9084 80.56C60.9084 81.04 60.7377 81.4187 60.3964 81.696C60.055 81.984 59.6017 82.128 59.0364 82.128H57.4364V81.376H58.8124C59.207 81.376 59.495 81.3067 59.6764 81.168C59.8684 81.04 59.9644 80.8373 59.9644 80.56C59.9644 80.048 59.5804 79.792 58.8124 79.792H58.0764V78.112C57.3297 78.048 56.6684 77.8293 56.0924 77.456C55.5164 77.072 55.063 76.5547 54.7324 75.904C54.4124 75.2427 54.2524 74.4853 54.2524 73.632C54.2524 72.7253 54.4337 71.936 54.7964 71.264C55.159 70.5813 55.6604 70.0587 56.3004 69.696C56.9404 69.3227 57.671 69.136 58.4924 69.136C59.5697 69.136 60.455 69.4027 61.1484 69.936C61.8524 70.4693 62.3057 71.1947 62.5084 72.112H61.3084C61.159 71.4827 60.8337 70.992 60.3324 70.64C59.8417 70.2773 59.2284 70.096 58.4924 70.096C57.9057 70.096 57.3777 70.2293 56.9084 70.496C56.439 70.7627 56.0657 71.1627 55.7884 71.696C55.5217 72.2187 55.3884 72.864 55.3884 73.632C55.3884 74.4 55.5217 75.0507 55.7884 75.584C56.0657 76.1173 56.439 76.5173 56.9084 76.784C57.3777 77.0507 57.9057 77.184 58.4924 77.184ZM68.4009 78.128C67.5795 78.128 66.8382 77.9467 66.1769 77.584C65.5262 77.2107 65.0089 76.688 64.6249 76.016C64.2515 75.3333 64.0649 74.5387 64.0649 73.632C64.0649 72.7253 64.2569 71.936 64.6409 71.264C65.0249 70.5813 65.5475 70.0587 66.2089 69.696C66.8702 69.3227 67.6115 69.136 68.4329 69.136C69.2542 69.136 69.9955 69.3227 70.6569 69.696C71.3289 70.0587 71.8515 70.5813 72.2249 71.264C72.6089 71.936 72.8009 72.7253 72.8009 73.632C72.8009 74.528 72.6089 75.3173 72.2249 76C71.8409 76.6827 71.3129 77.2107 70.6409 77.584C69.9689 77.9467 69.2222 78.128 68.4009 78.128ZM68.4009 77.152C68.9769 77.152 69.5102 77.024 70.0009 76.768C70.4915 76.5013 70.8862 76.1067 71.1849 75.584C71.4942 75.0507 71.6489 74.4 71.6489 73.632C71.6489 72.864 71.4995 72.2187 71.2009 71.696C70.9022 71.1627 70.5075 70.768 70.0169 70.512C69.5262 70.2453 68.9929 70.112 68.4169 70.112C67.8409 70.112 67.3075 70.2453 66.8169 70.512C66.3262 70.768 65.9315 71.1627 65.6329 71.696C65.3449 72.2187 65.2009 72.864 65.2009 73.632C65.2009 74.4 65.3449 75.0507 65.6329 75.584C65.9315 76.1067 66.3209 76.5013 66.8009 76.768C67.2915 77.024 67.8249 77.152 68.4009 77.152ZM66.3529 68.224C66.4169 67.744 66.5715 67.376 66.8169 67.12C67.0622 66.864 67.3769 66.736 67.7609 66.736C67.9529 66.736 68.1182 66.7733 68.2569 66.848C68.3955 66.912 68.5609 67.008 68.7529 67.136C68.9129 67.2533 69.0515 67.344 69.1689 67.408C69.2862 67.4613 69.4142 67.488 69.5529 67.488C69.7342 67.488 69.8889 67.4293 70.0169 67.312C70.1449 67.184 70.2249 67.0027 70.2569 66.768H70.9289C70.8862 67.2373 70.7315 67.6053 70.4649 67.872C70.2089 68.128 69.8889 68.256 69.5049 68.256C69.3022 68.256 69.1262 68.224 68.9769 68.16C68.8382 68.0853 68.6729 67.9787 68.4809 67.84C68.3315 67.7227 68.1982 67.6373 68.0809 67.584C67.9742 67.5307 67.8515 67.504 67.7129 67.504C67.3289 67.504 67.1049 67.744 67.0409 68.224H66.3529ZM82.7465 73.184C82.7465 73.568 82.7358 73.8613 82.7145 74.064H75.4665C75.4985 74.7253 75.6585 75.2907 75.9465 75.76C76.2345 76.2293 76.6132 76.5867 77.0825 76.832C77.5518 77.0667 78.0638 77.184 78.6185 77.184C79.3438 77.184 79.9518 77.008 80.4425 76.656C80.9438 76.304 81.2745 75.8293 81.4345 75.232H82.6185C82.4052 76.0853 81.9465 76.784 81.2425 77.328C80.5492 77.8613 79.6745 78.128 78.6185 78.128C77.7972 78.128 77.0612 77.9467 76.4105 77.584C75.7598 77.2107 75.2478 76.688 74.8745 76.016C74.5118 75.3333 74.3305 74.5387 74.3305 73.632C74.3305 72.7253 74.5118 71.9307 74.8745 71.248C75.2372 70.5653 75.7438 70.0427 76.3945 69.68C77.0452 69.3173 77.7865 69.136 78.6185 69.136C79.4505 69.136 80.1758 69.3173 80.7945 69.68C81.4238 70.0427 81.9038 70.5333 82.2345 71.152C82.5758 71.76 82.7465 72.4373 82.7465 73.184ZM81.6105 73.152C81.6212 72.5013 81.4878 71.9467 81.2105 71.488C80.9438 71.0293 80.5758 70.6827 80.1065 70.448C79.6372 70.2133 79.1252 70.096 78.5705 70.096C77.7385 70.096 77.0292 70.3627 76.4425 70.896C75.8558 71.4293 75.5305 72.1813 75.4665 73.152H81.6105ZM87.8036 78.128C86.801 78.128 85.9796 77.8987 85.3396 77.44C84.7103 76.9707 84.3583 76.336 84.2836 75.536H85.4356C85.489 76.0267 85.7183 76.4267 86.1236 76.736C86.5396 77.0347 87.0943 77.184 87.7876 77.184C88.3956 77.184 88.8703 77.04 89.2116 76.752C89.5636 76.464 89.7396 76.1067 89.7396 75.68C89.7396 75.3813 89.6436 75.136 89.4516 74.944C89.2596 74.752 89.0143 74.6027 88.7156 74.496C88.4276 74.3787 88.033 74.256 87.5316 74.128C86.881 73.9573 86.353 73.7867 85.9476 73.616C85.5423 73.4453 85.1956 73.1947 84.9076 72.864C84.6303 72.5227 84.4916 72.0693 84.4916 71.504C84.4916 71.0773 84.6196 70.6827 84.8756 70.32C85.1316 69.9573 85.4943 69.6693 85.9636 69.456C86.433 69.2427 86.9663 69.136 87.5636 69.136C88.5023 69.136 89.2596 69.376 89.8356 69.856C90.4116 70.3253 90.721 70.976 90.7636 71.808H89.6436C89.6116 71.296 89.409 70.8853 89.0356 70.576C88.673 70.256 88.1716 70.096 87.5316 70.096C86.9663 70.096 86.5076 70.2293 86.1556 70.496C85.8036 70.7627 85.6276 71.0933 85.6276 71.488C85.6276 71.8293 85.729 72.112 85.9316 72.336C86.145 72.5493 86.4063 72.72 86.7156 72.848C87.025 72.9653 87.441 73.0987 87.9636 73.248C88.593 73.4187 89.0943 73.584 89.4676 73.744C89.841 73.904 90.161 74.1387 90.4276 74.448C90.6943 74.7573 90.833 75.168 90.8436 75.68C90.8436 76.1493 90.7156 76.5707 90.4596 76.944C90.2036 77.3067 89.8463 77.5947 89.3876 77.808C88.929 78.0213 88.401 78.128 87.8036 78.128ZM105.247 73.184C105.247 73.568 105.236 73.8613 105.215 74.064H97.9665C97.9985 74.7253 98.1585 75.2907 98.4465 75.76C98.7345 76.2293 99.1132 76.5867 99.5825 76.832C100.052 77.0667 100.564 77.184 101.119 77.184C101.844 77.184 102.452 77.008 102.943 76.656C103.444 76.304 103.775 75.8293 103.935 75.232H105.119C104.905 76.0853 104.447 76.784 103.743 77.328C103.049 77.8613 102.175 78.128 101.119 78.128C100.297 78.128 99.5612 77.9467 98.9105 77.584C98.2598 77.2107 97.7478 76.688 97.3745 76.016C97.0118 75.3333 96.8305 74.5387 96.8305 73.632C96.8305 72.7253 97.0118 71.9307 97.3745 71.248C97.7372 70.5653 98.2438 70.0427 98.8945 69.68C99.5452 69.3173 100.287 69.136 101.119 69.136C101.951 69.136 102.676 69.3173 103.295 69.68C103.924 70.0427 104.404 70.5333 104.735 71.152C105.076 71.76 105.247 72.4373 105.247 73.184ZM104.111 73.152C104.121 72.5013 103.988 71.9467 103.711 71.488C103.444 71.0293 103.076 70.6827 102.607 70.448C102.137 70.2133 101.625 70.096 101.071 70.096C100.239 70.096 99.5292 70.3627 98.9425 70.896C98.3558 71.4293 98.0305 72.1813 97.9665 73.152H104.111ZM115.51 78.128C114.689 78.128 113.948 77.9467 113.286 77.584C112.636 77.2107 112.118 76.688 111.734 76.016C111.361 75.3333 111.174 74.5387 111.174 73.632C111.174 72.7253 111.366 71.936 111.75 71.264C112.134 70.5813 112.657 70.0587 113.318 69.696C113.98 69.3227 114.721 69.136 115.542 69.136C116.364 69.136 117.105 69.3227 117.766 69.696C118.438 70.0587 118.961 70.5813 119.334 71.264C119.718 71.936 119.91 72.7253 119.91 73.632C119.91 74.528 119.718 75.3173 119.334 76C118.95 76.6827 118.422 77.2107 117.75 77.584C117.078 77.9467 116.332 78.128 115.51 78.128ZM115.51 77.152C116.086 77.152 116.62 77.024 117.11 76.768C117.601 76.5013 117.996 76.1067 118.294 75.584C118.604 75.0507 118.758 74.4 118.758 73.632C118.758 72.864 118.609 72.2187 118.31 71.696C118.012 71.1627 117.617 70.768 117.126 70.512C116.636 70.2453 116.102 70.112 115.526 70.112C114.95 70.112 114.417 70.2453 113.926 70.512C113.436 70.768 113.041 71.1627 112.742 71.696C112.454 72.2187 112.31 72.864 112.31 73.632C112.31 74.4 112.454 75.0507 112.742 75.584C113.041 76.1067 113.43 76.5013 113.91 76.768C114.401 77.024 114.934 77.152 115.51 77.152ZM129.52 69.264V78H128.4V76.464C128.144 77.008 127.749 77.424 127.216 77.712C126.683 78 126.085 78.144 125.424 78.144C124.379 78.144 123.525 77.824 122.864 77.184C122.203 76.5333 121.872 75.5947 121.872 74.368V69.264H122.976V74.24C122.976 75.1893 123.211 75.9147 123.68 76.416C124.16 76.9173 124.811 77.168 125.632 77.168C126.475 77.168 127.147 76.9013 127.648 76.368C128.149 75.8347 128.4 75.0507 128.4 74.016V69.264H129.52ZM133.533 70.208V75.632C133.533 76.1653 133.634 76.5333 133.837 76.736C134.04 76.9387 134.397 77.04 134.909 77.04H135.933V78H134.733C133.944 78 133.357 77.8187 132.973 77.456C132.589 77.0827 132.397 76.4747 132.397 75.632V70.208H131.181V69.264H132.397V67.072H133.533V69.264H135.933V70.208H133.533ZM138.9 70.816C139.145 70.272 139.519 69.8507 140.02 69.552C140.532 69.2533 141.156 69.104 141.892 69.104V70.272H141.588C140.777 70.272 140.127 70.4907 139.636 70.928C139.145 71.3653 138.9 72.096 138.9 73.12V78H137.78V69.264H138.9V70.816ZM147.401 78.128C146.58 78.128 145.838 77.9467 145.177 77.584C144.526 77.2107 144.009 76.688 143.625 76.016C143.252 75.3333 143.065 74.5387 143.065 73.632C143.065 72.7253 143.257 71.936 143.641 71.264C144.025 70.5813 144.548 70.0587 145.209 69.696C145.87 69.3227 146.612 69.136 147.433 69.136C148.254 69.136 148.996 69.3227 149.657 69.696C150.329 70.0587 150.852 70.5813 151.225 71.264C151.609 71.936 151.801 72.7253 151.801 73.632C151.801 74.528 151.609 75.3173 151.225 76C150.841 76.6827 150.313 77.2107 149.641 77.584C148.969 77.9467 148.222 78.128 147.401 78.128ZM147.401 77.152C147.977 77.152 148.51 77.024 149.001 76.768C149.492 76.5013 149.886 76.1067 150.185 75.584C150.494 75.0507 150.649 74.4 150.649 73.632C150.649 72.864 150.5 72.2187 150.201 71.696C149.902 71.1627 149.508 70.768 149.017 70.512C148.526 70.2453 147.993 70.112 147.417 70.112C146.841 70.112 146.308 70.2453 145.817 70.512C145.326 70.768 144.932 71.1627 144.633 71.696C144.345 72.2187 144.201 72.864 144.201 73.632C144.201 74.4 144.345 75.0507 144.633 75.584C144.932 76.1067 145.321 76.5013 145.801 76.768C146.292 77.024 146.825 77.152 147.401 77.152ZM156.851 78.128C155.848 78.128 155.027 77.8987 154.387 77.44C153.757 76.9707 153.405 76.336 153.331 75.536H154.483C154.536 76.0267 154.765 76.4267 155.171 76.736C155.587 77.0347 156.141 77.184 156.835 77.184C157.443 77.184 157.917 77.04 158.259 76.752C158.611 76.464 158.787 76.1067 158.787 75.68C158.787 75.3813 158.691 75.136 158.499 74.944C158.307 74.752 158.061 74.6027 157.763 74.496C157.475 74.3787 157.08 74.256 156.579 74.128C155.928 73.9573 155.4 73.7867 154.995 73.616C154.589 73.4453 154.243 73.1947 153.955 72.864C153.677 72.5227 153.539 72.0693 153.539 71.504C153.539 71.0773 153.667 70.6827 153.923 70.32C154.179 69.9573 154.541 69.6693 155.011 69.456C155.48 69.2427 156.013 69.136 156.611 69.136C157.549 69.136 158.307 69.376 158.883 69.856C159.459 70.3253 159.768 70.976 159.811 71.808H158.691C158.659 71.296 158.456 70.8853 158.083 70.576C157.72 70.256 157.219 70.096 156.579 70.096C156.013 70.096 155.555 70.2293 155.203 70.496C154.851 70.7627 154.674 71.0933 154.674 71.488C154.674 71.8293 154.776 72.112 154.979 72.336C155.192 72.5493 155.453 72.72 155.763 72.848C156.072 72.9653 156.488 73.0987 157.011 73.248C157.64 73.4187 158.141 73.584 158.515 73.744C158.888 73.904 159.208 74.1387 159.475 74.448C159.741 74.7573 159.88 75.168 159.891 75.68C159.891 76.1493 159.763 76.5707 159.507 76.944C159.251 77.3067 158.893 77.5947 158.435 77.808C157.976 78.0213 157.448 78.128 156.851 78.128ZM162.191 78.08C161.956 78.08 161.759 78 161.599 77.84C161.449 77.68 161.375 77.4827 161.375 77.248C161.375 77.0133 161.449 76.8213 161.599 76.672C161.759 76.512 161.956 76.432 162.191 76.432C162.415 76.432 162.601 76.512 162.751 76.672C162.911 76.8213 162.991 77.0133 162.991 77.248C162.991 77.4827 162.911 77.68 162.751 77.84C162.601 78 162.415 78.08 162.191 78.08Z" fill="url(#paint0_linear_123_3870)"/>
<path d="M8.712 7.49V9.164H3.402V12.854H7.542V14.528H3.402V20H1.35V7.49H8.712ZM11.6577 8.768C11.2857 8.768 10.9737 8.642 10.7217 8.39C10.4697 8.138 10.3437 7.826 10.3437 7.454C10.3437 7.082 10.4697 6.77 10.7217 6.518C10.9737 6.266 11.2857 6.14 11.6577 6.14C12.0177 6.14 12.3237 6.266 12.5757 6.518C12.8277 6.77 12.9537 7.082 12.9537 7.454C12.9537 7.826 12.8277 8.138 12.5757 8.39C12.3237 8.642 12.0177 8.768 11.6577 8.768ZM12.6657 10.082V20H10.6137V10.082H12.6657ZM14.6758 14.996C14.6758 14 14.8798 13.118 15.2878 12.35C15.7078 11.582 16.2718 10.988 16.9798 10.568C17.6998 10.136 18.4978 9.92 19.3738 9.92C20.1418 9.92 20.8198 10.076 21.4078 10.388C22.0078 10.7 22.4698 11.078 22.7938 11.522V10.082H24.8638V24.716H22.7938V18.56C22.4698 19.004 22.0018 19.382 21.3898 19.694C20.7778 20.006 20.0818 20.162 19.3018 20.162C18.4498 20.162 17.6698 19.946 16.9618 19.514C16.2658 19.07 15.7078 18.458 15.2878 17.678C14.8798 16.886 14.6758 15.992 14.6758 14.996ZM22.7938 15.032C22.7938 14.348 22.6498 13.754 22.3618 13.25C22.0858 12.746 21.7198 12.362 21.2638 12.098C20.8078 11.834 20.3158 11.702 19.7878 11.702C19.2598 11.702 18.7678 11.834 18.3118 12.098C17.8558 12.35 17.4838 12.728 17.1958 13.232C16.9198 13.724 16.7818 14.312 16.7818 14.996C16.7818 15.68 16.9198 16.28 17.1958 16.796C17.4838 17.312 17.8558 17.708 18.3118 17.984C18.7798 18.248 19.2718 18.38 19.7878 18.38C20.3158 18.38 20.8078 18.248 21.2638 17.984C21.7198 17.72 22.0858 17.336 22.3618 16.832C22.6498 16.316 22.7938 15.716 22.7938 15.032ZM36.541 10.082V20H34.489V18.83C34.165 19.238 33.739 19.562 33.211 19.802C32.695 20.03 32.143 20.144 31.555 20.144C30.775 20.144 30.073 19.982 29.449 19.658C28.837 19.334 28.351 18.854 27.991 18.218C27.643 17.582 27.469 16.814 27.469 15.914V10.082H29.503V15.608C29.503 16.496 29.725 17.18 30.169 17.66C30.613 18.128 31.219 18.362 31.987 18.362C32.755 18.362 33.361 18.128 33.805 17.66C34.261 17.18 34.489 16.496 34.489 15.608V10.082H36.541ZM48.3384 14.798C48.3384 15.17 48.3144 15.506 48.2664 15.806H40.6884C40.7484 16.598 41.0424 17.234 41.5704 17.714C42.0984 18.194 42.7464 18.434 43.5144 18.434C44.6184 18.434 45.3984 17.972 45.8544 17.048H48.0684C47.7684 17.96 47.2224 18.71 46.4304 19.298C45.6504 19.874 44.6784 20.162 43.5144 20.162C42.5664 20.162 41.7144 19.952 40.9584 19.532C40.2144 19.1 39.6264 18.5 39.1944 17.732C38.7744 16.952 38.5644 16.052 38.5644 15.032C38.5644 14.012 38.7684 13.118 39.1764 12.35C39.5964 11.57 40.1784 10.97 40.9224 10.55C41.6784 10.13 42.5424 9.92 43.5144 9.92C44.4504 9.92 45.2844 10.124 46.0164 10.532C46.7484 10.94 47.3184 11.516 47.7264 12.26C48.1344 12.992 48.3384 13.838 48.3384 14.798ZM46.1964 14.15C46.1844 13.394 45.9144 12.788 45.3864 12.332C44.8584 11.876 44.2044 11.648 43.4244 11.648C42.7164 11.648 42.1104 11.876 41.6064 12.332C41.1024 12.776 40.8024 13.382 40.7064 14.15H46.1964ZM57.0856 11.54C57.4336 11.084 57.9076 10.7 58.5076 10.388C59.1076 10.076 59.7856 9.92 60.5416 9.92C61.4056 9.92 62.1916 10.136 62.8996 10.568C63.6196 10.988 64.1836 11.582 64.5916 12.35C64.9996 13.118 65.2036 14 65.2036 14.996C65.2036 15.992 64.9996 16.886 64.5916 17.678C64.1836 18.458 63.6196 19.07 62.8996 19.514C62.1916 19.946 61.4056 20.162 60.5416 20.162C59.7856 20.162 59.1136 20.012 58.5256 19.712C57.9376 19.4 57.4576 19.016 57.0856 18.56V24.716H55.0336V10.082H57.0856V11.54ZM63.1156 14.996C63.1156 14.312 62.9716 13.724 62.6836 13.232C62.4076 12.728 62.0356 12.35 61.5676 12.098C61.1116 11.834 60.6196 11.702 60.0916 11.702C59.5756 11.702 59.0836 11.834 58.6156 12.098C58.1596 12.362 57.7876 12.746 57.4996 13.25C57.2236 13.754 57.0856 14.348 57.0856 15.032C57.0856 15.716 57.2236 16.316 57.4996 16.832C57.7876 17.336 58.1596 17.72 58.6156 17.984C59.0836 18.248 59.5756 18.38 60.0916 18.38C60.6196 18.38 61.1116 18.248 61.5676 17.984C62.0356 17.708 62.4076 17.312 62.6836 16.796C62.9716 16.28 63.1156 15.68 63.1156 14.996ZM71.5348 20.162C70.5988 20.162 69.7528 19.952 68.9968 19.532C68.2408 19.1 67.6468 18.5 67.2148 17.732C66.7828 16.952 66.5668 16.052 66.5668 15.032C66.5668 14.024 66.7888 13.13 67.2328 12.35C67.6768 11.57 68.2828 10.97 69.0508 10.55C69.8188 10.13 70.6768 9.92 71.6248 9.92C72.5728 9.92 73.4308 10.13 74.1988 10.55C74.9668 10.97 75.5728 11.57 76.0168 12.35C76.4608 13.13 76.6828 14.024 76.6828 15.032C76.6828 16.04 76.4548 16.934 75.9988 17.714C75.5428 18.494 74.9188 19.1 74.1268 19.532C73.3468 19.952 72.4828 20.162 71.5348 20.162ZM71.5348 18.38C72.0628 18.38 72.5548 18.254 73.0108 18.002C73.4788 17.75 73.8568 17.372 74.1448 16.868C74.4328 16.364 74.5768 15.752 74.5768 15.032C74.5768 14.312 74.4388 13.706 74.1628 13.214C73.8868 12.71 73.5208 12.332 73.0648 12.08C72.6088 11.828 72.1168 11.702 71.5888 11.702C71.0608 11.702 70.5688 11.828 70.1128 12.08C69.6688 12.332 69.3148 12.71 69.0508 13.214C68.7868 13.706 68.6548 14.312 68.6548 15.032C68.6548 16.1 68.9248 16.928 69.4648 17.516C70.0168 18.092 70.7068 18.38 71.5348 18.38ZM80.7633 11.522C81.0633 11.018 81.4593 10.628 81.9513 10.352C82.4553 10.064 83.0493 9.92 83.7333 9.92V12.044H83.2113C82.4073 12.044 81.7953 12.248 81.3753 12.656C80.9673 13.064 80.7633 13.772 80.7633 14.78V20H78.7113V10.082H80.7633V11.522ZM89.6113 14.996C89.6113 14 89.8153 13.118 90.2233 12.35C90.6433 11.582 91.2073 10.988 91.9153 10.568C92.6353 10.136 93.4333 9.92 94.3093 9.92C94.9573 9.92 95.5933 10.064 96.2173 10.352C96.8533 10.628 97.3573 11 97.7293 11.468V6.68H99.7993V20H97.7293V18.506C97.3933 18.986 96.9253 19.382 96.3253 19.694C95.7373 20.006 95.0593 20.162 94.2913 20.162C93.4273 20.162 92.6353 19.946 91.9153 19.514C91.2073 19.07 90.6433 18.458 90.2233 17.678C89.8153 16.886 89.6113 15.992 89.6113 14.996ZM97.7293 15.032C97.7293 14.348 97.5853 13.754 97.2973 13.25C97.0213 12.746 96.6553 12.362 96.1993 12.098C95.7433 11.834 95.2513 11.702 94.7233 11.702C94.1953 11.702 93.7033 11.834 93.2473 12.098C92.7913 12.35 92.4193 12.728 92.1313 13.232C91.8553 13.724 91.7173 14.312 91.7173 14.996C91.7173 15.68 91.8553 16.28 92.1313 16.796C92.4193 17.312 92.7913 17.708 93.2473 17.984C93.7153 18.248 94.2073 18.38 94.7233 18.38C95.2513 18.38 95.7433 18.248 96.1993 17.984C96.6553 17.72 97.0213 17.336 97.2973 16.832C97.5853 16.316 97.7293 15.716 97.7293 15.032ZM111.585 14.798C111.585 15.17 111.561 15.506 111.513 15.806H103.935C103.995 16.598 104.289 17.234 104.817 17.714C105.345 18.194 105.993 18.434 106.761 18.434C107.865 18.434 108.645 17.972 109.101 17.048H111.315C111.015 17.96 110.469 18.71 109.677 19.298C108.897 19.874 107.925 20.162 106.761 20.162C105.813 20.162 104.961 19.952 104.205 19.532C103.461 19.1 102.873 18.5 102.441 17.732C102.021 16.952 101.811 16.052 101.811 15.032C101.811 14.012 102.015 13.118 102.423 12.35C102.843 11.57 103.425 10.97 104.169 10.55C104.925 10.13 105.789 9.92 106.761 9.92C107.697 9.92 108.531 10.124 109.263 10.532C109.995 10.94 110.565 11.516 110.973 12.26C111.381 12.992 111.585 13.838 111.585 14.798ZM109.443 14.15C109.431 13.394 109.161 12.788 108.633 12.332C108.105 11.876 107.451 11.648 106.671 11.648C105.963 11.648 105.357 11.876 104.853 12.332C104.349 12.776 104.049 13.382 103.953 14.15H109.443ZM118.608 9.92C119.388 9.92 120.084 10.082 120.696 10.406C121.32 10.73 121.806 11.21 122.154 11.846C122.502 12.482 122.676 13.25 122.676 14.15V20H120.642V14.456C120.642 13.568 120.42 12.89 119.976 12.422C119.532 11.942 118.926 11.702 118.158 11.702C117.39 11.702 116.778 11.942 116.322 12.422C115.878 12.89 115.656 13.568 115.656 14.456V20H113.604V10.082H115.656V11.216C115.992 10.808 116.418 10.49 116.934 10.262C117.462 10.034 118.02 9.92 118.608 9.92ZM127.687 11.756V17.246C127.687 17.618 127.771 17.888 127.939 18.056C128.119 18.212 128.419 18.29 128.839 18.29H130.099V20H128.479C127.555 20 126.847 19.784 126.355 19.352C125.863 18.92 125.617 18.218 125.617 17.246V11.756H124.447V10.082H125.617V7.616H127.687V10.082H130.099V11.756H127.687ZM134.043 11.522C134.343 11.018 134.739 10.628 135.231 10.352C135.735 10.064 136.329 9.92 137.013 9.92V12.044H136.491C135.687 12.044 135.075 12.248 134.655 12.656C134.247 13.064 134.043 13.772 134.043 14.78V20H131.991V10.082H134.043V11.522ZM143.201 20.162C142.265 20.162 141.419 19.952 140.663 19.532C139.907 19.1 139.313 18.5 138.881 17.732C138.449 16.952 138.233 16.052 138.233 15.032C138.233 14.024 138.455 13.13 138.899 12.35C139.343 11.57 139.949 10.97 140.717 10.55C141.485 10.13 142.343 9.92 143.291 9.92C144.239 9.92 145.097 10.13 145.865 10.55C146.633 10.97 147.239 11.57 147.683 12.35C148.127 13.13 148.349 14.024 148.349 15.032C148.349 16.04 148.121 16.934 147.665 17.714C147.209 18.494 146.585 19.1 145.793 19.532C145.013 19.952 144.149 20.162 143.201 20.162ZM143.201 18.38C143.729 18.38 144.221 18.254 144.677 18.002C145.145 17.75 145.523 17.372 145.811 16.868C146.099 16.364 146.243 15.752 146.243 15.032C146.243 14.312 146.105 13.706 145.829 13.214C145.553 12.71 145.187 12.332 144.731 12.08C144.275 11.828 143.783 11.702 143.255 11.702C142.727 11.702 142.235 11.828 141.779 12.08C141.335 12.332 140.981 12.71 140.717 13.214C140.453 13.706 140.321 14.312 140.321 15.032C140.321 16.1 140.591 16.928 141.131 17.516C141.683 18.092 142.373 18.38 143.201 18.38ZM154.369 14.996C154.369 14 154.573 13.118 154.981 12.35C155.401 11.582 155.965 10.988 156.673 10.568C157.393 10.136 158.191 9.92 159.067 9.92C159.715 9.92 160.351 10.064 160.975 10.352C161.611 10.628 162.115 11 162.487 11.468V6.68H164.557V20H162.487V18.506C162.151 18.986 161.683 19.382 161.083 19.694C160.495 20.006 159.817 20.162 159.049 20.162C158.185 20.162 157.393 19.946 156.673 19.514C155.965 19.07 155.401 18.458 154.981 17.678C154.573 16.886 154.369 15.992 154.369 14.996ZM162.487 15.032C162.487 14.348 162.343 13.754 162.055 13.25C161.779 12.746 161.413 12.362 160.957 12.098C160.501 11.834 160.009 11.702 159.481 11.702C158.953 11.702 158.461 11.834 158.005 12.098C157.549 12.35 157.177 12.728 156.889 13.232C156.613 13.724 156.475 14.312 156.475 14.996C156.475 15.68 156.613 16.28 156.889 16.796C157.177 17.312 157.549 17.708 158.005 17.984C158.473 18.248 158.965 18.38 159.481 18.38C160.009 18.38 160.501 18.248 160.957 17.984C161.413 17.72 161.779 17.336 162.055 16.832C162.343 16.316 162.487 15.716 162.487 15.032ZM166.568 14.996C166.568 14 166.772 13.118 167.18 12.35C167.6 11.582 168.164 10.988 168.872 10.568C169.592 10.136 170.384 9.92 171.248 9.92C172.028 9.92 172.706 10.076 173.282 10.388C173.87 10.688 174.338 11.066 174.686 11.522V10.082H176.756V20H174.686V18.524C174.338 18.992 173.864 19.382 173.264 19.694C172.664 20.006 171.98 20.162 171.212 20.162C170.36 20.162 169.58 19.946 168.872 19.514C168.164 19.07 167.6 18.458 167.18 17.678C166.772 16.886 166.568 15.992 166.568 14.996ZM174.686 15.032C174.686 14.348 174.542 13.754 174.254 13.25C173.978 12.746 173.612 12.362 173.156 12.098C172.7 11.834 172.208 11.702 171.68 11.702C171.152 11.702 170.66 11.834 170.204 12.098C169.748 12.35 169.376 12.728 169.088 13.232C168.812 13.724 168.674 14.312 168.674 14.996C168.674 15.68 168.812 16.28 169.088 16.796C169.376 17.312 169.748 17.708 170.204 17.984C170.672 18.248 171.164 18.38 171.68 18.38C172.208 18.38 172.7 18.248 173.156 17.984C173.612 17.72 173.978 17.336 174.254 16.832C174.542 16.316 174.686 15.716 174.686 15.032ZM183.052 20.162C182.272 20.162 181.57 20.024 180.946 19.748C180.334 19.46 179.848 19.076 179.488 18.596C179.128 18.104 178.936 17.558 178.912 16.958H181.036C181.072 17.378 181.27 17.732 181.63 18.02C182.002 18.296 182.464 18.434 183.016 18.434C183.592 18.434 184.036 18.326 184.348 18.11C184.672 17.882 184.834 17.594 184.834 17.246C184.834 16.874 184.654 16.598 184.294 16.418C183.946 16.238 183.388 16.04 182.62 15.824C181.876 15.62 181.27 15.422 180.802 15.23C180.334 15.038 179.926 14.744 179.578 14.348C179.242 13.952 179.074 13.43 179.074 12.782C179.074 12.254 179.23 11.774 179.542 11.342C179.854 10.898 180.298 10.55 180.874 10.298C181.462 10.046 182.134 9.92 182.89 9.92C184.018 9.92 184.924 10.208 185.608 10.784C186.304 11.348 186.676 12.122 186.724 13.106H184.672C184.636 12.662 184.456 12.308 184.132 12.044C183.808 11.78 183.37 11.648 182.818 11.648C182.278 11.648 181.864 11.75 181.576 11.954C181.288 12.158 181.144 12.428 181.144 12.764C181.144 13.028 181.24 13.25 181.432 13.43C181.624 13.61 181.858 13.754 182.134 13.862C182.41 13.958 182.818 14.084 183.358 14.24C184.078 14.432 184.666 14.63 185.122 14.834C185.59 15.026 185.992 15.314 186.328 15.698C186.664 16.082 186.838 16.592 186.85 17.228C186.85 17.792 186.694 18.296 186.382 18.74C186.07 19.184 185.626 19.532 185.05 19.784C184.486 20.036 183.82 20.162 183.052 20.162ZM198.747 9.92C199.527 9.92 200.223 10.082 200.835 10.406C201.459 10.73 201.945 11.21 202.293 11.846C202.641 12.482 202.815 13.25 202.815 14.15V20H200.781V14.456C200.781 13.568 200.559 12.89 200.115 12.422C199.671 11.942 199.065 11.702 198.297 11.702C197.529 11.702 196.917 11.942 196.461 12.422C196.017 12.89 195.795 13.568 195.795 14.456V20H193.743V10.082H195.795V11.216C196.131 10.808 196.557 10.49 197.073 10.262C197.601 10.034 198.159 9.92 198.747 9.92ZM209.734 20.162C208.798 20.162 207.952 19.952 207.196 19.532C206.44 19.1 205.846 18.5 205.414 17.732C204.982 16.952 204.766 16.052 204.766 15.032C204.766 14.024 204.988 13.13 205.432 12.35C205.876 11.57 206.482 10.97 207.25 10.55C208.018 10.13 208.876 9.92 209.824 9.92C210.772 9.92 211.63 10.13 212.398 10.55C213.166 10.97 213.772 11.57 214.216 12.35C214.66 13.13 214.882 14.024 214.882 15.032C214.882 16.04 214.654 16.934 214.198 17.714C213.742 18.494 213.118 19.1 212.326 19.532C211.546 19.952 210.682 20.162 209.734 20.162ZM209.734 18.38C210.262 18.38 210.754 18.254 211.21 18.002C211.678 17.75 212.056 17.372 212.344 16.868C212.632 16.364 212.776 15.752 212.776 15.032C212.776 14.312 212.638 13.706 212.362 13.214C212.086 12.71 211.72 12.332 211.264 12.08C210.808 11.828 210.316 11.702 209.788 11.702C209.26 11.702 208.768 11.828 208.312 12.08C207.868 12.332 207.514 12.71 207.25 13.214C206.986 13.706 206.854 14.312 206.854 15.032C206.854 16.1 207.124 16.928 207.664 17.516C208.216 18.092 208.906 18.38 209.734 18.38ZM220.745 18.164L223.553 10.082H225.731L221.951 20H219.503L215.741 10.082H217.937L220.745 18.164ZM228.326 8.768C227.954 8.768 227.642 8.642 227.39 8.39C227.138 8.138 227.012 7.826 227.012 7.454C227.012 7.082 227.138 6.77 227.39 6.518C227.642 6.266 227.954 6.14 228.326 6.14C228.686 6.14 228.992 6.266 229.244 6.518C229.496 6.77 229.622 7.082 229.622 7.454C229.622 7.826 229.496 8.138 229.244 8.39C228.992 8.642 228.686 8.768 228.326 8.768ZM229.334 10.082V20H227.282V10.082H229.334ZM231.344 14.996C231.344 14 231.548 13.118 231.956 12.35C232.376 11.582 232.94 10.988 233.648 10.568C234.368 10.136 235.166 9.92 236.042 9.92C236.69 9.92 237.326 10.064 237.95 10.352C238.586 10.628 239.09 11 239.462 11.468V6.68H241.532V20H239.462V18.506C239.126 18.986 238.658 19.382 238.058 19.694C237.47 20.006 236.792 20.162 236.024 20.162C235.16 20.162 234.368 19.946 233.648 19.514C232.94 19.07 232.376 18.458 231.956 17.678C231.548 16.886 231.344 15.992 231.344 14.996ZM239.462 15.032C239.462 14.348 239.318 13.754 239.03 13.25C238.754 12.746 238.388 12.362 237.932 12.098C237.476 11.834 236.984 11.702 236.456 11.702C235.928 11.702 235.436 11.834 234.98 12.098C234.524 12.35 234.152 12.728 233.864 13.232C233.588 13.724 233.45 14.312 233.45 14.996C233.45 15.68 233.588 16.28 233.864 16.796C234.152 17.312 234.524 17.708 234.98 17.984C235.448 18.248 235.94 18.38 236.456 18.38C236.984 18.38 237.476 18.248 237.932 17.984C238.388 17.72 238.754 17.336 239.03 16.832C239.318 16.316 239.462 15.716 239.462 15.032ZM243.543 14.996C243.543 14 243.747 13.118 244.155 12.35C244.575 11.582 245.139 10.988 245.847 10.568C246.567 10.136 247.359 9.92 248.223 9.92C249.003 9.92 249.681 10.076 250.257 10.388C250.845 10.688 251.313 11.066 251.661 11.522V10.082H253.731V20H251.661V18.524C251.313 18.992 250.839 19.382 250.239 19.694C249.639 20.006 248.955 20.162 248.187 20.162C247.335 20.162 246.555 19.946 245.847 19.514C245.139 19.07 244.575 18.458 244.155 17.678C243.747 16.886 243.543 15.992 243.543 14.996ZM251.661 15.032C251.661 14.348 251.517 13.754 251.229 13.25C250.953 12.746 250.587 12.362 250.131 12.098C249.675 11.834 249.183 11.702 248.655 11.702C248.127 11.702 247.635 11.834 247.179 12.098C246.723 12.35 246.351 12.728 246.063 13.232C245.787 13.724 245.649 14.312 245.649 14.996C245.649 15.68 245.787 16.28 246.063 16.796C246.351 17.312 246.723 17.708 247.179 17.984C247.647 18.248 248.139 18.38 248.655 18.38C249.183 18.38 249.675 18.248 250.131 17.984C250.587 17.72 250.953 17.336 251.229 16.832C251.517 16.316 251.661 15.716 251.661 15.032ZM255.742 14.996C255.742 14 255.946 13.118 256.354 12.35C256.774 11.582 257.338 10.988 258.046 10.568C258.766 10.136 259.564 9.92 260.44 9.92C261.088 9.92 261.724 10.064 262.348 10.352C262.984 10.628 263.488 11 263.86 11.468V6.68H265.93V20H263.86V18.506C263.524 18.986 263.056 19.382 262.456 19.694C261.868 20.006 261.19 20.162 260.422 20.162C259.558 20.162 258.766 19.946 258.046 19.514C257.338 19.07 256.774 18.458 256.354 17.678C255.946 16.886 255.742 15.992 255.742 14.996ZM263.86 15.032C263.86 14.348 263.716 13.754 263.428 13.25C263.152 12.746 262.786 12.362 262.33 12.098C261.874 11.834 261.382 11.702 260.854 11.702C260.326 11.702 259.834 11.834 259.378 12.098C258.922 12.35 258.55 12.728 258.262 13.232C257.986 13.724 257.848 14.312 257.848 14.996C257.848 15.68 257.986 16.28 258.262 16.796C258.55 17.312 258.922 17.708 259.378 17.984C259.846 18.248 260.338 18.38 260.854 18.38C261.382 18.38 261.874 18.248 262.33 17.984C262.786 17.72 263.152 17.336 263.428 16.832C263.716 16.316 263.86 15.716 263.86 15.032ZM277.715 14.798C277.715 15.17 277.691 15.506 277.643 15.806H270.065C270.125 16.598 270.419 17.234 270.947 17.714C271.475 18.194 272.123 18.434 272.891 18.434C273.995 18.434 274.775 17.972 275.231 17.048H277.445C277.145 17.96 276.599 18.71 275.807 19.298C275.027 19.874 274.055 20.162 272.891 20.162C271.943 20.162 271.091 19.952 270.335 19.532C269.591 19.1 269.003 18.5 268.571 17.732C268.151 16.952 267.941 16.052 267.941 15.032C267.941 14.012 268.145 13.118 268.553 12.35C268.973 11.57 269.555 10.97 270.299 10.55C271.055 10.13 271.919 9.92 272.891 9.92C273.827 9.92 274.661 10.124 275.393 10.532C276.125 10.94 276.695 11.516 277.103 12.26C277.511 12.992 277.715 13.838 277.715 14.798ZM275.573 14.15C275.561 13.394 275.291 12.788 274.763 12.332C274.235 11.876 273.581 11.648 272.801 11.648C272.093 11.648 271.487 11.876 270.983 12.332C270.479 12.776 270.179 13.382 270.083 14.15H275.573ZM283.335 20.162C282.555 20.162 281.853 20.024 281.229 19.748C280.617 19.46 280.131 19.076 279.771 18.596C279.411 18.104 279.219 17.558 279.195 16.958H281.319C281.355 17.378 281.553 17.732 281.913 18.02C282.285 18.296 282.747 18.434 283.299 18.434C283.875 18.434 284.319 18.326 284.631 18.11C284.955 17.882 285.117 17.594 285.117 17.246C285.117 16.874 284.937 16.598 284.577 16.418C284.229 16.238 283.671 16.04 282.903 15.824C282.159 15.62 281.553 15.422 281.085 15.23C280.617 15.038 280.209 14.744 279.861 14.348C279.525 13.952 279.357 13.43 279.357 12.782C279.357 12.254 279.513 11.774 279.825 11.342C280.137 10.898 280.581 10.55 281.157 10.298C281.745 10.046 282.417 9.92 283.173 9.92C284.301 9.92 285.207 10.208 285.891 10.784C286.587 11.348 286.959 12.122 287.007 13.106H284.955C284.919 12.662 284.739 12.308 284.415 12.044C284.091 11.78 283.653 11.648 283.101 11.648C282.561 11.648 282.147 11.75 281.859 11.954C281.571 12.158 281.427 12.428 281.427 12.764C281.427 13.028 281.523 13.25 281.715 13.43C281.907 13.61 282.141 13.754 282.417 13.862C282.693 13.958 283.101 14.084 283.641 14.24C284.361 14.432 284.949 14.63 285.405 14.834C285.873 15.026 286.275 15.314 286.611 15.698C286.947 16.082 287.121 16.592 287.133 17.228C287.133 17.792 286.977 18.296 286.665 18.74C286.353 19.184 285.909 19.532 285.333 19.784C284.769 20.036 284.103 20.162 283.335 20.162ZM291.924 7.49L291.69 16.22H289.98L289.746 7.49H291.924ZM290.898 20.126C290.526 20.126 290.214 20 289.962 19.748C289.71 19.496 289.584 19.184 289.584 18.812C289.584 18.44 289.71 18.128 289.962 17.876C290.214 17.624 290.526 17.498 290.898 17.498C291.258 17.498 291.564 17.624 291.816 17.876C292.068 18.128 292.194 18.44 292.194 18.812C292.194 19.184 292.068 19.496 291.816 19.748C291.564 20 291.258 20.126 290.898 20.126Z" fill="url(#paint1_linear_123_3870)"/>
<g clip-path="url(#clip0_123_3870)">
<path d="M46 123C46 121.9 45.1 121 44 121H28C26.9 121 26 121.9 26 123V135C26 136.1 26.9 137 28 137H44C45.1 137 46 136.1 46 135V123ZM44 123L36 127.99L28 123H44ZM44 135H28V125L36 130L44 125V135Z" fill="url(#paint2_linear_123_3870)"/>
</g>
<path d="M58.688 129.416C58.688 128.328 58.9333 127.352 59.424 126.488C59.9147 125.613 60.5813 124.931 61.424 124.44C62.2773 123.949 63.2213 123.704 64.256 123.704C65.472 123.704 66.5333 123.997 67.44 124.584C68.3467 125.171 69.008 126.003 69.424 127.08H67.68C67.3707 126.408 66.9227 125.891 66.336 125.528C65.76 125.165 65.0667 124.984 64.256 124.984C63.4773 124.984 62.7787 125.165 62.16 125.528C61.5413 125.891 61.056 126.408 60.704 127.08C60.352 127.741 60.176 128.52 60.176 129.416C60.176 130.301 60.352 131.08 60.704 131.752C61.056 132.413 61.5413 132.925 62.16 133.288C62.7787 133.651 63.4773 133.832 64.256 133.832C65.0667 133.832 65.76 133.656 66.336 133.304C66.9227 132.941 67.3707 132.424 67.68 131.752H69.424C69.008 132.819 68.3467 133.645 67.44 134.232C66.5333 134.808 65.472 135.096 64.256 135.096C63.2213 135.096 62.2773 134.856 61.424 134.376C60.5813 133.885 59.9147 133.208 59.424 132.344C58.9333 131.48 58.688 130.504 58.688 129.416ZM71.0474 130.584C71.0474 129.688 71.2287 128.904 71.5914 128.232C71.954 127.549 72.45 127.021 73.0794 126.648C73.7194 126.275 74.4287 126.088 75.2074 126.088C75.9754 126.088 76.642 126.253 77.2074 126.584C77.7727 126.915 78.194 127.331 78.4714 127.832V126.232H79.9434V135H78.4714V133.368C78.1834 133.88 77.7514 134.307 77.1754 134.648C76.61 134.979 75.9487 135.144 75.1914 135.144C74.4127 135.144 73.7087 134.952 73.0794 134.568C72.45 134.184 71.954 133.645 71.5914 132.952C71.2287 132.259 71.0474 131.469 71.0474 130.584ZM78.4714 130.6C78.4714 129.939 78.338 129.363 78.0714 128.872C77.8047 128.381 77.442 128.008 76.9834 127.752C76.5354 127.485 76.0394 127.352 75.4954 127.352C74.9514 127.352 74.4554 127.48 74.0074 127.736C73.5594 127.992 73.202 128.365 72.9354 128.856C72.6687 129.347 72.5354 129.923 72.5354 130.584C72.5354 131.256 72.6687 131.843 72.9354 132.344C73.202 132.835 73.5594 133.213 74.0074 133.48C74.4554 133.736 74.9514 133.864 75.4954 133.864C76.0394 133.864 76.5354 133.736 76.9834 133.48C77.442 133.213 77.8047 132.835 78.0714 132.344C78.338 131.843 78.4714 131.261 78.4714 130.6ZM81.8599 130.584C81.8599 129.688 82.0412 128.904 82.4039 128.232C82.7665 127.549 83.2625 127.021 83.8919 126.648C84.5319 126.275 85.2465 126.088 86.0359 126.088C86.7185 126.088 87.3532 126.248 87.9399 126.568C88.5265 126.877 88.9745 127.288 89.2839 127.8V123.16H90.7559V135H89.2839V133.352C88.9959 133.875 88.5692 134.307 88.0039 134.648C87.4385 134.979 86.7772 135.144 86.0199 135.144C85.2412 135.144 84.5319 134.952 83.8919 134.568C83.2625 134.184 82.7665 133.645 82.4039 132.952C82.0412 132.259 81.8599 131.469 81.8599 130.584ZM89.2839 130.6C89.2839 129.939 89.1505 129.363 88.8839 128.872C88.6172 128.381 88.2545 128.008 87.7959 127.752C87.3479 127.485 86.8519 127.352 86.3079 127.352C85.7639 127.352 85.2679 127.48 84.8199 127.736C84.3719 127.992 84.0145 128.365 83.7479 128.856C83.4812 129.347 83.3479 129.923 83.3479 130.584C83.3479 131.256 83.4812 131.843 83.7479 132.344C84.0145 132.835 84.3719 133.213 84.8199 133.48C85.2679 133.736 85.7639 133.864 86.3079 133.864C86.8519 133.864 87.3479 133.736 87.7959 133.48C88.2545 133.213 88.6172 132.835 88.8839 132.344C89.1505 131.843 89.2839 131.261 89.2839 130.6ZM92.6724 130.584C92.6724 129.688 92.8537 128.904 93.2164 128.232C93.579 127.549 94.075 127.021 94.7044 126.648C95.3444 126.275 96.0537 126.088 96.8324 126.088C97.6004 126.088 98.267 126.253 98.8324 126.584C99.3977 126.915 99.819 127.331 100.096 127.832V126.232H101.568V135H100.096V133.368C99.8084 133.88 99.3764 134.307 98.8004 134.648C98.235 134.979 97.5737 135.144 96.8164 135.144C96.0377 135.144 95.3337 134.952 94.7044 134.568C94.075 134.184 93.579 133.645 93.2164 132.952C92.8537 132.259 92.6724 131.469 92.6724 130.584ZM100.096 130.6C100.096 129.939 99.963 129.363 99.6964 128.872C99.4297 128.381 99.067 128.008 98.6084 127.752C98.1604 127.485 97.6644 127.352 97.1204 127.352C96.5764 127.352 96.0804 127.48 95.6324 127.736C95.1844 127.992 94.827 128.365 94.5604 128.856C94.2937 129.347 94.1604 129.923 94.1604 130.584C94.1604 131.256 94.2937 131.843 94.5604 132.344C94.827 132.835 95.1844 133.213 95.6324 133.48C96.0804 133.736 96.5764 133.864 97.1204 133.864C97.6644 133.864 98.1604 133.736 98.6084 133.48C99.067 133.213 99.4297 132.835 99.6964 132.344C99.963 131.843 100.096 131.261 100.096 130.6ZM107.133 135.144C106.461 135.144 105.858 135.032 105.325 134.808C104.792 134.573 104.37 134.253 104.061 133.848C103.752 133.432 103.581 132.957 103.549 132.424H105.053C105.096 132.861 105.298 133.219 105.661 133.496C106.034 133.773 106.52 133.912 107.117 133.912C107.672 133.912 108.109 133.789 108.429 133.544C108.749 133.299 108.909 132.989 108.909 132.616C108.909 132.232 108.738 131.949 108.397 131.768C108.056 131.576 107.528 131.389 106.813 131.208C106.162 131.037 105.629 130.867 105.213 130.696C104.808 130.515 104.456 130.253 104.157 129.912C103.869 129.56 103.725 129.101 103.725 128.536C103.725 128.088 103.858 127.677 104.125 127.304C104.392 126.931 104.77 126.637 105.261 126.424C105.752 126.2 106.312 126.088 106.941 126.088C107.912 126.088 108.696 126.333 109.293 126.824C109.89 127.315 110.21 127.987 110.253 128.84H108.797C108.765 128.381 108.578 128.013 108.237 127.736C107.906 127.459 107.458 127.32 106.893 127.32C106.37 127.32 105.954 127.432 105.645 127.656C105.336 127.88 105.181 128.173 105.181 128.536C105.181 128.824 105.272 129.064 105.453 129.256C105.645 129.437 105.88 129.587 106.157 129.704C106.445 129.811 106.84 129.933 107.341 130.072C107.97 130.243 108.482 130.413 108.877 130.584C109.272 130.744 109.608 130.989 109.885 131.32C110.173 131.651 110.322 132.083 110.333 132.616C110.333 133.096 110.2 133.528 109.933 133.912C109.666 134.296 109.288 134.6 108.797 134.824C108.317 135.037 107.762 135.144 107.133 135.144ZM114.164 127.432V132.6C114.164 133.027 114.255 133.331 114.436 133.512C114.618 133.683 114.932 133.768 115.38 133.768H116.452V135H115.14C114.33 135 113.722 134.813 113.316 134.44C112.911 134.067 112.708 133.453 112.708 132.6V127.432H111.572V126.232H112.708V124.024H114.164V126.232H116.452V127.432H114.164ZM119.672 127.656C119.928 127.155 120.291 126.765 120.76 126.488C121.24 126.211 121.822 126.072 122.504 126.072V127.576H122.12C120.488 127.576 119.672 128.461 119.672 130.232V135H118.216V126.232H119.672V127.656ZM132.185 130.28C132.185 130.557 132.169 130.851 132.137 131.16H125.129C125.182 132.024 125.476 132.701 126.009 133.192C126.553 133.672 127.209 133.912 127.977 133.912C128.606 133.912 129.129 133.768 129.545 133.48C129.972 133.181 130.27 132.787 130.441 132.296H132.009C131.774 133.139 131.305 133.827 130.601 134.36C129.897 134.883 129.022 135.144 127.977 135.144C127.145 135.144 126.398 134.957 125.737 134.584C125.086 134.211 124.574 133.683 124.201 133C123.828 132.307 123.641 131.507 123.641 130.6C123.641 129.693 123.822 128.899 124.185 128.216C124.548 127.533 125.054 127.011 125.705 126.648C126.366 126.275 127.124 126.088 127.977 126.088C128.809 126.088 129.545 126.269 130.185 126.632C130.825 126.995 131.316 127.496 131.657 128.136C132.009 128.765 132.185 129.48 132.185 130.28ZM130.681 129.976C130.681 129.421 130.558 128.947 130.313 128.552C130.068 128.147 129.732 127.843 129.305 127.64C128.889 127.427 128.425 127.32 127.913 127.32C127.177 127.32 126.548 127.555 126.025 128.024C125.513 128.493 125.22 129.144 125.145 129.976H130.681ZM141.477 135.144C140.805 135.144 140.202 135.032 139.669 134.808C139.135 134.573 138.714 134.253 138.405 133.848C138.095 133.432 137.925 132.957 137.893 132.424H139.397C139.439 132.861 139.642 133.219 140.005 133.496C140.378 133.773 140.863 133.912 141.461 133.912C142.015 133.912 142.453 133.789 142.773 133.544C143.093 133.299 143.253 132.989 143.253 132.616C143.253 132.232 143.082 131.949 142.741 131.768C142.399 131.576 141.871 131.389 141.157 131.208C140.506 131.037 139.973 130.867 139.557 130.696C139.151 130.515 138.799 130.253 138.501 129.912C138.213 129.56 138.069 129.101 138.069 128.536C138.069 128.088 138.202 127.677 138.469 127.304C138.735 126.931 139.114 126.637 139.605 126.424C140.095 126.2 140.655 126.088 141.285 126.088C142.255 126.088 143.039 126.333 143.637 126.824C144.234 127.315 144.554 127.987 144.597 128.84H143.141C143.109 128.381 142.922 128.013 142.581 127.736C142.25 127.459 141.802 127.32 141.237 127.32C140.714 127.32 140.298 127.432 139.989 127.656C139.679 127.88 139.525 128.173 139.525 128.536C139.525 128.824 139.615 129.064 139.797 129.256C139.989 129.437 140.223 129.587 140.501 129.704C140.789 129.811 141.183 129.933 141.685 130.072C142.314 130.243 142.826 130.413 143.221 130.584C143.615 130.744 143.951 130.989 144.229 131.32C144.517 131.651 144.666 132.083 144.677 132.616C144.677 133.096 144.543 133.528 144.277 133.912C144.01 134.296 143.631 134.6 143.141 134.824C142.661 135.037 142.106 135.144 141.477 135.144ZM154.732 130.28C154.732 130.557 154.716 130.851 154.684 131.16H147.676C147.729 132.024 148.023 132.701 148.556 133.192C149.1 133.672 149.756 133.912 150.524 133.912C151.153 133.912 151.676 133.768 152.092 133.48C152.519 133.181 152.817 132.787 152.988 132.296H154.556C154.321 133.139 153.852 133.827 153.148 134.36C152.444 134.883 151.569 135.144 150.524 135.144C149.692 135.144 148.945 134.957 148.284 134.584C147.633 134.211 147.121 133.683 146.748 133C146.375 132.307 146.188 131.507 146.188 130.6C146.188 129.693 146.369 128.899 146.732 128.216C147.095 127.533 147.601 127.011 148.252 126.648C148.913 126.275 149.671 126.088 150.524 126.088C151.356 126.088 152.092 126.269 152.732 126.632C153.372 126.995 153.863 127.496 154.204 128.136C154.556 128.765 154.732 129.48 154.732 130.28ZM153.228 129.976C153.228 129.421 153.105 128.947 152.86 128.552C152.615 128.147 152.279 127.843 151.852 127.64C151.436 127.427 150.972 127.32 150.46 127.32C149.724 127.32 149.095 127.555 148.572 128.024C148.06 128.493 147.767 129.144 147.692 129.976H153.228ZM164.43 126.232V135H162.974V133.704C162.697 134.152 162.307 134.504 161.806 134.76C161.315 135.005 160.771 135.128 160.174 135.128C159.491 135.128 158.878 134.989 158.334 134.712C157.79 134.424 157.358 133.997 157.038 133.432C156.729 132.867 156.574 132.179 156.574 131.368V126.232H158.014V131.176C158.014 132.04 158.233 132.707 158.67 133.176C159.107 133.635 159.705 133.864 160.462 133.864C161.241 133.864 161.854 133.624 162.302 133.144C162.75 132.664 162.974 131.965 162.974 131.048V126.232H164.43ZM179.154 130.28C179.154 130.557 179.138 130.851 179.106 131.16H172.098C172.151 132.024 172.445 132.701 172.978 133.192C173.522 133.672 174.178 133.912 174.946 133.912C175.575 133.912 176.098 133.768 176.514 133.48C176.941 133.181 177.239 132.787 177.41 132.296H178.978C178.743 133.139 178.274 133.827 177.57 134.36C176.866 134.883 175.991 135.144 174.946 135.144C174.114 135.144 173.367 134.957 172.706 134.584C172.055 134.211 171.543 133.683 171.17 133C170.797 132.307 170.61 131.507 170.61 130.6C170.61 129.693 170.791 128.899 171.154 128.216C171.517 127.533 172.023 127.011 172.674 126.648C173.335 126.275 174.093 126.088 174.946 126.088C175.778 126.088 176.514 126.269 177.154 126.632C177.794 126.995 178.285 127.496 178.626 128.136C178.978 128.765 179.154 129.48 179.154 130.28ZM177.65 129.976C177.65 129.421 177.527 128.947 177.282 128.552C177.037 128.147 176.701 127.843 176.274 127.64C175.858 127.427 175.394 127.32 174.882 127.32C174.146 127.32 173.517 127.555 172.994 128.024C172.482 128.493 172.189 129.144 172.114 129.976H177.65ZM187.156 128.52V129.752H180.772V128.52H187.156ZM200.432 126.072C201.115 126.072 201.723 126.216 202.256 126.504C202.79 126.781 203.211 127.203 203.52 127.768C203.83 128.333 203.984 129.021 203.984 129.832V135H202.544V130.04C202.544 129.165 202.326 128.499 201.888 128.04C201.462 127.571 200.88 127.336 200.144 127.336C199.387 127.336 198.784 127.581 198.336 128.072C197.888 128.552 197.664 129.251 197.664 130.168V135H196.224V130.04C196.224 129.165 196.006 128.499 195.568 128.04C195.142 127.571 194.56 127.336 193.824 127.336C193.067 127.336 192.464 127.581 192.016 128.072C191.568 128.552 191.344 129.251 191.344 130.168V135H189.888V126.232H191.344V127.496C191.632 127.037 192.016 126.685 192.496 126.44C192.987 126.195 193.526 126.072 194.112 126.072C194.848 126.072 195.499 126.237 196.064 126.568C196.63 126.899 197.051 127.384 197.328 128.024C197.574 127.405 197.979 126.925 198.544 126.584C199.11 126.243 199.739 126.072 200.432 126.072ZM205.829 130.584C205.829 129.688 206.01 128.904 206.373 128.232C206.735 127.549 207.231 127.021 207.861 126.648C208.501 126.275 209.21 126.088 209.989 126.088C210.757 126.088 211.423 126.253 211.989 126.584C212.554 126.915 212.975 127.331 213.253 127.832V126.232H214.725V135H213.253V133.368C212.965 133.88 212.533 134.307 211.957 134.648C211.391 134.979 210.73 135.144 209.973 135.144C209.194 135.144 208.49 134.952 207.861 134.568C207.231 134.184 206.735 133.645 206.373 132.952C206.01 132.259 205.829 131.469 205.829 130.584ZM213.253 130.6C213.253 129.939 213.119 129.363 212.853 128.872C212.586 128.381 212.223 128.008 211.765 127.752C211.317 127.485 210.821 127.352 210.277 127.352C209.733 127.352 209.237 127.48 208.789 127.736C208.341 127.992 207.983 128.365 207.717 128.856C207.45 129.347 207.317 129.923 207.317 130.584C207.317 131.256 207.45 131.843 207.717 132.344C207.983 132.835 208.341 133.213 208.789 133.48C209.237 133.736 209.733 133.864 210.277 133.864C210.821 133.864 211.317 133.736 211.765 133.48C212.223 133.213 212.586 132.835 212.853 132.344C213.119 131.843 213.253 131.261 213.253 130.6ZM217.937 124.808C217.66 124.808 217.425 124.712 217.233 124.52C217.041 124.328 216.945 124.093 216.945 123.816C216.945 123.539 217.041 123.304 217.233 123.112C217.425 122.92 217.66 122.824 217.937 122.824C218.204 122.824 218.428 122.92 218.609 123.112C218.801 123.304 218.897 123.539 218.897 123.816C218.897 124.093 218.801 124.328 218.609 124.52C218.428 124.712 218.204 124.808 217.937 124.808ZM218.641 126.232V135H217.185V126.232H218.641ZM222.579 123.16V135H221.123V123.16H222.579Z" fill="url(#paint3_linear_123_3870)"/>
<rect x="0.5" y="107.5" width="379" height="43" rx="21.5" stroke="url(#paint4_linear_123_3870)"/>
<defs>
<linearGradient id="paint0_linear_123_3870" x1="159.191" y1="30.36" x2="419.564" y2="309.839" gradientUnits="userSpaceOnUse">
<stop stop-color="#002F52"/>
<stop offset="1" stop-color="#326589"/>
</linearGradient>
<linearGradient id="paint1_linear_123_3870" x1="158.773" y1="-3.36001" x2="290.922" y2="234.112" gradientUnits="userSpaceOnUse">
<stop stop-color="#002F52"/>
<stop offset="1" stop-color="#326589"/>
</linearGradient>
<linearGradient id="paint2_linear_123_3870" x1="34.3565" y1="119.08" x2="62.9873" y2="123.819" gradientUnits="userSpaceOnUse">
<stop stop-color="#002F52"/>
<stop offset="1" stop-color="#326589"/>
</linearGradient>
<linearGradient id="paint3_linear_123_3870" x1="127.359" y1="114.12" x2="260.135" y2="235.723" gradientUnits="userSpaceOnUse">
<stop stop-color="#002F52"/>
<stop offset="1" stop-color="#326589"/>
</linearGradient>
<linearGradient id="paint4_linear_123_3870" x1="158.773" y1="101.72" x2="400.956" y2="378.669" gradientUnits="userSpaceOnUse">
<stop stop-color="#002F52"/>
<stop offset="1" stop-color="#326589"/>
</linearGradient>
<clipPath id="clip0_123_3870">
<rect width="24" height="24" fill="white" transform="translate(24 117)"/>
</clipPath>
</defs>
</svg>
