<svg width="428" height="65" viewBox="0 0 428 65" fill="none" xmlns="http://www.w3.org/2000/svg">
<g clip-path="url(#clip0_123_3614)">
<rect width="428" height="65" fill="#F9F9F9"/>
<path d="M33.68 27.08C33.3707 26.4293 32.9227 25.928 32.336 25.576C31.7493 25.2133 31.0667 25.032 30.288 25.032C29.5093 25.032 28.8053 25.2133 28.176 25.576C27.5573 25.928 27.0667 26.44 26.704 27.112C26.352 27.7733 26.176 28.5413 26.176 29.416C26.176 30.2907 26.352 31.0587 26.704 31.72C27.0667 32.3813 27.5573 32.8933 28.176 33.256C28.8053 33.608 29.5093 33.784 30.288 33.784C31.376 33.784 32.272 33.4587 32.976 32.808C33.68 32.1573 34.0907 31.2773 34.208 30.168H29.76V28.984H35.76V30.104C35.6747 31.0213 35.3867 31.864 34.896 32.632C34.4053 33.3893 33.76 33.992 32.96 34.44C32.16 34.8773 31.2693 35.096 30.288 35.096C29.2533 35.096 28.3093 34.856 27.456 34.376C26.6027 33.8853 25.9253 33.208 25.424 32.344C24.9333 31.48 24.688 30.504 24.688 29.416C24.688 28.328 24.9333 27.352 25.424 26.488C25.9253 25.6133 26.6027 24.936 27.456 24.456C28.3093 23.9653 29.2533 23.72 30.288 23.72C31.472 23.72 32.5173 24.0133 33.424 24.6C34.3413 25.1867 35.008 26.0133 35.424 27.08H33.68ZM39.1411 27.656C39.3971 27.1547 39.7598 26.7653 40.2291 26.488C40.7091 26.2107 41.2905 26.072 41.9731 26.072V27.576H41.5891C39.9571 27.576 39.1411 28.4613 39.1411 30.232V35H37.6851V26.232H39.1411V27.656ZM51.4299 26.232V35H49.9739V33.704C49.6965 34.152 49.3072 34.504 48.8059 34.76C48.3152 35.0053 47.7712 35.128 47.1739 35.128C46.4912 35.128 45.8779 34.9893 45.3339 34.712C44.7899 34.424 44.3579 33.9973 44.0379 33.432C43.7285 32.8667 43.5739 32.1787 43.5739 31.368V26.232H45.0139V31.176C45.0139 32.04 45.2325 32.7067 45.6699 33.176C46.1072 33.6347 46.7045 33.864 47.4619 33.864C48.2405 33.864 48.8539 33.624 49.3019 33.144C49.7499 32.664 49.9739 31.9653 49.9739 31.048V26.232H51.4299ZM55.3443 27.848C55.6323 27.3467 56.0589 26.9307 56.6243 26.6C57.2003 26.2587 57.8669 26.088 58.6243 26.088C59.4029 26.088 60.1069 26.2747 60.7362 26.648C61.3762 27.0213 61.8776 27.5493 62.2403 28.232C62.6029 28.904 62.7843 29.688 62.7843 30.584C62.7843 31.4693 62.6029 32.2587 62.2403 32.952C61.8776 33.6453 61.3762 34.184 60.7362 34.568C60.1069 34.952 59.4029 35.144 58.6243 35.144C57.8776 35.144 57.2163 34.9787 56.6403 34.648C56.0749 34.3067 55.6429 33.8853 55.3443 33.384V39.16H53.8883V26.232H55.3443V27.848ZM61.2963 30.584C61.2963 29.9227 61.1629 29.3467 60.8963 28.856C60.6296 28.3653 60.2669 27.992 59.8083 27.736C59.3603 27.48 58.8643 27.352 58.3203 27.352C57.7869 27.352 57.2909 27.4853 56.8323 27.752C56.3843 28.008 56.0216 28.3867 55.7443 28.888C55.4776 29.3787 55.3443 29.9493 55.3443 30.6C55.3443 31.2613 55.4776 31.8427 55.7443 32.344C56.0216 32.8347 56.3843 33.2133 56.8323 33.48C57.2909 33.736 57.7869 33.864 58.3203 33.864C58.8643 33.864 59.3603 33.736 59.8083 33.48C60.2669 33.2133 60.6296 32.8347 60.8963 32.344C61.1629 31.8427 61.2963 31.256 61.2963 30.584ZM68.5248 35.144C67.7034 35.144 66.9568 34.9573 66.2848 34.584C65.6234 34.2107 65.1008 33.6827 64.7168 33C64.3434 32.3067 64.1568 31.5067 64.1568 30.6C64.1568 29.704 64.3488 28.9147 64.7328 28.232C65.1274 27.5387 65.6608 27.0107 66.3328 26.648C67.0048 26.2747 67.7568 26.088 68.5888 26.088C69.4208 26.088 70.1728 26.2747 70.8448 26.648C71.5168 27.0107 72.0448 27.5333 72.4288 28.216C72.8234 28.8987 73.0208 29.6933 73.0208 30.6C73.0208 31.5067 72.8181 32.3067 72.4128 33C72.0181 33.6827 71.4794 34.2107 70.7968 34.584C70.1141 34.9573 69.3568 35.144 68.5248 35.144ZM68.5248 33.864C69.0474 33.864 69.5381 33.7413 69.9968 33.496C70.4554 33.2507 70.8234 32.8827 71.1008 32.392C71.3888 31.9013 71.5328 31.304 71.5328 30.6C71.5328 29.896 71.3941 29.2987 71.1168 28.808C70.8394 28.3173 70.4768 27.9547 70.0288 27.72C69.5808 27.4747 69.0954 27.352 68.5728 27.352C68.0394 27.352 67.5488 27.4747 67.1008 27.72C66.6634 27.9547 66.3114 28.3173 66.0448 28.808C65.7781 29.2987 65.6448 29.896 65.6448 30.6C65.6448 31.3147 65.7728 31.9173 66.0288 32.408C66.2954 32.8987 66.6474 33.2667 67.0848 33.512C67.5221 33.7467 68.0021 33.864 68.5248 33.864ZM85.7928 32.52H80.9288L80.0328 35H78.4967L82.5288 23.912H84.2088L88.2248 35H86.6888L85.7928 32.52ZM85.3768 31.336L83.3608 25.704L81.3448 31.336H85.3768ZM91.438 23.16V35H89.982V23.16H91.438ZM101.696 26.232V35H100.24V33.704C99.9622 34.152 99.5728 34.504 99.0715 34.76C98.5808 35.0053 98.0368 35.128 97.4395 35.128C96.7568 35.128 96.1435 34.9893 95.5995 34.712C95.0555 34.424 94.6235 33.9973 94.3035 33.432C93.9942 32.8667 93.8395 32.1787 93.8395 31.368V26.232H95.2795V31.176C95.2795 32.04 95.4982 32.7067 95.9355 33.176C96.3728 33.6347 96.9702 33.864 97.7275 33.864C98.5062 33.864 99.1195 33.624 99.5675 33.144C100.016 32.664 100.24 31.9653 100.24 31.048V26.232H101.696ZM105.61 27.656C105.866 27.1547 106.229 26.7653 106.698 26.488C107.178 26.2107 107.759 26.072 108.442 26.072V27.576H108.058C106.426 27.576 105.61 28.4613 105.61 30.232V35H104.154V26.232H105.61V27.656ZM109.579 30.584C109.579 29.688 109.76 28.904 110.123 28.232C110.485 27.5493 110.981 27.0213 111.611 26.648C112.251 26.2747 112.96 26.088 113.739 26.088C114.507 26.088 115.173 26.2533 115.739 26.584C116.304 26.9147 116.725 27.3307 117.003 27.832V26.232H118.475V35H117.003V33.368C116.715 33.88 116.283 34.3067 115.707 34.648C115.141 34.9787 114.48 35.144 113.723 35.144C112.944 35.144 112.24 34.952 111.611 34.568C110.981 34.184 110.485 33.6453 110.123 32.952C109.76 32.2587 109.579 31.4693 109.579 30.584ZM117.003 30.6C117.003 29.9387 116.869 29.3627 116.603 28.872C116.336 28.3813 115.973 28.008 115.515 27.752C115.067 27.4853 114.571 27.352 114.027 27.352C113.483 27.352 112.987 27.48 112.539 27.736C112.091 27.992 111.733 28.3653 111.467 28.856C111.2 29.3467 111.067 29.9227 111.067 30.584C111.067 31.256 111.2 31.8427 111.467 32.344C111.733 32.8347 112.091 33.2133 112.539 33.48C112.987 33.736 113.483 33.864 114.027 33.864C114.571 33.864 115.067 33.736 115.515 33.48C115.973 33.2133 116.336 32.8347 116.603 32.344C116.869 31.8427 117.003 31.2613 117.003 30.6Z" fill="black"/>
<line y1="0.5" x2="1728" y2="0.5" stroke="#858585"/>
</g>
<defs>
<clipPath id="clip0_123_3614">
<rect width="428" height="65" fill="white"/>
</clipPath>
</defs>
</svg>
